<svg xmlns="http://www.w3.org/2000/svg" viewBox="0 0 64.75 48.37"><defs><style>.cls-1{isolation:isolate;}.cls-2,.cls-3{fill:#fff;}.cls-3{opacity:0.54;mix-blend-mode:overlay;}</style></defs><title>icon-1</title><g class="cls-1"><g id="Layer_1" data-name="Layer 1"><g id="_1" data-name="1"><path class="cls-2" d="M31.32,21.58,31,18.38l-2.41-.19a7.67,7.67,0,0,0-.71-1.51l1.39-2L27,12.45l-1.94,1.39a9,9,0,0,0-1.54-.72l-.2-2.36-3.2-.27-.59,2.29a8.08,8.08,0,0,0-1.65.45l-1.66-1.68-.08.06L13.61,13.4l1,2.13a8.36,8.36,0,0,0-1,1.42l-2.35-.22-.82,3.11,2.17,1a7.48,7.48,0,0,0,.16,1.7l-2,1.35,1.36,2.91,2.31-.65a8.35,8.35,0,0,0,1.2,1.18l-.63,2.32L18,31l1.37-2a8.35,8.35,0,0,0,1.65.13l1,2.2,3.1-.84L25,29.23l-.12-1.18c.23-.14.46-.28.68-.44s.45-.33.67-.51l2.19,1,1.84-2.63-1.74-1.71a7.4,7.4,0,0,0,.42-1.6Zm-7.51,3.5a5.17,5.17,0,0,1-.68.39,5.11,5.11,0,0,1-5.21-8.76,5.63,5.63,0,0,1,.62-.37,5.12,5.12,0,0,1,5.27,8.74Z"/><g id="_8" data-name="8"><path class="cls-2" d="M36.82,33l1.68-3.09A.37.37,0,0,1,39,29.8l9.41,4.77c.27.13.41.37.32.54l-2,3.59c-.09.16-.36.17-.62,0L37,33.41A.37.37,0,0,1,36.82,33Z"/><path class="cls-2" d="M45.24,38.32,47.58,34c.08-.15.36-.15.63,0l2.73,1.49c.27.15.42.39.34.53l-2.34,4.3c-.08.15-.36.15-.63,0l-2.74-1.48C45.31,38.71,45.16,38.47,45.24,38.32Z"/><path class="cls-2" d="M45.67,38.93l2.66-4.87c.11-.22.58-.2,1.05,0l14.48,7.41c.62.32,1,.79.87,1l-3.09,5.67c-.14.25-.75.18-1.35-.16l-14-8.27C45.82,39.54,45.55,39.15,45.67,38.93Z"/><polygon class="cls-2" points="41.96 31.3 39.9 35.09 40.34 35.34 43.69 37.29 44.12 37.55 46.32 33.52 41.96 31.3"/><path class="cls-2" d="M40,36l2.77-5.08c.1-.18.37-.21.62-.08l2.51,1.37a.46.46,0,0,1,.27.56l-2.77,5.08a.44.44,0,0,1-.61.07l-2.51-1.37C40,36.4,39.9,36.15,40,36Z"/><polygon class="cls-3" points="38.36 30.12 63.88 44.1 62.67 46.32 37.15 32.34 38.36 30.12"/><path class="cls-2" d="M29,40.14A20.89,20.89,0,1,0,1.65,29,20.89,20.89,0,0,0,29,40.14Zm-1.18-2.77a17.88,17.88,0,1,1,9.52-23.43A17.87,17.87,0,0,1,27.85,37.37Z"/><path class="cls-2" d="M27.62,36.81A17.28,17.28,0,1,0,5,27.62,17.27,17.27,0,0,0,27.62,36.81Zm.26,1.7a18.49,18.49,0,1,1,9.81-24.22A18.47,18.47,0,0,1,27.88,38.51Z"/></g></g></g></g></svg>