<svg id="Layer_1" data-name="Layer 1" xmlns="http://www.w3.org/2000/svg" viewBox="0 0 56.33 49.3"><defs><style>.cls-1{fill:#fff;}</style></defs><title>icon-2</title><rect class="cls-1" x="18.34" y="36.26" width="37.99" height="13.04" rx="3.72"/><path class="cls-1" d="M17.05,12.59a1.44,1.44,0,0,0-.2,2l0,0a1.44,1.44,0,0,0,2-.2l.2-.21-1.8-1.8Z"/><path class="cls-1" d="M27.23,6l.45-.46a1.42,1.42,0,0,0,.2-2h0a1.42,1.42,0,0,0-2,.2l-.46.45Z"/><rect class="cls-1" x="16.47" y="7.93" width="11.54" height="2.55" transform="translate(0.01 18.43) rotate(-45.01)"/><path class="cls-1" d="M24.13.34l0,0a1.42,1.42,0,0,0-2,.2L13.3,9.35a1.43,1.43,0,0,0-.2,2l0,0c.49.49,2.62,1.64,3.23,1l.2-.21L24.71,4l.46-.46C25.78,3,24.63.83,24.13.34Z"/><path class="cls-1" d="M40.5,15.55l0,0a5.74,5.74,0,0,0-3-1.34,1.38,1.38,0,0,1-.24.3L36.8,15l-8.16,8.16-.21.2a1.38,1.38,0,0,1-.3.24,5.74,5.74,0,0,0,1.34,3l0,0a1.43,1.43,0,0,0,2-.2l8.83-8.83A1.43,1.43,0,0,0,40.5,15.55Z"/><path class="cls-1" d="M37.07,12.22l0,0a1.42,1.42,0,0,0-2,.2l-.46.46L26.45,21l-.21.2a1.44,1.44,0,0,0-.2,2l0,0a1.35,1.35,0,0,0,1.69,0A2.17,2.17,0,0,0,28,23l.21-.21,8.16-8.16.46-.46a2.17,2.17,0,0,0,.24-.29A1.34,1.34,0,0,0,37.07,12.22Z"/><path class="cls-1" d="M.76,39.74v0a2.87,2.87,0,0,0,3.44.3c7.57-5.61,11.6-14.77,19.18-20.39A2.14,2.14,0,0,0,24,19l-1.25-1.26Z"/><path class="cls-1" d="M21.53,16.46a2.14,2.14,0,0,0-.7.65C15.21,24.69,6.05,28.71.44,36.29a2.87,2.87,0,0,0,.3,3.44h0l22-22Z"/><polygon class="cls-1" points="27.68 6.28 19.52 14.44 21.53 16.46 22.79 17.71 23.67 16.83 30.95 9.55 27.68 6.28"/><polygon class="cls-1" points="30.95 9.55 23.67 16.83 22.79 17.71 24.04 18.97 26.06 20.98 34.22 12.82 30.95 9.55"/><path class="cls-1" d="M25.18,34.47a.93.93,0,0,0,.93.94H48.56a.94.94,0,0,0,.94-.94v-.54H25.18Z"/><path class="cls-1" d="M47.61,29.84a.94.94,0,0,0-.94-.94H28a.94.94,0,0,0-.93.94v.06H47.61Z"/><path class="cls-1" d="M48.56,31.88h0a.93.93,0,0,1-.93-.93v-.24H27.07V31a.94.94,0,0,1-.94.93h0a.93.93,0,0,0-.93.94v.3H49.5v-.3A.94.94,0,0,0,48.56,31.88Z"/></svg>