<svg id="Layer_1" data-name="Layer 1" xmlns="http://www.w3.org/2000/svg" viewBox="0 0 95.14 83.26"><defs><style>.cls-1{fill:#26aae1;}</style></defs><title>icon-4</title><rect class="cls-1" x="30.97" y="61.23" width="64.16" height="22.03" rx="6.29"/><path class="cls-1" d="M28.8,21.27a2.41,2.41,0,0,0-.34,3.35l0,0a2.41,2.41,0,0,0,3.35-.34l.35-.34-3-3Z"/><path class="cls-1" d="M46,10.18l.77-.77a2.42,2.42,0,0,0,.34-3.36l0,0a2.42,2.42,0,0,0-3.36.34l-.77.77Z"/><rect class="cls-1" x="27.82" y="13.4" width="19.5" height="4.31" transform="translate(0.01 31.12) rotate(-45.01)"/><path class="cls-1" d="M40.76.57l0,0a2.41,2.41,0,0,0-3.36.34l-14.9,14.9a2.4,2.4,0,0,0-.34,3.36l0,0c.83.83,4.42,2.77,5.44,1.75l.35-.35L41.74,6.79,42.51,6C43.53,5,41.59,1.4,40.76.57Z"/><path class="cls-1" d="M68.39,26.26l0,0c-.7-.7-3.57-2.37-5-2.25a3.25,3.25,0,0,1-.4.5l-.77.77L48.36,39l-.35.35a2.38,2.38,0,0,1-.5.4c-.12,1.48,1.55,4.35,2.25,5.06l0,0a2.39,2.39,0,0,0,3.35-.34l14.91-14.9A2.39,2.39,0,0,0,68.39,26.26Z"/><path class="cls-1" d="M62.61,20.63l0,0a2.42,2.42,0,0,0-3.36.34l-.77.77L44.66,35.5l-.34.34A2.41,2.41,0,0,0,44,39.2l0,0a2.25,2.25,0,0,0,2.85.06,3.13,3.13,0,0,0,.5-.4l.35-.35L61.49,24.76l.78-.77a3.9,3.9,0,0,0,.4-.51A2.27,2.27,0,0,0,62.61,20.63Z"/><path class="cls-1" d="M1.28,67.12s0,0,0,0a4.85,4.85,0,0,0,5.81.51C19.9,58.18,26.71,42.71,39.5,33.23A3.56,3.56,0,0,0,40.6,32l-2.12-2.12Z"/><path class="cls-1" d="M36.37,27.8a3.56,3.56,0,0,0-1.2,1.1C25.69,41.69,10.22,48.49.74,61.28a4.83,4.83,0,0,0,.51,5.81l0,0,37.2-37.21Z"/><polygon class="cls-1" points="46.75 10.6 32.96 24.39 36.37 27.8 38.48 29.91 39.98 28.42 52.27 16.13 46.75 10.6"/><polygon class="cls-1" points="52.27 16.13 39.98 28.42 38.48 29.91 40.6 32.03 44.01 35.44 57.79 21.65 52.27 16.13"/><path class="cls-1" d="M42.52,58.22a1.59,1.59,0,0,0,1.58,1.59H82a1.58,1.58,0,0,0,1.58-1.59V57.3H42.52Z"/><path class="cls-1" d="M80.4,50.39a1.58,1.58,0,0,0-1.58-1.58H47.29a1.58,1.58,0,0,0-1.58,1.58v.11H80.4Z"/><path class="cls-1" d="M82,53.85h0a1.58,1.58,0,0,1-1.58-1.58v-.4H45.71v.4a1.58,1.58,0,0,1-1.58,1.58h0a1.58,1.58,0,0,0-1.58,1.58v.51H83.59v-.51A1.57,1.57,0,0,0,82,53.85Z"/></svg>