<svg id="Layer_1" data-name="Layer 1" xmlns="http://www.w3.org/2000/svg" viewBox="0 0 121.68 146.78"><defs><style>.cls-1,.cls-3,.cls-7,.cls-8{fill:#2f3082;}.cls-2,.cls-4,.cls-5{fill:none;stroke:#2f3082;}.cls-2,.cls-4,.cls-8{stroke-miterlimit:10;}.cls-2{stroke-width:5.54px;}.cls-3{fill-rule:evenodd;}.cls-4{stroke-width:1.71px;}.cls-5,.cls-7{stroke-linecap:round;stroke-linejoin:round;}.cls-5{stroke-width:2px;}.cls-10,.cls-6{fill:#fff;}.cls-7,.cls-8{stroke:#fff;}.cls-7{stroke-width:1.23px;}.cls-8{stroke-width:3px;}.cls-10,.cls-9{font-size:24px;font-family:ThaiSansNeue-SemiBold, ThaiSans Neue;font-weight:600;}.cls-9{fill:#231f20;}</style></defs><title>link-8</title><rect class="cls-1" x="12.86" y="92.09" width="95.67" height="5.29"/><polyline class="cls-2" points="33.15 2.77 2.77 2.77 2.77 33.15"/><polyline class="cls-2" points="88.53 118.91 118.91 118.91 118.91 88.53"/><polygon class="cls-3" points="70.04 130.85 60.84 146.78 51.64 130.85 70.04 130.85"/><polygon class="cls-1" points="50.81 44.73 50.81 44.78 50.23 44.62 50.81 44.73"/><path class="cls-4" d="M93.54,84.69h6A3,3,0,0,0,102.42,83a3.69,3.69,0,0,0,.41-1.53V37.57a2.59,2.59,0,0,0-.88-2.06,3.27,3.27,0,0,0-2.42-.65h-6v2.43h6.25a1,1,0,0,1,.58.08.43.43,0,0,1,0,.21V81.41a1.44,1.44,0,0,1-.16.53.64.64,0,0,1-.65.32h-6Z"/><path class="cls-1" d="M78.22,44.45V41.66h2V35.15a7.1,7.1,0,1,1,14.19,0v6.51h1.8v2.79h-1.8v3.61h1.8v2.79h-1.8V90.06H80.2V50.85h-2V48.06h2V44.45Z"/><path class="cls-1" d="M65.87,77.61V47H63.62V43.8h2.25V39.71H63.62V36.55h2.25V29.18a8,8,0,0,1,15.85-1.87A8.84,8.84,0,0,0,77,35.15v4.77H75V52.59h2V90.06H58.29V77.61Z"/><polyline class="cls-5" points="73.61 21.14 73.61 17.92 51 17.92 51 38.42 54.03 38.42 54.03 57.5"/><path class="cls-1" d="M38.86,57v2.93l-.14-.06a15.87,15.87,0,0,0-5.47-1,15.66,15.66,0,0,0-6.16,1.24V57Z"/><path class="cls-1" d="M38.19,75.42A16.7,16.7,0,0,1,42.6,64.08a14.7,14.7,0,1,0,0,22.69A16.83,16.83,0,0,1,39.51,82,16.62,16.62,0,0,1,38.19,75.42Z"/><path class="cls-6" d="M26.32,80.39a2.87,2.87,0,0,1-3.23-2.93A6.5,6.5,0,0,1,23.84,74a15.5,15.5,0,0,1,3.52-4.78,5.88,5.88,0,0,0,.1,4.35c.59,1.35,1.56,2.24,1.64,3.76A2.93,2.93,0,0,1,26.32,80.39Z"/><path class="cls-1" d="M62.8,57v3.1c-.52-.21-1.06-.39-1.6-.55l-.29-.08-.34-.09-.65-.13-.27-.05a16.31,16.31,0,0,0-8.86.9V57Z"/><path class="cls-7" d="M71.27,75.64A14.48,14.48,0,1,0,56.79,90.12,14.47,14.47,0,0,0,71.27,75.64Z"/><rect class="cls-8" x="27.34" y="83.23" width="67" height="23"/><text class="cls-9" transform="translate(46.55 101.72)">Gas</text><text class="cls-10" transform="translate(46.55 101.72)">Gas</text></svg>