<svg id="Layer_1" data-name="Layer 1" xmlns="http://www.w3.org/2000/svg" viewBox="0 0 121.68 146.78"><defs><style>.cls-1,.cls-3{fill:#2f3082;}.cls-2{fill:none;stroke:#2f3082;stroke-miterlimit:10;stroke-width:5.54px;}.cls-3{fill-rule:evenodd;}.cls-4{fill:#fff;}</style></defs><title>link-19</title><rect class="cls-1" x="8.65" y="101.37" width="52.08" height="3.54"/><rect class="cls-1" x="60.95" y="101.37" width="52.08" height="3.54"/><polyline class="cls-2" points="33.15 2.77 2.77 2.77 2.77 33.15"/><polyline class="cls-2" points="88.53 118.91 118.91 118.91 118.91 88.53"/><polygon class="cls-3" points="70.04 130.85 60.84 146.78 51.64 130.85 70.04 130.85"/><rect class="cls-1" x="17.31" y="80.84" width="42.55" height="17.07"/><rect class="cls-4" x="34.05" y="82.75" width="9.06" height="13.37" rx="1.31"/><rect class="cls-4" x="21.29" y="82.75" width="9.06" height="13.37" rx="1.31"/><rect class="cls-4" x="46.82" y="82.75" width="9.06" height="13.37" rx="1.31"/><rect class="cls-1" x="23.58" y="85.26" width="4.47" height="3.16"/><rect class="cls-1" x="23.58" y="90.49" width="4.47" height="3.16"/><rect class="cls-1" x="36.34" y="85.26" width="4.47" height="3.16"/><rect class="cls-1" x="36.34" y="90.49" width="4.47" height="3.16"/><rect class="cls-1" x="17.31" y="61.75" width="42.55" height="17.07"/><rect class="cls-4" x="34.05" y="63.66" width="9.06" height="13.37" rx="1.31"/><rect class="cls-4" x="21.29" y="63.66" width="9.06" height="13.37" rx="1.31"/><rect class="cls-4" x="46.82" y="63.66" width="9.06" height="13.37" rx="1.31"/><rect class="cls-1" x="23.58" y="66.17" width="4.47" height="3.16"/><rect class="cls-1" x="23.58" y="71.4" width="4.47" height="3.16"/><rect class="cls-1" x="36.34" y="66.17" width="4.47" height="3.16"/><rect class="cls-1" x="36.34" y="71.4" width="4.47" height="3.16"/><rect class="cls-1" x="17.31" y="43.09" width="42.55" height="17.07"/><rect class="cls-1" x="17.31" y="38.35" width="42.55" height="1.96"/><rect class="cls-4" x="34.05" y="45" width="9.06" height="13.37" rx="1.31"/><rect class="cls-4" x="21.29" y="45" width="9.06" height="13.37" rx="1.31"/><rect class="cls-4" x="46.82" y="45" width="9.06" height="13.37" rx="1.31"/><rect class="cls-1" x="23.58" y="47.51" width="4.47" height="3.16"/><rect class="cls-1" x="23.58" y="52.74" width="4.47" height="3.16"/><rect class="cls-1" x="36.34" y="47.51" width="4.47" height="3.16"/><rect class="cls-1" x="36.34" y="52.74" width="4.47" height="3.16"/><rect class="cls-1" x="49.11" y="66.17" width="4.47" height="3.16"/><rect class="cls-1" x="49.11" y="71.4" width="4.47" height="3.16"/><rect class="cls-1" x="49.11" y="47.51" width="4.47" height="3.16"/><rect class="cls-1" x="49.11" y="52.74" width="4.47" height="3.16"/><path class="cls-4" d="M57.89,97.91V95a1.31,1.31,0,0,0-1.31-1.31H46.11A1.31,1.31,0,0,0,44.8,95v3Z"/><rect class="cls-1" x="49.11" y="85.26" width="4.47" height="8.39"/><rect class="cls-1" x="46.82" y="95.78" width="9.06" height="2.13"/><rect class="cls-1" x="63.33" y="80.84" width="42.55" height="17.07"/><rect class="cls-4" x="80.07" y="82.75" width="9.06" height="13.37" rx="1.31"/><rect class="cls-4" x="67.31" y="82.75" width="9.06" height="13.37" rx="1.31"/><rect class="cls-4" x="92.84" y="82.75" width="9.06" height="13.37" rx="1.31"/><rect class="cls-1" x="69.6" y="85.26" width="4.47" height="3.16"/><rect class="cls-1" x="69.6" y="90.49" width="4.47" height="3.16"/><rect class="cls-1" x="82.36" y="85.26" width="4.47" height="3.16"/><rect class="cls-1" x="82.36" y="90.49" width="4.47" height="3.16"/><rect class="cls-1" x="63.33" y="61.75" width="42.55" height="17.07"/><rect class="cls-4" x="80.07" y="63.66" width="9.06" height="13.37" rx="1.31"/><rect class="cls-4" x="67.31" y="63.66" width="9.06" height="13.37" rx="1.31"/><rect class="cls-4" x="92.84" y="63.66" width="9.06" height="13.37" rx="1.31"/><rect class="cls-1" x="69.6" y="66.17" width="4.47" height="3.16"/><rect class="cls-1" x="69.6" y="71.4" width="4.47" height="3.16"/><rect class="cls-1" x="82.36" y="66.17" width="4.47" height="3.16"/><rect class="cls-1" x="82.36" y="71.4" width="4.47" height="3.16"/><rect class="cls-1" x="63.33" y="43.09" width="42.55" height="17.07"/><rect class="cls-1" x="63.33" y="38.35" width="42.55" height="1.96"/><rect class="cls-4" x="80.07" y="45" width="9.06" height="13.37" rx="1.31"/><rect class="cls-4" x="67.31" y="45" width="9.06" height="13.37" rx="1.31"/><rect class="cls-4" x="92.84" y="45" width="9.06" height="13.37" rx="1.31"/><rect class="cls-1" x="69.6" y="47.51" width="4.47" height="3.16"/><rect class="cls-1" x="69.6" y="52.74" width="4.47" height="3.16"/><rect class="cls-1" x="82.36" y="47.51" width="4.47" height="3.16"/><rect class="cls-1" x="82.36" y="52.74" width="4.47" height="3.16"/><rect class="cls-1" x="95.13" y="66.17" width="4.47" height="3.16"/><rect class="cls-1" x="95.13" y="71.4" width="4.47" height="3.16"/><rect class="cls-1" x="95.13" y="47.51" width="4.47" height="3.16"/><rect class="cls-1" x="95.13" y="52.74" width="4.47" height="3.16"/><path class="cls-4" d="M103.91,97.91V95a1.31,1.31,0,0,0-1.31-1.31H92.13A1.31,1.31,0,0,0,90.82,95v3Z"/><rect class="cls-1" x="95.13" y="85.26" width="4.47" height="8.39"/><rect class="cls-1" x="92.84" y="95.78" width="9.06" height="2.13"/></svg>