<svg id="Layer_1" data-name="Layer 1" xmlns="http://www.w3.org/2000/svg" viewBox="0 0 121.68 146.78"><defs><style>.cls-1,.cls-5{fill:#2f3082;}.cls-2,.cls-3,.cls-4{fill:none;stroke:#2f3082;stroke-miterlimit:10;}.cls-2{stroke-width:2px;}.cls-4{stroke-width:5.54px;}.cls-5{fill-rule:evenodd;}</style></defs><title>link-10</title><path class="cls-1" d="M70.66,67.17h37.05v6.3s.25,2.58-2.19,2.58h-22a7.23,7.23,0,0,1-3.77-1C78.38,74,70.66,67.17,70.66,67.17Z"/><path class="cls-1" d="M88.76,58.42c-3,0-6.27,7.12-6.27,7.12H99.9V58.42Zm4.31,4.76H85.31S86.76,60,88.1,60h5Z"/><rect class="cls-1" x="89.1" y="56.28" width="7.63" height="1.63"/><rect class="cls-1" x="92.27" y="47.96" width="1.29" height="9.13"/><path class="cls-1" d="M106.68,48.2c-.94.94-2.4,3.17-6.43-.43s-5.23,0-5.23,0V54s1.2-3.6,5.23,0,5.49,1.38,6.43.43Z"/><polygon class="cls-2" points="22.49 29.13 22.49 41.48 32.33 41.48 32.33 71.03 44.68 71.03 44.68 41.48 84.08 41.48 84.08 29.13 44.68 29.13 42.18 29.13 34.84 29.13 32.33 29.13 22.49 29.13"/><polygon class="cls-3" points="41.29 31.64 38.51 34.42 35.73 31.64 41.29 31.64"/><polygon class="cls-3" points="42.18 38.09 39.4 35.31 42.18 32.53 42.18 38.09"/><polygon class="cls-3" points="51.14 31.64 48.35 34.42 45.57 31.64 51.14 31.64"/><polygon class="cls-3" points="60.98 31.64 58.2 34.42 55.42 31.64 60.98 31.64"/><polygon class="cls-3" points="70.83 31.64 68.05 34.42 65.27 31.64 70.83 31.64"/><polygon class="cls-3" points="80.68 31.64 77.9 34.42 75.12 31.64 80.68 31.64"/><polygon class="cls-3" points="81.57 38.09 78.78 35.31 81.57 32.53 81.57 38.09"/><polygon class="cls-3" points="75.12 38.98 77.9 36.19 80.68 38.98 75.12 38.98"/><polygon class="cls-3" points="72.61 38.98 68.94 35.31 72.61 31.64 73.34 31.64 77.01 35.31 73.34 38.98 72.61 38.98"/><polygon class="cls-3" points="65.27 38.98 68.05 36.19 70.83 38.98 65.27 38.98"/><polygon class="cls-3" points="62.76 38.98 59.09 35.31 62.76 31.64 63.49 31.64 67.16 35.31 63.49 38.98 62.76 38.98"/><polygon class="cls-3" points="55.42 38.98 58.2 36.19 60.98 38.98 55.42 38.98"/><polygon class="cls-3" points="52.91 38.98 49.24 35.31 52.91 31.64 53.64 31.64 57.32 35.31 53.64 38.98 52.91 38.98"/><polygon class="cls-3" points="45.57 38.98 48.35 36.19 51.14 38.98 45.57 38.98"/><polygon class="cls-3" points="44.68 38.09 44.68 32.53 47.47 35.31 44.68 38.09"/><polygon class="cls-3" points="42.18 42.37 42.18 47.93 39.4 45.15 42.18 42.37"/><polygon class="cls-3" points="42.18 57.78 39.4 55 42.18 52.21 42.18 57.78"/><polygon class="cls-3" points="42.18 67.63 39.4 64.85 42.18 62.06 42.18 67.63"/><polygon class="cls-3" points="35.73 68.52 38.51 65.74 41.29 68.52 35.73 68.52"/><polygon class="cls-3" points="34.84 62.06 37.62 64.85 34.84 67.63 34.84 62.06"/><polygon class="cls-3" points="34.84 59.56 38.51 55.88 42.18 59.56 42.18 60.29 38.51 63.96 34.84 60.29 34.84 59.56"/><polygon class="cls-3" points="34.84 52.21 37.62 55 34.84 57.78 34.84 52.21"/><polygon class="cls-3" points="34.84 49.71 38.51 46.04 42.18 49.71 42.18 50.45 38.51 54.11 34.84 50.45 34.84 49.71"/><polygon class="cls-3" points="34.84 42.37 37.62 45.15 34.84 47.93 34.84 42.37"/><polygon class="cls-3" points="34.84 39.86 38.51 36.19 42.18 39.86 42.18 40.6 38.51 44.26 34.84 40.6 34.84 39.86"/><polygon class="cls-3" points="34.84 32.53 37.62 35.31 34.84 38.09 34.84 32.53"/><polygon class="cls-3" points="31.44 31.64 28.66 34.42 25.87 31.64 31.44 31.64"/><polygon class="cls-3" points="32.33 38.09 29.55 35.31 32.33 32.53 32.33 38.09"/><polygon class="cls-3" points="25.87 38.98 28.66 36.19 31.44 38.98 25.87 38.98"/><polygon class="cls-3" points="25 32.53 27.77 35.31 25 38.09 25 32.53"/><rect class="cls-1" x="75.6" y="41.23" width="1.67" height="14.16"/><path class="cls-3" d="M46.5,43.13V57.48h4.84l3.57-3.57V43.13Zm3.29,2H54V51H49.79Z"/><rect class="cls-2" x="10.98" y="29.34" width="9.85" height="5.21"/><rect class="cls-2" x="10.98" y="35.83" width="9.85" height="5"/><path class="cls-3" d="M73,62.12A4.33,4.33,0,1,0,78.58,57V55.37H74.73v3.37h1.48a2.38,2.38,0,1,1-2.16,3.38Z"/><polygon class="cls-1" points="26.21 29.13 35.99 20.92 32.73 29.13 35.43 29.13 38.51 21.39 41.58 29.13 44.28 29.13 40.32 19.16 76 29.13 80.66 29.13 39.74 17.68 38.36 17.3 36.97 18.46 24.26 29.13 26.21 29.13"/><polyline class="cls-4" points="33.15 2.77 2.77 2.77 2.77 33.15"/><polyline class="cls-4" points="88.53 118.91 118.91 118.91 118.91 88.53"/><polygon class="cls-5" points="70.04 130.85 60.84 146.78 51.64 130.85 70.04 130.85"/><rect class="cls-1" x="10.98" y="70.77" width="48.26" height="5.27"/><rect class="cls-2" x="12.73" y="56.83" width="13.28" height="13.21"/><rect class="cls-2" x="12.73" y="43.62" width="13.28" height="13.21"/><line class="cls-3" x1="15.9" y1="43.62" x2="15.9" y2="70.05"/><line class="cls-3" x1="18.39" y1="43.62" x2="18.39" y2="70.05"/><line class="cls-3" x1="20.83" y1="43.62" x2="20.83" y2="70.05"/><line class="cls-3" x1="23.32" y1="43.62" x2="23.32" y2="70.05"/><path class="cls-1" d="M107.6,81.57c-2,.23-3.8,1.53-5.39,2.71-1.35,1-2.75,2-3.83,2s-2.48-1-3.83-2c-1.74-1.29-3.71-2.76-6-2.76s-4.25,1.47-6,2.76c-1.35,1-2.75,2-3.83,2s-2.48-1-3.84-2c-1.74-1.29-3.71-2.76-6-2.76s-4.24,1.47-6,2.76c-1.35,1-2.76,2-3.84,2s-2.48-1-3.83-2c-1.74-1.29-3.71-2.76-6-2.76S45,83,43.28,84.28c-1.35,1-2.75,2-3.83,2s-2.48-1-3.83-2c-1.74-1.29-3.72-2.76-6-2.76s-4.25,1.47-6,2.76c-1.35,1-2.75,2-3.83,2s-2.48-1-3.84-2c-1.58-1.18-3.36-2.49-5.39-2.71v3.66a11.59,11.59,0,0,1,3.24,2c1.74,1.29,3.71,2.76,6,2.76s4.24-1.47,6-2.76c1.36-1,2.76-2.05,3.84-2.05s2.48,1,3.83,2.05c1.74,1.29,3.71,2.76,6,2.76s4.25-1.47,6-2.76c1.35-1,2.75-2.05,3.83-2.05s2.48,1,3.83,2.05c1.75,1.29,3.72,2.76,6,2.76s4.25-1.47,6-2.76c1.35-1,2.75-2.05,3.83-2.05s2.49,1,3.84,2.05c1.74,1.29,3.71,2.76,6,2.76s4.25-1.47,6-2.76c1.35-1,2.75-2.05,3.83-2.05s2.48,1,3.83,2.05c1.74,1.29,3.71,2.76,6,2.76s4.25-1.47,6-2.76a11.76,11.76,0,0,1,3.23-2Z"/><path class="cls-1" d="M107.6,90c-2,.23-3.8,1.53-5.39,2.71-1.35,1-2.75,2-3.83,2s-2.48-1-3.83-2c-1.74-1.29-3.71-2.76-6-2.76s-4.25,1.47-6,2.76c-1.35,1-2.75,2-3.83,2s-2.48-1-3.84-2c-1.74-1.29-3.71-2.76-6-2.76s-4.24,1.47-6,2.76c-1.35,1-2.76,2-3.84,2s-2.48-1-3.83-2c-1.74-1.29-3.71-2.76-6-2.76s-4.25,1.47-6,2.76c-1.35,1-2.75,2-3.83,2s-2.48-1-3.83-2c-1.74-1.29-3.72-2.76-6-2.76s-4.25,1.47-6,2.76c-1.35,1-2.75,2-3.83,2s-2.48-1-3.84-2c-1.58-1.18-3.36-2.49-5.39-2.72v3.66a12.1,12.1,0,0,1,3.24,2c1.74,1.3,3.71,2.77,6,2.77s4.24-1.47,6-2.77c1.36-1,2.76-2,3.84-2s2.48,1,3.83,2c1.74,1.3,3.71,2.77,6,2.77s4.25-1.47,6-2.77c1.35-1,2.75-2,3.83-2s2.48,1,3.83,2c1.75,1.3,3.72,2.77,6,2.77s4.25-1.47,6-2.77c1.35-1,2.75-2,3.83-2s2.49,1,3.84,2c1.74,1.3,3.71,2.77,6,2.77s4.25-1.47,6-2.77c1.35-1,2.75-2,3.83-2s2.48,1,3.83,2c1.74,1.3,3.71,2.77,6,2.77s4.25-1.47,6-2.77a11.7,11.7,0,0,1,3.23-1.94Z"/></svg>