<svg id="Layer_1" data-name="Layer 1" xmlns="http://www.w3.org/2000/svg" viewBox="0 0 121.68 146.78"><defs><style>.cls-1,.cls-3{fill:#2f3082;}.cls-2{fill:none;stroke:#2f3082;stroke-miterlimit:10;stroke-width:5.54px;}.cls-3{fill-rule:evenodd;}.cls-4{fill:#fff;}</style></defs><title>link-17</title><rect class="cls-1" x="16.54" y="100.43" width="88.61" height="4.58"/><polyline class="cls-2" points="33.15 2.77 2.77 2.77 2.77 33.15"/><polyline class="cls-2" points="88.53 118.91 118.91 118.91 118.91 88.53"/><polygon class="cls-3" points="70.04 130.85 60.84 146.78 51.64 130.85 70.04 130.85"/><rect class="cls-1" x="42.91" y="23.14" width="35.87" height="74.16"/><rect class="cls-1" x="84.07" y="58.73" width="13.23" height="38.56"/><rect class="cls-1" x="24.38" y="58.73" width="13.23" height="38.56"/><rect class="cls-4" x="28.46" y="76.32" width="5.07" height="6.18"/><rect class="cls-4" x="49.04" y="65.27" width="5.07" height="6.17"/><rect class="cls-4" x="67.57" y="65.27" width="5.07" height="6.17"/><rect class="cls-4" x="49.04" y="50.28" width="5.07" height="6.17"/><rect class="cls-4" x="67.57" y="50.28" width="5.07" height="6.17"/><rect class="cls-4" x="88.15" y="76.32" width="5.07" height="6.18"/><rect class="cls-4" x="51.58" y="80.29" width="18.53" height="17.01"/><rect class="cls-1" x="55.72" y="83.6" width="10.25" height="13.7"/><polygon class="cls-4" points="67.34 34.08 62.84 34.08 62.84 29.59 58.84 29.59 58.84 34.08 54.35 34.08 54.35 38.08 58.84 38.08 58.84 42.58 62.84 42.58 62.84 38.08 67.34 38.08 67.34 34.08"/></svg>