<svg id="Layer_1" data-name="Layer 1" xmlns="http://www.w3.org/2000/svg" viewBox="0 0 121.68 146.78"><defs><style>.cls-1{fill:none;stroke:#2f3082;stroke-miterlimit:10;stroke-width:5.54px;}.cls-2,.cls-3{fill:#2f3082;}.cls-2{fill-rule:evenodd;}</style></defs><title>link-9</title><polyline class="cls-1" points="33.15 2.77 2.77 2.77 2.77 33.15"/><polyline class="cls-1" points="88.53 118.91 118.91 118.91 118.91 88.53"/><polygon class="cls-2" points="70.04 130.85 60.84 146.78 51.64 130.85 70.04 130.85"/><path class="cls-3" d="M83.34,92.76h0c0,.75.09,1.42.94,1.42h2.31a3.47,3.47,0,0,1,6.78,0h3.81V90.44H83.34Z"/><path class="cls-3" d="M93.17,86.33l3.53-1.42L92.43,74.29l-8.34,3.36a2.54,2.54,0,0,0-1.47,2.12h0l.71,9h0a.94.94,0,0,0,1.4,1l2.15-.86Z"/><path class="cls-3" d="M87.13,95.65a2.86,2.86,0,0,0,5.71,0,3.08,3.08,0,0,0-.1-.75,2.86,2.86,0,0,0-5.51,0A3.08,3.08,0,0,0,87.13,95.65Zm1.5,0a1.28,1.28,0,0,1,.23-.75A1.34,1.34,0,0,1,90,94.3a1.35,1.35,0,1,1-1.35,1.35Z"/><path class="cls-3" d="M100.67,95.65a2.86,2.86,0,0,0,5.71,0,3.08,3.08,0,0,0-.1-.75,2.86,2.86,0,0,0-5.51,0A2.66,2.66,0,0,0,100.67,95.65Zm1.5,0a1.28,1.28,0,0,1,.23-.75,1.34,1.34,0,0,1,1.12-.6,1.35,1.35,0,1,1-1.35,1.35Z"/><path class="cls-3" d="M98.42,82.75V94.19h1.71c0-.06,0-.11,0-.16a3.47,3.47,0,0,1,6.7,0s0,.1,0,.16h3.15V90a1.51,1.51,0,0,0-1.5-1.5h-1L105,84.09a3,3,0,0,0-2.32-1.34Zm.9,2.27a1,1,0,0,1,1-1h2.32a2,2,0,0,1,1.55.9l.72,1.25c.28.49,0,.9-.52.9h-4.07a1,1,0,0,1-1-1Z"/><rect class="cls-3" x="99.72" y="80.6" width="2.5" height="1.16"/><path class="cls-3" d="M29.87,59.59V37.43H19.77V59.59h-9V98.5H49V59.59ZM34,91.74H15.1V87.13H34Zm0-7.43H15.1V79.7H34Zm0-7.5H15.1v-4.6H34ZM34,69H15.1V64.42H34Zm10.7,22.71H37.16V87.13h7.53Zm0-7.43H37.16V79.7h7.53Zm0-7.5H37.16v-4.6h7.53Zm0-7.78H37.16V64.42h7.53Z"/><path class="cls-3" d="M33.47,11.34c-2.5,2.15-6,4.82-7.09,8-1.28,3.54,3,4.07,5.23,5.34,4.07,2.39.17,5.93-1.57,8.37,2.56-2,6.22-3.72,7.55-6.85,1.34-3.38-1.74-4.3-4.35-4.83-1-.17-2.5-.17-3-1.28a3.91,3.91,0,0,1,.3-2.9A33,33,0,0,1,32.13,14,9.22,9.22,0,0,0,33.24,12Z"/><path class="cls-3" d="M24.45,11c-3.13,2.69-7.5,6-8.88,10-1.6,4.44,3.79,5.1,6.55,6.7,5.1,3,.22,7.42-2,10.48,3.2-2.48,7.78-4.66,9.46-8.59,1.67-4.22-2.19-5.39-5.46-6-1.24-.22-3.13-.22-3.79-1.6a4.91,4.91,0,0,1,.37-3.64,42,42,0,0,1,2-4.08,11.55,11.55,0,0,0,1.38-2.4Z"/><path class="cls-3" d="M67.15,73.39V68L56.3,73.39v8.88H49V98.5H78V68ZM63.48,92.74H54V88h9.47Zm10.87,0H66.63V88h7.72Z"/><rect class="cls-3" x="7.41" y="100.42" width="74.15" height="4.51"/><rect class="cls-3" x="7.41" y="100.42" width="107.25" height="4.51"/></svg>