<svg id="Layer_1" data-name="Layer 1" xmlns="http://www.w3.org/2000/svg" viewBox="0 0 121.68 146.78"><defs><style>.cls-1,.cls-3,.cls-4{fill:#2f3082;}.cls-1,.cls-2{stroke:#2f3082;stroke-miterlimit:10;}.cls-1{stroke-width:1.73px;}.cls-2{fill:none;stroke-width:5.54px;}.cls-3{fill-rule:evenodd;}.cls-5{fill:#fff;}</style></defs><title>link-14</title><rect class="cls-1" x="15.56" y="84.18" width="88.61" height="4.58"/><polyline class="cls-2" points="33.15 2.77 2.77 2.77 2.77 33.15"/><polyline class="cls-2" points="88.53 118.91 118.91 118.91 118.91 88.53"/><polygon class="cls-3" points="70.04 130.85 60.84 146.78 51.64 130.85 70.04 130.85"/><rect class="cls-4" x="23.56" y="48.94" width="72.96" height="32.56"/><rect class="cls-4" x="30.83" y="42.83" width="27.32" height="6.1"/><rect class="cls-4" x="77.92" y="36" width="11.92" height="12.94"/><rect class="cls-5" x="29.37" y="54.02" width="15.84" height="4.94"/><rect class="cls-5" x="48.12" y="54.02" width="15.84" height="4.94"/><rect class="cls-5" x="66.73" y="54.02" width="15.84" height="4.94"/><rect class="cls-5" x="33.15" y="65.22" width="11.34" height="16.28"/><polygon class="cls-4" points="75.88 36 92.16 36 98.12 24.67 93.47 18.85 74.65 18.85 69.78 24.81 75.88 36"/><rect class="cls-4" x="85.26" y="12.89" width="8.14" height="1.74"/><rect class="cls-4" x="88.89" y="13.76" width="0.87" height="5.09"/><rect class="cls-5" x="81.99" y="27.43" width="4.21" height="5.96"/><polygon class="cls-5" points="80.75 27.43 80.75 33.39 77.92 33.39 74.65 27.43 80.75 27.43"/><polygon class="cls-5" points="87.51 27.43 87.51 33.39 90.34 33.39 93.61 27.43 87.51 27.43"/><path class="cls-3" d="M41,34.27l3.24-5.9-2.52,1c-1,.41-1.94.85-2.92,1.24a1,1,0,0,1-.73,0c-1.76-1.05-3.51-2.12-5.31-3.21a2.75,2.75,0,0,1,2.8-.34,4.13,4.13,0,0,0,3.6,0C44,25,48.81,23,53.65,21a9.35,9.35,0,0,1,2.73-.56,1.47,1.47,0,0,1,1.22.6,1.42,1.42,0,0,1-.42,1.27,27.57,27.57,0,0,1-2.72,1.77,3,3,0,0,1-.74.29c-3.07.73-4.93,3-6.83,5.28a29.76,29.76,0,0,1-3,3.33,13.44,13.44,0,0,1-2.71,1.52Z"/><path class="cls-3" d="M39.13,23c1.36-.84,2.48-.93,7.5-.53-1.18.52-2.36,1-3.55,1.55-.16.06-.39-.08-.59-.13Z"/></svg>