<svg id="Layer_1" data-name="Layer 1" xmlns="http://www.w3.org/2000/svg" viewBox="0 0 121.68 146.78"><defs><style>.cls-1,.cls-6{fill:none;}.cls-1,.cls-4,.cls-5,.cls-6{stroke:#2f3082;}.cls-1{stroke-miterlimit:10;stroke-width:5.54px;}.cls-2,.cls-3,.cls-4{fill:#2f3082;}.cls-2{fill-rule:evenodd;}.cls-4,.cls-5,.cls-6{stroke-linecap:round;stroke-linejoin:round;}.cls-5{fill:#fff;}</style></defs><title>link-12</title><polyline class="cls-1" points="33.15 2.77 2.77 2.77 2.77 33.15"/><polyline class="cls-1" points="88.53 118.91 118.91 118.91 118.91 88.53"/><polygon class="cls-2" points="70.04 130.85 60.84 146.78 51.64 130.85 70.04 130.85"/><path class="cls-3" d="M113.82,29.47a6.51,6.51,0,0,0-3,1.5,4.55,4.55,0,0,1-2.12,1.13A4.57,4.57,0,0,1,106.62,31a5.89,5.89,0,0,0-3.3-1.52A5.88,5.88,0,0,0,100,31,4.57,4.57,0,0,1,97.9,32.1,4.55,4.55,0,0,1,95.78,31a5.89,5.89,0,0,0-3.3-1.52A5.83,5.83,0,0,0,89.18,31a4.6,4.6,0,0,1-2.12,1.13A4.55,4.55,0,0,1,84.94,31a5.86,5.86,0,0,0-3.3-1.52A5.86,5.86,0,0,0,78.34,31a4.55,4.55,0,0,1-2.12,1.13A4.48,4.48,0,0,1,74.11,31a5.88,5.88,0,0,0-3.31-1.52A5.89,5.89,0,0,0,67.5,31a4.55,4.55,0,0,1-2.12,1.13A4.53,4.53,0,0,1,63.27,31a6.59,6.59,0,0,0-3-1.5v2a6.5,6.5,0,0,1,1.79,1.08,5.89,5.89,0,0,0,3.3,1.52,5.88,5.88,0,0,0,3.31-1.52,4.53,4.53,0,0,1,2.11-1.13,4.55,4.55,0,0,1,2.12,1.13,5.89,5.89,0,0,0,3.3,1.52,5.91,5.91,0,0,0,3.31-1.52,4.48,4.48,0,0,1,2.11-1.13,4.48,4.48,0,0,1,2.11,1.13,5.91,5.91,0,0,0,3.31,1.52,5.89,5.89,0,0,0,3.3-1.52,4.55,4.55,0,0,1,2.12-1.13,4.53,4.53,0,0,1,2.11,1.13,5.88,5.88,0,0,0,3.31,1.52,5.89,5.89,0,0,0,3.3-1.52,4.55,4.55,0,0,1,2.12-1.13,4.57,4.57,0,0,1,2.11,1.13,5.89,5.89,0,0,0,3.3,1.52A5.88,5.88,0,0,0,112,32.57a6.27,6.27,0,0,1,1.78-1.07Z"/><path class="cls-3" d="M113.82,34.12a6.51,6.51,0,0,0-3,1.5,4.65,4.65,0,0,1-2.12,1.13,4.67,4.67,0,0,1-2.11-1.13,5.83,5.83,0,0,0-3.3-1.53A5.83,5.83,0,0,0,100,35.62a4.67,4.67,0,0,1-2.11,1.13,4.65,4.65,0,0,1-2.12-1.13,5.83,5.83,0,0,0-3.3-1.53,5.78,5.78,0,0,0-3.3,1.53,4.7,4.7,0,0,1-2.12,1.13,4.65,4.65,0,0,1-2.12-1.13,5.8,5.8,0,0,0-3.3-1.53,5.8,5.8,0,0,0-3.3,1.53,4.65,4.65,0,0,1-2.12,1.13,4.58,4.58,0,0,1-2.11-1.13,5.83,5.83,0,0,0-3.31-1.53,5.83,5.83,0,0,0-3.3,1.53,4.65,4.65,0,0,1-2.12,1.13,4.62,4.62,0,0,1-2.11-1.13,6.49,6.49,0,0,0-3-1.5v2a6.7,6.7,0,0,1,1.79,1.07,5.83,5.83,0,0,0,3.3,1.53,5.83,5.83,0,0,0,3.31-1.53,4.62,4.62,0,0,1,2.11-1.13,4.65,4.65,0,0,1,2.12,1.13,5.83,5.83,0,0,0,3.3,1.53,5.86,5.86,0,0,0,3.31-1.53,4.58,4.58,0,0,1,2.11-1.13,4.58,4.58,0,0,1,2.11,1.13,5.86,5.86,0,0,0,3.31,1.53,5.83,5.83,0,0,0,3.3-1.53,4.65,4.65,0,0,1,2.12-1.13,4.62,4.62,0,0,1,2.11,1.13,5.83,5.83,0,0,0,3.31,1.53,5.83,5.83,0,0,0,3.3-1.53,4.65,4.65,0,0,1,2.12-1.13,4.67,4.67,0,0,1,2.11,1.13,5.83,5.83,0,0,0,3.3,1.53A5.83,5.83,0,0,0,112,37.21a6.51,6.51,0,0,1,1.78-1.07Z"/><path class="cls-3" d="M113.82,40.47a6.51,6.51,0,0,0-3,1.5,4.55,4.55,0,0,1-2.12,1.13A4.57,4.57,0,0,1,106.62,42a5.89,5.89,0,0,0-3.3-1.52A5.88,5.88,0,0,0,100,42,4.57,4.57,0,0,1,97.9,43.1,4.55,4.55,0,0,1,95.78,42a5.89,5.89,0,0,0-3.3-1.52A5.83,5.83,0,0,0,89.18,42a4.6,4.6,0,0,1-2.12,1.13A4.55,4.55,0,0,1,84.94,42a5.86,5.86,0,0,0-3.3-1.52A5.86,5.86,0,0,0,78.34,42a4.55,4.55,0,0,1-2.12,1.13A4.48,4.48,0,0,1,74.11,42a5.88,5.88,0,0,0-3.31-1.52A5.89,5.89,0,0,0,67.5,42a4.55,4.55,0,0,1-2.12,1.13A4.53,4.53,0,0,1,63.27,42a6.59,6.59,0,0,0-3-1.5v2a6.5,6.5,0,0,1,1.79,1.08,5.89,5.89,0,0,0,3.3,1.52,5.88,5.88,0,0,0,3.31-1.52,4.53,4.53,0,0,1,2.11-1.13,4.55,4.55,0,0,1,2.12,1.13,5.89,5.89,0,0,0,3.3,1.52,5.91,5.91,0,0,0,3.31-1.52,4.48,4.48,0,0,1,2.11-1.13,4.48,4.48,0,0,1,2.11,1.13,5.91,5.91,0,0,0,3.31,1.52,5.89,5.89,0,0,0,3.3-1.52,4.55,4.55,0,0,1,2.12-1.13,4.53,4.53,0,0,1,2.11,1.13,5.88,5.88,0,0,0,3.31,1.52,5.89,5.89,0,0,0,3.3-1.52,4.55,4.55,0,0,1,2.12-1.13,4.57,4.57,0,0,1,2.11,1.13,5.89,5.89,0,0,0,3.3,1.52A5.88,5.88,0,0,0,112,43.57a6.57,6.57,0,0,1,1.78-1.08Z"/><path class="cls-3" d="M113.82,45.12a6.41,6.41,0,0,0-3,1.5,4.65,4.65,0,0,1-2.12,1.13,4.67,4.67,0,0,1-2.11-1.13,5.83,5.83,0,0,0-3.3-1.53A5.83,5.83,0,0,0,100,46.62a4.67,4.67,0,0,1-2.11,1.13,4.65,4.65,0,0,1-2.12-1.13,5.83,5.83,0,0,0-3.3-1.53,5.78,5.78,0,0,0-3.3,1.53,4.7,4.7,0,0,1-2.12,1.13,4.65,4.65,0,0,1-2.12-1.13,5.8,5.8,0,0,0-3.3-1.53,5.8,5.8,0,0,0-3.3,1.53,4.65,4.65,0,0,1-2.12,1.13,4.58,4.58,0,0,1-2.11-1.13,5.83,5.83,0,0,0-3.31-1.53,5.83,5.83,0,0,0-3.3,1.53,4.65,4.65,0,0,1-2.12,1.13,4.62,4.62,0,0,1-2.11-1.13,6.49,6.49,0,0,0-3-1.5v2a6.44,6.44,0,0,1,1.79,1.07,5.83,5.83,0,0,0,3.3,1.53,5.83,5.83,0,0,0,3.31-1.53,4.62,4.62,0,0,1,2.11-1.13,4.65,4.65,0,0,1,2.12,1.13,5.83,5.83,0,0,0,3.3,1.53,5.86,5.86,0,0,0,3.31-1.53,4.58,4.58,0,0,1,2.11-1.13,4.58,4.58,0,0,1,2.11,1.13,5.86,5.86,0,0,0,3.31,1.53,5.83,5.83,0,0,0,3.3-1.53,4.65,4.65,0,0,1,2.12-1.13,4.62,4.62,0,0,1,2.11,1.13,5.83,5.83,0,0,0,3.31,1.53,5.83,5.83,0,0,0,3.3-1.53,4.65,4.65,0,0,1,2.12-1.13,4.67,4.67,0,0,1,2.11,1.13,5.83,5.83,0,0,0,3.3,1.53A5.83,5.83,0,0,0,112,48.21a6.51,6.51,0,0,1,1.78-1.07Z"/><path class="cls-3" d="M113.82,51.16a6.51,6.51,0,0,0-3,1.5,4.65,4.65,0,0,1-2.12,1.13,4.67,4.67,0,0,1-2.11-1.13,5.83,5.83,0,0,0-3.3-1.53A5.83,5.83,0,0,0,100,52.66a4.67,4.67,0,0,1-2.11,1.13,4.65,4.65,0,0,1-2.12-1.13,5.83,5.83,0,0,0-3.3-1.53,5.78,5.78,0,0,0-3.3,1.53,4.7,4.7,0,0,1-2.12,1.13,4.65,4.65,0,0,1-2.12-1.13,5.8,5.8,0,0,0-3.3-1.53,5.8,5.8,0,0,0-3.3,1.53,4.65,4.65,0,0,1-2.12,1.13,4.58,4.58,0,0,1-2.11-1.13,5.83,5.83,0,0,0-3.31-1.53,5.83,5.83,0,0,0-3.3,1.53,4.65,4.65,0,0,1-2.12,1.13,4.62,4.62,0,0,1-2.11-1.13,6.49,6.49,0,0,0-3-1.5v2a6.7,6.7,0,0,1,1.79,1.07,5.83,5.83,0,0,0,3.3,1.53,5.83,5.83,0,0,0,3.31-1.53,4.62,4.62,0,0,1,2.11-1.13,4.65,4.65,0,0,1,2.12,1.13,5.83,5.83,0,0,0,3.3,1.53,5.86,5.86,0,0,0,3.31-1.53,4.58,4.58,0,0,1,2.11-1.13,4.58,4.58,0,0,1,2.11,1.13,5.86,5.86,0,0,0,3.31,1.53,5.83,5.83,0,0,0,3.3-1.53,4.65,4.65,0,0,1,2.12-1.13,4.62,4.62,0,0,1,2.11,1.13,5.83,5.83,0,0,0,3.31,1.53,5.83,5.83,0,0,0,3.3-1.53,4.65,4.65,0,0,1,2.12-1.13,4.67,4.67,0,0,1,2.11,1.13,5.83,5.83,0,0,0,3.3,1.53A5.83,5.83,0,0,0,112,54.25a6.51,6.51,0,0,1,1.78-1.07Z"/><path class="cls-3" d="M113.82,55.8a6.51,6.51,0,0,0-3,1.5,4.55,4.55,0,0,1-2.12,1.13,4.57,4.57,0,0,1-2.11-1.13,5.89,5.89,0,0,0-3.3-1.52A5.88,5.88,0,0,0,100,57.3a4.57,4.57,0,0,1-2.11,1.13,4.55,4.55,0,0,1-2.12-1.13,5.89,5.89,0,0,0-3.3-1.52,5.83,5.83,0,0,0-3.3,1.52,4.6,4.6,0,0,1-2.12,1.13,4.55,4.55,0,0,1-2.12-1.13,5.86,5.86,0,0,0-3.3-1.52,5.86,5.86,0,0,0-3.3,1.52,4.55,4.55,0,0,1-2.12,1.13,4.48,4.48,0,0,1-2.11-1.13,5.88,5.88,0,0,0-3.31-1.52,5.89,5.89,0,0,0-3.3,1.52,4.55,4.55,0,0,1-2.12,1.13,4.53,4.53,0,0,1-2.11-1.13,6.59,6.59,0,0,0-3-1.5v2a6.5,6.5,0,0,1,1.79,1.08,5.89,5.89,0,0,0,3.3,1.52,5.88,5.88,0,0,0,3.31-1.52,4.53,4.53,0,0,1,2.11-1.13,4.55,4.55,0,0,1,2.12,1.13,5.89,5.89,0,0,0,3.3,1.52,5.91,5.91,0,0,0,3.31-1.52,4.48,4.48,0,0,1,2.11-1.13,4.48,4.48,0,0,1,2.11,1.13,5.91,5.91,0,0,0,3.31,1.52,5.89,5.89,0,0,0,3.3-1.52,4.55,4.55,0,0,1,2.12-1.13,4.53,4.53,0,0,1,2.11,1.13,5.88,5.88,0,0,0,3.31,1.52,5.89,5.89,0,0,0,3.3-1.52,4.55,4.55,0,0,1,2.12-1.13,4.57,4.57,0,0,1,2.11,1.13,5.89,5.89,0,0,0,3.3,1.52A5.88,5.88,0,0,0,112,58.9a6.27,6.27,0,0,1,1.78-1.07Z"/><path class="cls-3" d="M113.82,61.51a6.51,6.51,0,0,0-3,1.5,4.55,4.55,0,0,1-2.12,1.13A4.57,4.57,0,0,1,106.62,63a5.89,5.89,0,0,0-3.3-1.52A5.88,5.88,0,0,0,100,63a4.57,4.57,0,0,1-2.11,1.13A4.55,4.55,0,0,1,95.78,63a5.89,5.89,0,0,0-3.3-1.52A5.83,5.83,0,0,0,89.18,63a4.6,4.6,0,0,1-2.12,1.13A4.55,4.55,0,0,1,84.94,63a5.86,5.86,0,0,0-3.3-1.52A5.86,5.86,0,0,0,78.34,63a4.55,4.55,0,0,1-2.12,1.13A4.48,4.48,0,0,1,74.11,63a5.88,5.88,0,0,0-3.31-1.52A5.89,5.89,0,0,0,67.5,63a4.55,4.55,0,0,1-2.12,1.13A4.53,4.53,0,0,1,63.27,63a6.59,6.59,0,0,0-3-1.5v2a6.5,6.5,0,0,1,1.79,1.08,5.89,5.89,0,0,0,3.3,1.52,5.88,5.88,0,0,0,3.31-1.52,4.53,4.53,0,0,1,2.11-1.13,4.55,4.55,0,0,1,2.12,1.13,5.89,5.89,0,0,0,3.3,1.52,5.91,5.91,0,0,0,3.31-1.52,4.48,4.48,0,0,1,2.11-1.13,4.48,4.48,0,0,1,2.11,1.13,5.91,5.91,0,0,0,3.31,1.52,5.89,5.89,0,0,0,3.3-1.52,4.55,4.55,0,0,1,2.12-1.13,4.53,4.53,0,0,1,2.11,1.13,5.88,5.88,0,0,0,3.31,1.52,5.89,5.89,0,0,0,3.3-1.52,4.55,4.55,0,0,1,2.12-1.13,4.57,4.57,0,0,1,2.11,1.13,5.89,5.89,0,0,0,3.3,1.52A5.88,5.88,0,0,0,112,64.61a6.57,6.57,0,0,1,1.78-1.08Z"/><path class="cls-3" d="M113.82,66.16a6.49,6.49,0,0,0-3,1.49,4.59,4.59,0,0,1-2.12,1.14,4.61,4.61,0,0,1-2.11-1.14,5.89,5.89,0,0,0-3.3-1.52A5.88,5.88,0,0,0,100,67.65a4.61,4.61,0,0,1-2.11,1.14,4.59,4.59,0,0,1-2.12-1.14,5.89,5.89,0,0,0-3.3-1.52,5.83,5.83,0,0,0-3.3,1.52,4.63,4.63,0,0,1-2.12,1.14,4.59,4.59,0,0,1-2.12-1.14,5.86,5.86,0,0,0-3.3-1.52,5.86,5.86,0,0,0-3.3,1.52,4.59,4.59,0,0,1-2.12,1.14,4.51,4.51,0,0,1-2.11-1.14,5.88,5.88,0,0,0-3.31-1.52,5.89,5.89,0,0,0-3.3,1.52,4.59,4.59,0,0,1-2.12,1.14,4.56,4.56,0,0,1-2.11-1.14,6.47,6.47,0,0,0-3-1.49v2a6.44,6.44,0,0,1,1.79,1.07,5.83,5.83,0,0,0,3.3,1.53,5.83,5.83,0,0,0,3.31-1.53,4.62,4.62,0,0,1,2.11-1.13,4.65,4.65,0,0,1,2.12,1.13,5.83,5.83,0,0,0,3.3,1.53,5.86,5.86,0,0,0,3.31-1.53,4.58,4.58,0,0,1,2.11-1.13,4.58,4.58,0,0,1,2.11,1.13,5.86,5.86,0,0,0,3.31,1.53,5.83,5.83,0,0,0,3.3-1.53,4.65,4.65,0,0,1,2.12-1.13,4.62,4.62,0,0,1,2.11,1.13,5.83,5.83,0,0,0,3.31,1.53,5.83,5.83,0,0,0,3.3-1.53,4.65,4.65,0,0,1,2.12-1.13,4.67,4.67,0,0,1,2.11,1.13,5.83,5.83,0,0,0,3.3,1.53A5.83,5.83,0,0,0,112,69.25a6.27,6.27,0,0,1,1.78-1.07Z"/><path class="cls-3" d="M113.82,72.2a6.51,6.51,0,0,0-3,1.5,4.65,4.65,0,0,1-2.12,1.13,4.67,4.67,0,0,1-2.11-1.13,5.83,5.83,0,0,0-3.3-1.53A5.83,5.83,0,0,0,100,73.7a4.67,4.67,0,0,1-2.11,1.13,4.65,4.65,0,0,1-2.12-1.13,5.83,5.83,0,0,0-3.3-1.53,5.78,5.78,0,0,0-3.3,1.53,4.7,4.7,0,0,1-2.12,1.13,4.65,4.65,0,0,1-2.12-1.13,5.8,5.8,0,0,0-3.3-1.53,5.8,5.8,0,0,0-3.3,1.53,4.65,4.65,0,0,1-2.12,1.13,4.58,4.58,0,0,1-2.11-1.13,5.83,5.83,0,0,0-3.31-1.53,5.83,5.83,0,0,0-3.3,1.53,4.65,4.65,0,0,1-2.12,1.13,4.62,4.62,0,0,1-2.11-1.13,6.49,6.49,0,0,0-3-1.5v2a6.44,6.44,0,0,1,1.79,1.07,5.83,5.83,0,0,0,3.3,1.53,5.83,5.83,0,0,0,3.31-1.53,4.62,4.62,0,0,1,2.11-1.13,4.65,4.65,0,0,1,2.12,1.13,5.83,5.83,0,0,0,3.3,1.53,5.86,5.86,0,0,0,3.31-1.53,4.58,4.58,0,0,1,2.11-1.13,4.58,4.58,0,0,1,2.11,1.13,5.86,5.86,0,0,0,3.31,1.53,5.83,5.83,0,0,0,3.3-1.53,4.65,4.65,0,0,1,2.12-1.13,4.62,4.62,0,0,1,2.11,1.13,5.83,5.83,0,0,0,3.31,1.53,5.83,5.83,0,0,0,3.3-1.53,4.65,4.65,0,0,1,2.12-1.13,4.67,4.67,0,0,1,2.11,1.13,5.83,5.83,0,0,0,3.3,1.53A5.83,5.83,0,0,0,112,75.29a6.51,6.51,0,0,1,1.78-1.07Z"/><path class="cls-3" d="M113.82,76.84a6.51,6.51,0,0,0-3,1.5,4.55,4.55,0,0,1-2.12,1.13,4.57,4.57,0,0,1-2.11-1.13,5.89,5.89,0,0,0-3.3-1.52A5.88,5.88,0,0,0,100,78.34a4.57,4.57,0,0,1-2.11,1.13,4.55,4.55,0,0,1-2.12-1.13,5.89,5.89,0,0,0-3.3-1.52,5.83,5.83,0,0,0-3.3,1.52,4.6,4.6,0,0,1-2.12,1.13,4.55,4.55,0,0,1-2.12-1.13,5.86,5.86,0,0,0-3.3-1.52,5.86,5.86,0,0,0-3.3,1.52,4.55,4.55,0,0,1-2.12,1.13,4.48,4.48,0,0,1-2.11-1.13,5.88,5.88,0,0,0-3.31-1.52,5.89,5.89,0,0,0-3.3,1.52,4.55,4.55,0,0,1-2.12,1.13,4.53,4.53,0,0,1-2.11-1.13,6.59,6.59,0,0,0-3-1.5v2a6.5,6.5,0,0,1,1.79,1.08,5.89,5.89,0,0,0,3.3,1.52,5.88,5.88,0,0,0,3.31-1.52,4.53,4.53,0,0,1,2.11-1.13,4.55,4.55,0,0,1,2.12,1.13,5.89,5.89,0,0,0,3.3,1.52,5.91,5.91,0,0,0,3.31-1.52,4.48,4.48,0,0,1,2.11-1.13,4.48,4.48,0,0,1,2.11,1.13,5.91,5.91,0,0,0,3.31,1.52,5.89,5.89,0,0,0,3.3-1.52,4.55,4.55,0,0,1,2.12-1.13,4.53,4.53,0,0,1,2.11,1.13,5.88,5.88,0,0,0,3.31,1.52,5.89,5.89,0,0,0,3.3-1.52,4.55,4.55,0,0,1,2.12-1.13,4.57,4.57,0,0,1,2.11,1.13,5.89,5.89,0,0,0,3.3,1.52A5.88,5.88,0,0,0,112,79.94a6.57,6.57,0,0,1,1.78-1.08Z"/><path class="cls-3" d="M60.29,72.2a6.6,6.6,0,0,0-3,1.5,4.58,4.58,0,0,1-2.11,1.13,4.65,4.65,0,0,1-2.12-1.13,5.8,5.8,0,0,0-3.3-1.53,5.8,5.8,0,0,0-3.3,1.53,4.65,4.65,0,0,1-2.12,1.13,4.58,4.58,0,0,1-2.11-1.13A5.83,5.83,0,0,0,39,72.17a5.83,5.83,0,0,0-3.3,1.53,4.65,4.65,0,0,1-2.12,1.13,4.67,4.67,0,0,1-2.11-1.13,5.83,5.83,0,0,0-3.31-1.53,5.83,5.83,0,0,0-3.3,1.53,4.67,4.67,0,0,1-2.11,1.13,4.65,4.65,0,0,1-2.12-1.13,5.83,5.83,0,0,0-3.3-1.53A5.83,5.83,0,0,0,14,73.7a4.62,4.62,0,0,1-2.11,1.13A4.65,4.65,0,0,1,9.74,73.7a6.46,6.46,0,0,0-3-1.5v2a6.4,6.4,0,0,1,1.78,1.07,5.83,5.83,0,0,0,3.31,1.53,5.83,5.83,0,0,0,3.3-1.53,4.65,4.65,0,0,1,2.12-1.13,4.62,4.62,0,0,1,2.11,1.13,5.83,5.83,0,0,0,3.31,1.53A5.83,5.83,0,0,0,26,75.29a4.67,4.67,0,0,1,2.11-1.13,4.65,4.65,0,0,1,2.12,1.13,5.83,5.83,0,0,0,3.3,1.53,5.83,5.83,0,0,0,3.31-1.53A4.62,4.62,0,0,1,39,74.16a4.65,4.65,0,0,1,2.12,1.13,5.83,5.83,0,0,0,3.3,1.53,5.83,5.83,0,0,0,3.31-1.53,4.58,4.58,0,0,1,2.11-1.13,4.65,4.65,0,0,1,2.12,1.13,5.8,5.8,0,0,0,3.3,1.53,5.8,5.8,0,0,0,3.3-1.53,6.81,6.81,0,0,1,1.78-1.07Z"/><path class="cls-3" d="M60.29,76.84a6.6,6.6,0,0,0-3,1.5,4.48,4.48,0,0,1-2.11,1.13,4.55,4.55,0,0,1-2.12-1.13,5.86,5.86,0,0,0-3.3-1.52,5.86,5.86,0,0,0-3.3,1.52,4.55,4.55,0,0,1-2.12,1.13,4.48,4.48,0,0,1-2.11-1.13A5.88,5.88,0,0,0,39,76.82a5.89,5.89,0,0,0-3.3,1.52,4.55,4.55,0,0,1-2.12,1.13,4.57,4.57,0,0,1-2.11-1.13,5.88,5.88,0,0,0-3.31-1.52,5.89,5.89,0,0,0-3.3,1.52,4.57,4.57,0,0,1-2.11,1.13,4.55,4.55,0,0,1-2.12-1.13,5.89,5.89,0,0,0-3.3-1.52A5.88,5.88,0,0,0,14,78.34a4.53,4.53,0,0,1-2.11,1.13,4.55,4.55,0,0,1-2.12-1.13,6.55,6.55,0,0,0-3-1.5v2a6.46,6.46,0,0,1,1.78,1.08,5.88,5.88,0,0,0,3.31,1.52,5.89,5.89,0,0,0,3.3-1.52,4.55,4.55,0,0,1,2.12-1.13,4.53,4.53,0,0,1,2.11,1.13,5.88,5.88,0,0,0,3.31,1.52A5.89,5.89,0,0,0,26,79.94a4.57,4.57,0,0,1,2.11-1.13,4.55,4.55,0,0,1,2.12,1.13,5.89,5.89,0,0,0,3.3,1.52,5.88,5.88,0,0,0,3.31-1.52A4.53,4.53,0,0,1,39,78.81a4.55,4.55,0,0,1,2.12,1.13,5.89,5.89,0,0,0,3.3,1.52,5.88,5.88,0,0,0,3.31-1.52,4.48,4.48,0,0,1,2.11-1.13,4.55,4.55,0,0,1,2.12,1.13,5.86,5.86,0,0,0,3.3,1.52,5.86,5.86,0,0,0,3.3-1.52,6.88,6.88,0,0,1,1.78-1.08Z"/><path class="cls-3" d="M113.82,81.48a6.51,6.51,0,0,0-3,1.5,4.65,4.65,0,0,1-2.12,1.13A4.67,4.67,0,0,1,106.62,83a5.83,5.83,0,0,0-3.3-1.53A5.83,5.83,0,0,0,100,83a4.67,4.67,0,0,1-2.11,1.13A4.65,4.65,0,0,1,95.78,83a5.83,5.83,0,0,0-3.3-1.53A5.78,5.78,0,0,0,89.18,83a4.7,4.7,0,0,1-2.12,1.13A4.65,4.65,0,0,1,84.94,83a5.8,5.8,0,0,0-3.3-1.53A5.8,5.8,0,0,0,78.34,83a4.65,4.65,0,0,1-2.12,1.13A4.58,4.58,0,0,1,74.11,83a5.83,5.83,0,0,0-3.31-1.53A5.83,5.83,0,0,0,67.5,83a4.65,4.65,0,0,1-2.12,1.13A4.62,4.62,0,0,1,63.27,83a6.49,6.49,0,0,0-3-1.5v2a6.7,6.7,0,0,1,1.79,1.07,5.83,5.83,0,0,0,3.3,1.53,5.83,5.83,0,0,0,3.31-1.53,4.62,4.62,0,0,1,2.11-1.13,4.65,4.65,0,0,1,2.12,1.13,5.83,5.83,0,0,0,3.3,1.53,5.86,5.86,0,0,0,3.31-1.53,4.58,4.58,0,0,1,2.11-1.13,4.58,4.58,0,0,1,2.11,1.13,5.86,5.86,0,0,0,3.31,1.53,5.83,5.83,0,0,0,3.3-1.53,4.65,4.65,0,0,1,2.12-1.13,4.62,4.62,0,0,1,2.11,1.13A5.83,5.83,0,0,0,97.9,86.1a5.83,5.83,0,0,0,3.3-1.53,4.65,4.65,0,0,1,2.12-1.13,4.67,4.67,0,0,1,2.11,1.13,5.83,5.83,0,0,0,3.3,1.53A5.83,5.83,0,0,0,112,84.57a6.51,6.51,0,0,1,1.78-1.07Z"/><path class="cls-3" d="M113.82,86.12a6.51,6.51,0,0,0-3,1.5,4.55,4.55,0,0,1-2.12,1.13,4.57,4.57,0,0,1-2.11-1.13,5.89,5.89,0,0,0-3.3-1.52A5.88,5.88,0,0,0,100,87.62a4.57,4.57,0,0,1-2.11,1.13,4.55,4.55,0,0,1-2.12-1.13,5.89,5.89,0,0,0-3.3-1.52,5.83,5.83,0,0,0-3.3,1.52,4.6,4.6,0,0,1-2.12,1.13,4.55,4.55,0,0,1-2.12-1.13,5.86,5.86,0,0,0-3.3-1.52,5.86,5.86,0,0,0-3.3,1.52,4.55,4.55,0,0,1-2.12,1.13,4.48,4.48,0,0,1-2.11-1.13A5.88,5.88,0,0,0,70.8,86.1a5.89,5.89,0,0,0-3.3,1.52,4.55,4.55,0,0,1-2.12,1.13,4.53,4.53,0,0,1-2.11-1.13,6.59,6.59,0,0,0-3-1.5v2a6.5,6.5,0,0,1,1.79,1.08,5.89,5.89,0,0,0,3.3,1.52,5.88,5.88,0,0,0,3.31-1.52,4.53,4.53,0,0,1,2.11-1.13,4.55,4.55,0,0,1,2.12,1.13,5.89,5.89,0,0,0,3.3,1.52,5.91,5.91,0,0,0,3.31-1.52,4.48,4.48,0,0,1,2.11-1.13,4.48,4.48,0,0,1,2.11,1.13,5.91,5.91,0,0,0,3.31,1.52,5.89,5.89,0,0,0,3.3-1.52,4.55,4.55,0,0,1,2.12-1.13,4.53,4.53,0,0,1,2.11,1.13,5.88,5.88,0,0,0,3.31,1.52,5.89,5.89,0,0,0,3.3-1.52,4.55,4.55,0,0,1,2.12-1.13,4.57,4.57,0,0,1,2.11,1.13,5.89,5.89,0,0,0,3.3,1.52A5.88,5.88,0,0,0,112,89.22a6.27,6.27,0,0,1,1.78-1.07Z"/><path class="cls-3" d="M113.82,92.17a6.39,6.39,0,0,0-3,1.49,4.55,4.55,0,0,1-2.12,1.13,4.57,4.57,0,0,1-2.11-1.13,5.89,5.89,0,0,0-3.3-1.52A5.88,5.88,0,0,0,100,93.66a4.57,4.57,0,0,1-2.11,1.13,4.55,4.55,0,0,1-2.12-1.13,5.89,5.89,0,0,0-3.3-1.52,5.83,5.83,0,0,0-3.3,1.52,4.6,4.6,0,0,1-2.12,1.13,4.55,4.55,0,0,1-2.12-1.13,5.86,5.86,0,0,0-3.3-1.52,5.86,5.86,0,0,0-3.3,1.52,4.55,4.55,0,0,1-2.12,1.13,4.48,4.48,0,0,1-2.11-1.13,5.88,5.88,0,0,0-3.31-1.52,5.89,5.89,0,0,0-3.3,1.52,4.55,4.55,0,0,1-2.12,1.13,4.53,4.53,0,0,1-2.11-1.13,6.47,6.47,0,0,0-3-1.49v2a6.44,6.44,0,0,1,1.79,1.07,5.83,5.83,0,0,0,3.3,1.53,5.83,5.83,0,0,0,3.31-1.53,4.62,4.62,0,0,1,2.11-1.13,4.65,4.65,0,0,1,2.12,1.13,5.83,5.83,0,0,0,3.3,1.53,5.86,5.86,0,0,0,3.31-1.53,4.58,4.58,0,0,1,2.11-1.13,4.58,4.58,0,0,1,2.11,1.13,5.86,5.86,0,0,0,3.31,1.53,5.83,5.83,0,0,0,3.3-1.53,4.65,4.65,0,0,1,2.12-1.13,4.62,4.62,0,0,1,2.11,1.13,5.83,5.83,0,0,0,3.31,1.53,5.83,5.83,0,0,0,3.3-1.53,4.65,4.65,0,0,1,2.12-1.13,4.67,4.67,0,0,1,2.11,1.13,5.83,5.83,0,0,0,3.3,1.53A5.83,5.83,0,0,0,112,95.26a6.27,6.27,0,0,1,1.78-1.07Z"/><path class="cls-3" d="M113.82,96.81a6.51,6.51,0,0,0-3,1.5,4.65,4.65,0,0,1-2.12,1.13,4.67,4.67,0,0,1-2.11-1.13,5.82,5.82,0,0,0-3.3-1.52A5.82,5.82,0,0,0,100,98.31a4.67,4.67,0,0,1-2.11,1.13,4.65,4.65,0,0,1-2.12-1.13,5.82,5.82,0,0,0-3.3-1.52,5.76,5.76,0,0,0-3.3,1.52,4.7,4.7,0,0,1-2.12,1.13,4.65,4.65,0,0,1-2.12-1.13,5.79,5.79,0,0,0-3.3-1.52,5.79,5.79,0,0,0-3.3,1.52,4.65,4.65,0,0,1-2.12,1.13,4.58,4.58,0,0,1-2.11-1.13,5.82,5.82,0,0,0-3.31-1.52,5.82,5.82,0,0,0-3.3,1.52,4.65,4.65,0,0,1-2.12,1.13,4.62,4.62,0,0,1-2.11-1.13,6.49,6.49,0,0,0-3-1.5v2a6.5,6.5,0,0,1,1.79,1.08,5.89,5.89,0,0,0,3.3,1.52,5.88,5.88,0,0,0,3.31-1.52,4.53,4.53,0,0,1,2.11-1.13,4.55,4.55,0,0,1,2.12,1.13,5.89,5.89,0,0,0,3.3,1.52,5.91,5.91,0,0,0,3.31-1.52,4.48,4.48,0,0,1,2.11-1.13,4.48,4.48,0,0,1,2.11,1.13,5.91,5.91,0,0,0,3.31,1.52,5.89,5.89,0,0,0,3.3-1.52,4.55,4.55,0,0,1,2.12-1.13,4.53,4.53,0,0,1,2.11,1.13,5.88,5.88,0,0,0,3.31,1.52,5.89,5.89,0,0,0,3.3-1.52,4.55,4.55,0,0,1,2.12-1.13,4.57,4.57,0,0,1,2.11,1.13,5.89,5.89,0,0,0,3.3,1.52A5.88,5.88,0,0,0,112,99.91a6.32,6.32,0,0,1,1.78-1.08Z"/><path class="cls-3" d="M60.29,81.48a6.6,6.6,0,0,0-3,1.5,4.58,4.58,0,0,1-2.11,1.13A4.65,4.65,0,0,1,53.09,83a5.8,5.8,0,0,0-3.3-1.53A5.8,5.8,0,0,0,46.49,83a4.65,4.65,0,0,1-2.12,1.13A4.58,4.58,0,0,1,42.26,83,5.83,5.83,0,0,0,39,81.45,5.83,5.83,0,0,0,35.65,83a4.65,4.65,0,0,1-2.12,1.13A4.67,4.67,0,0,1,31.42,83a5.83,5.83,0,0,0-3.31-1.53A5.83,5.83,0,0,0,24.81,83a4.67,4.67,0,0,1-2.11,1.13A4.65,4.65,0,0,1,20.58,83a5.83,5.83,0,0,0-3.3-1.53A5.83,5.83,0,0,0,14,83a4.62,4.62,0,0,1-2.11,1.13A4.65,4.65,0,0,1,9.74,83a6.46,6.46,0,0,0-3-1.5v2a6.66,6.66,0,0,1,1.78,1.07,5.83,5.83,0,0,0,3.31,1.53,5.83,5.83,0,0,0,3.3-1.53,4.65,4.65,0,0,1,2.12-1.13,4.62,4.62,0,0,1,2.11,1.13A5.83,5.83,0,0,0,22.7,86.1,5.83,5.83,0,0,0,26,84.57a4.67,4.67,0,0,1,2.11-1.13,4.65,4.65,0,0,1,2.12,1.13,5.83,5.83,0,0,0,3.3,1.53,5.83,5.83,0,0,0,3.31-1.53A4.62,4.62,0,0,1,39,83.44a4.65,4.65,0,0,1,2.12,1.13,5.83,5.83,0,0,0,3.3,1.53,5.83,5.83,0,0,0,3.31-1.53,4.58,4.58,0,0,1,2.11-1.13,4.65,4.65,0,0,1,2.12,1.13,5.8,5.8,0,0,0,3.3,1.53,5.8,5.8,0,0,0,3.3-1.53,6.81,6.81,0,0,1,1.78-1.07Z"/><path class="cls-3" d="M60.29,86.12a6.6,6.6,0,0,0-3,1.5,4.48,4.48,0,0,1-2.11,1.13,4.55,4.55,0,0,1-2.12-1.13,5.86,5.86,0,0,0-3.3-1.52,5.86,5.86,0,0,0-3.3,1.52,4.55,4.55,0,0,1-2.12,1.13,4.48,4.48,0,0,1-2.11-1.13A5.88,5.88,0,0,0,39,86.1a5.89,5.89,0,0,0-3.3,1.52,4.55,4.55,0,0,1-2.12,1.13,4.57,4.57,0,0,1-2.11-1.13,5.88,5.88,0,0,0-3.31-1.52,5.89,5.89,0,0,0-3.3,1.52,4.57,4.57,0,0,1-2.11,1.13,4.55,4.55,0,0,1-2.12-1.13,5.89,5.89,0,0,0-3.3-1.52A5.88,5.88,0,0,0,14,87.62a4.53,4.53,0,0,1-2.11,1.13,4.55,4.55,0,0,1-2.12-1.13,6.55,6.55,0,0,0-3-1.5v2a6.46,6.46,0,0,1,1.78,1.08,5.88,5.88,0,0,0,3.31,1.52,5.89,5.89,0,0,0,3.3-1.52,4.55,4.55,0,0,1,2.12-1.13,4.53,4.53,0,0,1,2.11,1.13,5.88,5.88,0,0,0,3.31,1.52A5.89,5.89,0,0,0,26,89.22a4.57,4.57,0,0,1,2.11-1.13,4.55,4.55,0,0,1,2.12,1.13,5.89,5.89,0,0,0,3.3,1.52,5.88,5.88,0,0,0,3.31-1.52A4.53,4.53,0,0,1,39,88.09a4.55,4.55,0,0,1,2.12,1.13,5.89,5.89,0,0,0,3.3,1.52,5.88,5.88,0,0,0,3.31-1.52,4.48,4.48,0,0,1,2.11-1.13,4.55,4.55,0,0,1,2.12,1.13,5.86,5.86,0,0,0,3.3,1.52,5.86,5.86,0,0,0,3.3-1.52,6.55,6.55,0,0,1,1.78-1.07Z"/><path class="cls-3" d="M60.29,92.17a6.49,6.49,0,0,0-3,1.49,4.48,4.48,0,0,1-2.11,1.13,4.55,4.55,0,0,1-2.12-1.13,5.86,5.86,0,0,0-3.3-1.52,5.86,5.86,0,0,0-3.3,1.52,4.55,4.55,0,0,1-2.12,1.13,4.48,4.48,0,0,1-2.11-1.13A5.88,5.88,0,0,0,39,92.14a5.89,5.89,0,0,0-3.3,1.52,4.55,4.55,0,0,1-2.12,1.13,4.57,4.57,0,0,1-2.11-1.13,5.88,5.88,0,0,0-3.31-1.52,5.89,5.89,0,0,0-3.3,1.52,4.57,4.57,0,0,1-2.11,1.13,4.55,4.55,0,0,1-2.12-1.13,5.89,5.89,0,0,0-3.3-1.52A5.88,5.88,0,0,0,14,93.66a4.53,4.53,0,0,1-2.11,1.13,4.55,4.55,0,0,1-2.12-1.13,6.44,6.44,0,0,0-3-1.49v2a6.4,6.4,0,0,1,1.78,1.07,5.83,5.83,0,0,0,3.31,1.53,5.83,5.83,0,0,0,3.3-1.53,4.65,4.65,0,0,1,2.12-1.13,4.62,4.62,0,0,1,2.11,1.13,5.83,5.83,0,0,0,3.31,1.53A5.83,5.83,0,0,0,26,95.26a4.67,4.67,0,0,1,2.11-1.13,4.65,4.65,0,0,1,2.12,1.13,5.83,5.83,0,0,0,3.3,1.53,5.83,5.83,0,0,0,3.31-1.53A4.62,4.62,0,0,1,39,94.13a4.65,4.65,0,0,1,2.12,1.13,5.83,5.83,0,0,0,3.3,1.53,5.83,5.83,0,0,0,3.31-1.53,4.58,4.58,0,0,1,2.11-1.13,4.65,4.65,0,0,1,2.12,1.13,5.8,5.8,0,0,0,3.3,1.53,5.8,5.8,0,0,0,3.3-1.53,6.55,6.55,0,0,1,1.78-1.07Z"/><path class="cls-3" d="M60.29,96.81a6.6,6.6,0,0,0-3,1.5,4.58,4.58,0,0,1-2.11,1.13,4.65,4.65,0,0,1-2.12-1.13,5.79,5.79,0,0,0-3.3-1.52,5.79,5.79,0,0,0-3.3,1.52,4.65,4.65,0,0,1-2.12,1.13,4.58,4.58,0,0,1-2.11-1.13A5.82,5.82,0,0,0,39,96.79a5.82,5.82,0,0,0-3.3,1.52,4.65,4.65,0,0,1-2.12,1.13,4.67,4.67,0,0,1-2.11-1.13,5.82,5.82,0,0,0-3.31-1.52,5.82,5.82,0,0,0-3.3,1.52,4.67,4.67,0,0,1-2.11,1.13,4.65,4.65,0,0,1-2.12-1.13,5.82,5.82,0,0,0-3.3-1.52A5.82,5.82,0,0,0,14,98.31a4.62,4.62,0,0,1-2.11,1.13,4.65,4.65,0,0,1-2.12-1.13,6.46,6.46,0,0,0-3-1.5v2a6.46,6.46,0,0,1,1.78,1.08,5.88,5.88,0,0,0,3.31,1.52,5.89,5.89,0,0,0,3.3-1.52,4.55,4.55,0,0,1,2.12-1.13,4.53,4.53,0,0,1,2.11,1.13,5.88,5.88,0,0,0,3.31,1.52A5.89,5.89,0,0,0,26,99.91a4.57,4.57,0,0,1,2.11-1.13,4.55,4.55,0,0,1,2.12,1.13,5.89,5.89,0,0,0,3.3,1.52,5.88,5.88,0,0,0,3.31-1.52A4.53,4.53,0,0,1,39,98.78a4.55,4.55,0,0,1,2.12,1.13,5.89,5.89,0,0,0,3.3,1.52,5.88,5.88,0,0,0,3.31-1.52,4.48,4.48,0,0,1,2.11-1.13,4.55,4.55,0,0,1,2.12,1.13,5.86,5.86,0,0,0,3.3,1.52,5.86,5.86,0,0,0,3.3-1.52,6.61,6.61,0,0,1,1.78-1.08Z"/><rect class="cls-4" x="15.16" y="68.92" width="98.66" height="6.69"/><polygon class="cls-5" points="113.82 23.27 26.41 23.27 15.16 68.92 23.76 68.92 15.16 103.7 52.97 103.7 61 68.92 113.82 68.92 113.82 23.27"/><rect class="cls-4" x="15.16" y="103.7" width="37.98" height="6.01"/><polygon class="cls-4" points="61.85 74.24 53.14 109.7 53.14 103.7 61 68.92 61.85 74.24"/><rect class="cls-5" x="28.65" y="21.53" width="24.4" height="8.13"/><polygon class="cls-5" points="53.05 29.66 54.83 24.22 54.83 16.65 53.05 21.53 53.05 29.66"/><polygon class="cls-5" points="28.65 21.53 30.7 16.65 54.83 16.65 53.05 21.53 28.65 21.53"/><rect class="cls-6" x="36.7" y="27.32" width="7.42" height="2.34"/></svg>