<svg id="Layer_1" data-name="Layer 1" xmlns="http://www.w3.org/2000/svg" viewBox="0 0 121.68 146.78"><defs><style>.cls-1{fill:none;stroke:#2f3082;stroke-width:5.54px;}.cls-1,.cls-5{stroke-miterlimit:10;}.cls-2,.cls-3,.cls-5{fill:#2f3082;}.cls-2{fill-rule:evenodd;}.cls-4{fill:#fff;}.cls-5{stroke:#fff;stroke-width:1.89px;}</style></defs><title>link-6</title><polyline class="cls-1" points="33.15 2.77 2.77 2.77 2.77 33.15"/><polyline class="cls-1" points="88.53 118.91 118.91 118.91 118.91 88.53"/><polygon class="cls-2" points="70.04 130.85 60.84 146.78 51.64 130.85 70.04 130.85"/><rect class="cls-3" x="58.71" y="53.14" width="4.26" height="11.48"/><rect class="cls-3" x="58.71" y="48.77" width="4.26" height="2"/><rect class="cls-3" x="58.71" y="44.87" width="4.26" height="2.01"/><rect class="cls-3" x="60.34" y="37.52" width="1" height="2"/><rect class="cls-3" x="60.34" y="33.96" width="1" height="2"/><rect class="cls-3" x="57.89" y="41.15" width="5.9" height="2.01"/><rect class="cls-3" x="18.87" y="94.51" width="83.93" height="4.35"/><path class="cls-3" d="M89.78,22.58a4.56,4.56,0,0,1-.19.49c-.7,1.42-2.26,1.41-3.55,1.89l-.41.17a2.74,2.74,0,0,0-1.58,2.19,3.46,3.46,0,0,0,.21,2.2c-1.55-1.84-3.45-4.86-.53-6.22,1.82-.84,6-.63,5.71-3.63A3.47,3.47,0,0,1,89.78,22.58Z"/><path class="cls-3" d="M93,23.07c-.7,1.42-2.25,1.41-3.55,1.89a2.81,2.81,0,0,0-2,2.36,3.46,3.46,0,0,0,.21,2.2c-1-1.22-2.21-3-2-4.39a2.34,2.34,0,0,1,1.51-1.83,16.67,16.67,0,0,1,2.64-.72c1.65-.4,3.23-1,3.07-2.91A3.57,3.57,0,0,1,93,23.07Z"/><polygon class="cls-3" points="93.25 54.21 85.27 54.21 77.29 54.21 69.35 62.85 69.35 93.04 101.19 93.04 101.19 62.85 93.25 54.21"/><polygon class="cls-3" points="91.4 39.11 79.14 39.11 77.25 52.63 93.29 52.63 91.4 39.11"/><rect class="cls-3" x="76.31" y="35.18" width="17.92" height="2.67"/><polygon class="cls-3" points="79.86 33.92 81.75 31.09 85.27 31.09 88.8 31.09 90.68 33.92 79.86 33.92"/><rect class="cls-4" x="72.54" y="64.11" width="25.47" height="28.93"/><rect class="cls-3" x="74.34" y="65.69" width="21.87" height="27.36"/><rect class="cls-4" x="74.34" y="59.08" width="9.8" height="5.54"/><rect class="cls-4" x="86.41" y="59.08" width="9.8" height="5.54"/><rect class="cls-3" x="75.61" y="60.2" width="7.25" height="3.95"/><rect class="cls-3" x="87.68" y="60.2" width="7.25" height="3.95"/><rect class="cls-4" x="75.61" y="66.8" width="7.25" height="1.28"/><rect class="cls-4" x="87.68" y="66.8" width="7.25" height="1.28"/><path class="cls-3" d="M41.43,22.58a3.12,3.12,0,0,1-.19.49c-.7,1.42-2.25,1.41-3.55,1.89l-.4.17a2.75,2.75,0,0,0-1.59,2.19,3.46,3.46,0,0,0,.21,2.2c-1.55-1.84-3.45-4.86-.53-6.22,1.82-.84,6-.63,5.71-3.63A3.44,3.44,0,0,1,41.43,22.58Z"/><path class="cls-3" d="M44.65,23.07C44,24.49,42.4,24.48,41.11,25a2.83,2.83,0,0,0-2,2.36,3.46,3.46,0,0,0,.21,2.2c-1-1.22-2.21-3-2-4.39a2.3,2.3,0,0,1,1.5-1.83,17,17,0,0,1,2.64-.72c1.65-.4,3.24-1,3.07-2.91A3.54,3.54,0,0,1,44.65,23.07Z"/><polygon class="cls-3" points="44.9 54.21 36.92 54.21 28.94 54.21 21 62.85 21 93.04 52.84 93.04 52.84 62.85 44.9 54.21"/><polygon class="cls-3" points="43.05 39.11 30.79 39.11 28.91 52.63 44.94 52.63 43.05 39.11"/><rect class="cls-3" x="27.96" y="35.18" width="17.92" height="2.67"/><polygon class="cls-3" points="31.51 33.92 33.4 31.09 36.92 31.09 40.45 31.09 42.33 33.92 31.51 33.92"/><rect class="cls-4" x="24.19" y="64.11" width="25.47" height="28.93"/><rect class="cls-3" x="25.99" y="65.69" width="21.87" height="27.36"/><rect class="cls-4" x="25.99" y="59.08" width="9.8" height="5.54"/><rect class="cls-4" x="38.06" y="59.08" width="9.8" height="5.54"/><rect class="cls-3" x="27.26" y="60.2" width="7.25" height="3.95"/><rect class="cls-3" x="39.33" y="60.2" width="7.25" height="3.95"/><rect class="cls-4" x="27.26" y="66.8" width="7.25" height="1.28"/><rect class="cls-4" x="39.33" y="66.8" width="7.25" height="1.28"/><path class="cls-5" d="M76.27,77.61A15.43,15.43,0,1,1,60.84,62.18,15.43,15.43,0,0,1,76.27,77.61Z"/><path class="cls-4" d="M65.11,76.15a29.1,29.1,0,0,1-2.65,3.27,17,17,0,0,1-2.41,2.91,13.94,13.94,0,0,0-2.74,2.41A16,16,0,0,1,56,86.06a7.7,7.7,0,0,0-1.17,1.35c.49-.86,1.28-1.66,1.82-2.52a24.54,24.54,0,0,0,1.86-3.51c.69-1.66,2.21-3.77,2.21-5.63a8.51,8.51,0,0,0-5.15,1.56,4,4,0,0,0,.39-.46,73.27,73.27,0,0,0,4.32-6c.59-.91,1.13-2.27,1.72-3l-.49,4.37a7,7,0,0,1-.4,1.46c1.92.1,3.78-.76,5.7-.66C66.29,74,65.75,75.15,65.11,76.15Z"/><polygon class="cls-3" points="57.85 50.77 57.85 48.77 54.28 50.77 57.85 50.77"/><polygon class="cls-3" points="63.84 50.77 63.84 48.77 67.4 50.77 63.84 50.77"/></svg>