<svg id="Layer_1" data-name="Layer 1" xmlns="http://www.w3.org/2000/svg" xmlns:xlink="http://www.w3.org/1999/xlink" viewBox="0 0 121.68 146.78"><defs><style>.cls-1,.cls-2,.cls-7{fill:none;}.cls-2,.cls-7{stroke:#2f3082;}.cls-2,.cls-6{stroke-miterlimit:10;}.cls-2{stroke-width:5.54px;}.cls-3,.cls-4{fill:#2f3082;}.cls-3{fill-rule:evenodd;}.cls-5{clip-path:url(#clip-path);}.cls-6{fill:#fff;stroke:#272361;stroke-width:0.2px;}.cls-7{stroke-linecap:round;stroke-linejoin:round;stroke-width:1.5px;}</style><clipPath id="clip-path"><rect class="cls-1" x="16.59" y="30.13" width="88.67" height="70.5"/></clipPath></defs><title>link-16</title><polyline class="cls-2" points="33.15 2.77 2.77 2.77 2.77 33.15"/><polyline class="cls-2" points="88.53 118.91 118.91 118.91 118.91 88.53"/><polygon class="cls-3" points="70.04 130.85 60.84 146.78 51.64 130.85 70.04 130.85"/><rect class="cls-4" x="13.38" y="26.81" width="95.09" height="77.34" rx="2.79"/><g class="cls-5"><rect class="cls-6" x="16.59" y="30.13" width="88.67" height="70.5"/><polyline class="cls-7" points="42.17 102.67 61.13 84.24 80.22 102.67"/><polyline class="cls-7" points="11.89 81.28 30.19 99.38 26.64 102.67"/><polyline class="cls-7" points="108.27 84.24 93.52 98.98 69.95 75.28 108.27 36.97"/><polyline class="cls-7" points="82.76 88.16 105.37 66.07 92.27 52.97"/><polyline class="cls-7" points="12.65 71.4 35.16 94.21 53.63 76.04 42.67 65.48"/><polyline class="cls-7" points="106.06 24.89 62.19 67.35 51.55 56.88 83.65 24.89"/><path class="cls-7" d="M44.34,43.88A14.15,14.15,0,1,1,30.19,29.73,14.15,14.15,0,0,1,44.34,43.88Z"/><path class="cls-7" d="M42.7,65.52a24.9,24.9,0,1,1,8.88-8.62"/></g></svg>