<svg id="Layer_1" data-name="Layer 1" xmlns="http://www.w3.org/2000/svg" viewBox="0 0 121.68 146.78"><defs><style>.cls-1{fill:none;stroke:#2f3082;stroke-miterlimit:10;stroke-width:5.54px;}.cls-2{fill:#2f3082;fill-rule:evenodd;}</style></defs><title>link-7</title><polyline class="cls-1" points="33.15 2.77 2.77 2.77 2.77 33.15"/><polyline class="cls-1" points="88.53 118.91 118.91 118.91 118.91 88.53"/><polygon class="cls-2" points="70.04 130.85 60.84 146.78 51.64 130.85 70.04 130.85"/><path class="cls-2" d="M26.77,59.15c0-1,0-1.95,0-2.88,0-1.1.42-1.52,1.58-1.53,1.74,0,3.48,0,5.22,0h8.63c1.49,0,1.84.36,1.84,1.86v2.56H45.1c7,0,14,0,21,0a39,39,0,0,1,21.81,6.51A39.56,39.56,0,0,1,103.1,84.31c.53,1.33,1,2.7,1.38,4.07a1.24,1.24,0,0,1-1.19,1.78,6.26,6.26,0,0,1-.75,0H21.67c-1.7,0-2-.33-2-2V61c0-1.52.33-1.86,1.84-1.86ZM22.14,87.64H101.7c-.06-.22-.1-.38-.15-.53A38.67,38.67,0,0,0,96,76.61a1.57,1.57,0,0,0-1.42-.73q-15.34,0-30.7,0c-1.47,0-1.88-.4-1.88-1.85q0-3.87,0-7.72c0-1.63.35-2,2-2H79.7a30,30,0,0,0-12.09-2.68c-14.9-.07-29.81,0-44.72,0-.24,0-.48,0-.73,0V64.3c.31,0,.58,0,.85,0,1.88,0,3.76,0,5.64,0,1.24,0,1.64.42,1.64,1.65v8.3c0,1.17-.42,1.58-1.61,1.59-1.38,0-2.76,0-4.15,0H22.14ZM88.59,73.4s0-.08,0-.12L64.52,68V73.4ZM22.16,68.21v5.17h5.72c0-.71,0-1.37,0-2a.74.74,0,0,0-.34-.5C25.78,70,24,69.13,22.16,68.21Z"/><path class="cls-2" d="M62.17,91.69h41a1.34,1.34,0,0,1,1.43,1.68c-.27,2.74-2.37,4.59-5.37,4.72H21.89a7.8,7.8,0,0,1-1.08,0,1.18,1.18,0,0,1-1.15-1.27c0-1.24,0-2.49,0-3.73a1.24,1.24,0,0,1,1.27-1.35,7.66,7.66,0,0,1,.83,0Z"/><path class="cls-2" d="M59,74.66v8.46c0,1.41-.38,1.79-1.74,1.8H48.85c-1.36,0-1.69-.34-1.69-1.73V66.09c0-1.38.38-1.75,1.79-1.75q4.09,0,8.21,0c1.4,0,1.8.43,1.81,1.85Zm-9.35-6.74V82.46H56.5c0-3.64,0-7.23,0-10.82a.68.68,0,0,0-.32-.5C54,70.07,51.87,69,49.62,67.92Z"/><path class="cls-2" d="M44,70.11c0,1.44,0,2.87,0,4.31,0,1-.43,1.45-1.41,1.46q-3.9,0-7.8,0c-1,0-1.41-.48-1.42-1.45,0-2.87,0-5.75,0-8.62,0-1,.42-1.45,1.41-1.46q3.9,0,7.79,0c1,0,1.43.5,1.43,1.53C44.05,67.29,44,68.7,44,70.11Zm-2.53,3.27c.34-2.24.33-2.25-1.56-3.18l-4.06-2v5.17Z"/></svg>