<svg id="Layer_1" data-name="Layer 1" xmlns="http://www.w3.org/2000/svg" viewBox="0 0 121.68 146.78"><defs><style>.cls-1{fill:none;stroke:#2f3082;stroke-miterlimit:10;stroke-width:5.54px;}.cls-2,.cls-3{fill:#2f3082;}.cls-2{fill-rule:evenodd;}</style></defs><title>link-2</title><polyline class="cls-1" points="33.15 2.77 2.77 2.77 2.77 33.15"/><polyline class="cls-1" points="88.53 118.91 118.91 118.91 118.91 88.53"/><polygon class="cls-2" points="70.04 130.85 60.84 146.78 51.64 130.85 70.04 130.85"/><path class="cls-3" d="M87.15,41H31.07a3.44,3.44,0,0,0,0,6.87h5.71l19.51,6.23v8.18h5.64V54.13L81.45,47.9h5.7a3.44,3.44,0,1,0,0-6.87ZM57.58,51.32,46.87,47.9H57.58Zm3.07,0V47.9h10.7Z"/><path class="cls-3" d="M45.33,64.4h2.89V92H45.33a21.06,21.06,0,0,1-4.54-9H32.88v5.6h-5V83.16a4.25,4.25,0,0,0-2.67,1.41,7.53,7.53,0,0,0-1.41,4.09c0,.34,0,.67,0,1h0v8.31H14.19V89.63c0-.56,0-1.16.08-1.81a19.65,19.65,0,0,1,.92-4.54,14.86,14.86,0,0,1,2.77-5,13.44,13.44,0,0,1,5-3.63,16.68,16.68,0,0,1,5-1.22V68.89h5v4.5h7.91A21.08,21.08,0,0,1,45.33,64.4Z"/><rect class="cls-3" x="50.57" y="64.4" width="17.08" height="27.58"/><path class="cls-3" d="M104,92v6H94.45V92c0-3.88-1.09-6.43-3.32-7.83a7.94,7.94,0,0,0-.81-.43v4.86h-5V83h-7.9a21.17,21.17,0,0,1-4.54,9H70V64.4H72.9a21.19,21.19,0,0,1,4.54,9h7.9v-4.5h5v4.83a16.84,16.84,0,0,1,8.61,4.44,16.15,16.15,0,0,1,3.72,5.7A22.48,22.48,0,0,1,104,92Z"/><rect class="cls-3" x="14.19" y="99.89" width="89.86" height="5.04"/></svg>