<svg id="Layer_1" data-name="Layer 1" xmlns="http://www.w3.org/2000/svg" viewBox="0 0 121.68 146.78"><defs><style>.cls-1,.cls-7{fill:none;stroke-miterlimit:10;}.cls-1,.cls-3,.cls-5,.cls-7{stroke:#2f3082;}.cls-1{stroke-width:5.54px;}.cls-2,.cls-3,.cls-4{fill:#2f3082;}.cls-2{fill-rule:evenodd;}.cls-3,.cls-5{stroke-linecap:round;stroke-linejoin:round;}.cls-5,.cls-6{fill:#fff;}.cls-7{stroke-width:1.01px;}</style></defs><title>link-13</title><polyline class="cls-1" points="33.15 2.77 2.77 2.77 2.77 33.15"/><polyline class="cls-1" points="88.53 118.91 118.91 118.91 118.91 88.53"/><polygon class="cls-2" points="70.04 130.85 60.84 146.78 51.64 130.85 70.04 130.85"/><rect class="cls-3" x="26.21" y="60.3" width="87.6" height="7.14"/><rect class="cls-3" x="20.39" y="103.8" width="15.09" height="7.14"/><path class="cls-4" d="M113.81,60.65a6.6,6.6,0,0,0-3,1.5,4.48,4.48,0,0,1-2.11,1.13,4.55,4.55,0,0,1-2.12-1.13,5.79,5.79,0,0,0-3.3-1.52,5.79,5.79,0,0,0-3.3,1.52,4.55,4.55,0,0,1-2.12,1.13,4.53,4.53,0,0,1-2.11-1.13,5.82,5.82,0,0,0-3.31-1.52,5.82,5.82,0,0,0-3.3,1.52,4.55,4.55,0,0,1-2.12,1.13,4.57,4.57,0,0,1-2.11-1.13,5.82,5.82,0,0,0-3.31-1.52,5.82,5.82,0,0,0-3.3,1.52,4.53,4.53,0,0,1-2.11,1.13,4.55,4.55,0,0,1-2.12-1.13,5.82,5.82,0,0,0-3.3-1.52,5.82,5.82,0,0,0-3.31,1.52,4.53,4.53,0,0,1-2.11,1.13,4.55,4.55,0,0,1-2.12-1.13,6.51,6.51,0,0,0-3-1.5v2a6.32,6.32,0,0,1,1.78,1.08,5.88,5.88,0,0,0,3.31,1.52,5.89,5.89,0,0,0,3.3-1.52,4.55,4.55,0,0,1,2.12-1.13,4.53,4.53,0,0,1,2.11,1.13,5.88,5.88,0,0,0,3.31,1.52,5.89,5.89,0,0,0,3.3-1.52,4.57,4.57,0,0,1,2.11-1.13,4.55,4.55,0,0,1,2.12,1.13,5.89,5.89,0,0,0,3.3,1.52,5.88,5.88,0,0,0,3.31-1.52,4.53,4.53,0,0,1,2.11-1.13,4.55,4.55,0,0,1,2.12,1.13,5.89,5.89,0,0,0,3.3,1.52,5.88,5.88,0,0,0,3.31-1.52,4.48,4.48,0,0,1,2.11-1.13,4.55,4.55,0,0,1,2.12,1.13,5.86,5.86,0,0,0,3.3,1.52,5.86,5.86,0,0,0,3.3-1.52,6.88,6.88,0,0,1,1.78-1.08Z"/><path class="cls-4" d="M113.81,65.3a6.59,6.59,0,0,0-3,1.49,4.51,4.51,0,0,1-2.11,1.14,4.59,4.59,0,0,1-2.12-1.14,5.86,5.86,0,0,0-3.3-1.52,5.86,5.86,0,0,0-3.3,1.52,4.59,4.59,0,0,1-2.12,1.14,4.56,4.56,0,0,1-2.11-1.14,5.88,5.88,0,0,0-3.31-1.52,5.89,5.89,0,0,0-3.3,1.52,4.59,4.59,0,0,1-2.12,1.14,4.61,4.61,0,0,1-2.11-1.14,5.88,5.88,0,0,0-3.31-1.52,5.89,5.89,0,0,0-3.3,1.52,4.56,4.56,0,0,1-2.11,1.14,4.59,4.59,0,0,1-2.12-1.14,5.89,5.89,0,0,0-3.3-1.52,5.88,5.88,0,0,0-3.31,1.52,4.56,4.56,0,0,1-2.11,1.14,4.59,4.59,0,0,1-2.12-1.14,6.39,6.39,0,0,0-3-1.49v2a6.27,6.27,0,0,1,1.78,1.07,5.9,5.9,0,0,0,3.31,1.53,5.9,5.9,0,0,0,3.3-1.53,4.65,4.65,0,0,1,2.12-1.13,4.62,4.62,0,0,1,2.11,1.13,5.9,5.9,0,0,0,3.31,1.53,5.9,5.9,0,0,0,3.3-1.53,4.67,4.67,0,0,1,2.11-1.13,4.65,4.65,0,0,1,2.12,1.13,5.9,5.9,0,0,0,3.3,1.53,5.9,5.9,0,0,0,3.31-1.53,4.62,4.62,0,0,1,2.11-1.13,4.65,4.65,0,0,1,2.12,1.13,5.9,5.9,0,0,0,3.3,1.53,5.9,5.9,0,0,0,3.31-1.53,4.58,4.58,0,0,1,2.11-1.13,4.65,4.65,0,0,1,2.12,1.13,5.87,5.87,0,0,0,3.3,1.53,5.87,5.87,0,0,0,3.3-1.53,6.55,6.55,0,0,1,1.78-1.07Z"/><path class="cls-4" d="M113.81,71.34a6.6,6.6,0,0,0-3,1.5A4.58,4.58,0,0,1,108.73,74a4.65,4.65,0,0,1-2.12-1.13,5.8,5.8,0,0,0-3.3-1.53,5.8,5.8,0,0,0-3.3,1.53A4.65,4.65,0,0,1,97.89,74a4.62,4.62,0,0,1-2.11-1.13,5.83,5.83,0,0,0-3.31-1.53,5.83,5.83,0,0,0-3.3,1.53A4.65,4.65,0,0,1,87.05,74a4.67,4.67,0,0,1-2.11-1.13,5.83,5.83,0,0,0-3.31-1.53,5.83,5.83,0,0,0-3.3,1.53A4.62,4.62,0,0,1,76.22,74a4.65,4.65,0,0,1-2.12-1.13,5.83,5.83,0,0,0-3.3-1.53,5.83,5.83,0,0,0-3.31,1.53A4.62,4.62,0,0,1,65.38,74a4.65,4.65,0,0,1-2.12-1.13,6.41,6.41,0,0,0-3-1.5v2a6.27,6.27,0,0,1,1.78,1.07A5.83,5.83,0,0,0,65.38,76a5.83,5.83,0,0,0,3.3-1.53A4.65,4.65,0,0,1,70.8,73.3a4.62,4.62,0,0,1,2.11,1.13A5.83,5.83,0,0,0,76.22,76a5.83,5.83,0,0,0,3.3-1.53,4.67,4.67,0,0,1,2.11-1.13,4.65,4.65,0,0,1,2.12,1.13A5.83,5.83,0,0,0,87.05,76a5.83,5.83,0,0,0,3.31-1.53,4.62,4.62,0,0,1,2.11-1.13,4.65,4.65,0,0,1,2.12,1.13A5.83,5.83,0,0,0,97.89,76a5.83,5.83,0,0,0,3.31-1.53,4.58,4.58,0,0,1,2.11-1.13,4.65,4.65,0,0,1,2.12,1.13,5.8,5.8,0,0,0,3.3,1.53,5.8,5.8,0,0,0,3.3-1.53,6.81,6.81,0,0,1,1.78-1.07Z"/><path class="cls-4" d="M113.81,76a6.6,6.6,0,0,0-3,1.5,4.48,4.48,0,0,1-2.11,1.13,4.55,4.55,0,0,1-2.12-1.13,5.86,5.86,0,0,0-3.3-1.52,5.86,5.86,0,0,0-3.3,1.52,4.55,4.55,0,0,1-2.12,1.13,4.53,4.53,0,0,1-2.11-1.13A5.88,5.88,0,0,0,92.47,76a5.89,5.89,0,0,0-3.3,1.52,4.55,4.55,0,0,1-2.12,1.13,4.57,4.57,0,0,1-2.11-1.13A5.88,5.88,0,0,0,81.63,76a5.89,5.89,0,0,0-3.3,1.52,4.53,4.53,0,0,1-2.11,1.13,4.55,4.55,0,0,1-2.12-1.13A5.89,5.89,0,0,0,70.8,76a5.88,5.88,0,0,0-3.31,1.52,4.53,4.53,0,0,1-2.11,1.13,4.55,4.55,0,0,1-2.12-1.13,6.51,6.51,0,0,0-3-1.5v2a6.32,6.32,0,0,1,1.78,1.08,5.88,5.88,0,0,0,3.31,1.52,5.89,5.89,0,0,0,3.3-1.52A4.55,4.55,0,0,1,70.8,78a4.53,4.53,0,0,1,2.11,1.13,5.88,5.88,0,0,0,3.31,1.52,5.89,5.89,0,0,0,3.3-1.52A4.57,4.57,0,0,1,81.63,78a4.55,4.55,0,0,1,2.12,1.13,5.89,5.89,0,0,0,3.3,1.52,5.88,5.88,0,0,0,3.31-1.52A4.53,4.53,0,0,1,92.47,78a4.55,4.55,0,0,1,2.12,1.13,5.89,5.89,0,0,0,3.3,1.52,5.88,5.88,0,0,0,3.31-1.52A4.48,4.48,0,0,1,103.31,78a4.55,4.55,0,0,1,2.12,1.13,5.86,5.86,0,0,0,3.3,1.52,5.86,5.86,0,0,0,3.3-1.52A6.88,6.88,0,0,1,113.81,78Z"/><path class="cls-4" d="M113.81,82.34a6.49,6.49,0,0,0-3,1.49A4.48,4.48,0,0,1,108.73,85a4.55,4.55,0,0,1-2.12-1.13,5.86,5.86,0,0,0-3.3-1.52,5.86,5.86,0,0,0-3.3,1.52A4.55,4.55,0,0,1,97.89,85a4.53,4.53,0,0,1-2.11-1.13,5.88,5.88,0,0,0-3.31-1.52,5.89,5.89,0,0,0-3.3,1.52A4.55,4.55,0,0,1,87.05,85a4.57,4.57,0,0,1-2.11-1.13,5.88,5.88,0,0,0-3.31-1.52,5.89,5.89,0,0,0-3.3,1.52A4.53,4.53,0,0,1,76.22,85a4.55,4.55,0,0,1-2.12-1.13,5.89,5.89,0,0,0-3.3-1.52,5.88,5.88,0,0,0-3.31,1.52A4.53,4.53,0,0,1,65.38,85a4.55,4.55,0,0,1-2.12-1.13,6.39,6.39,0,0,0-3-1.49v2a6.27,6.27,0,0,1,1.78,1.07A5.83,5.83,0,0,0,65.38,87a5.83,5.83,0,0,0,3.3-1.53A4.65,4.65,0,0,1,70.8,84.3a4.62,4.62,0,0,1,2.11,1.13A5.83,5.83,0,0,0,76.22,87a5.83,5.83,0,0,0,3.3-1.53,4.67,4.67,0,0,1,2.11-1.13,4.65,4.65,0,0,1,2.12,1.13A5.83,5.83,0,0,0,87.05,87a5.83,5.83,0,0,0,3.31-1.53,4.62,4.62,0,0,1,2.11-1.13,4.65,4.65,0,0,1,2.12,1.13A5.83,5.83,0,0,0,97.89,87a5.83,5.83,0,0,0,3.31-1.53,4.58,4.58,0,0,1,2.11-1.13,4.65,4.65,0,0,1,2.12,1.13,5.8,5.8,0,0,0,3.3,1.53,5.8,5.8,0,0,0,3.3-1.53,6.55,6.55,0,0,1,1.78-1.07Z"/><path class="cls-4" d="M113.81,87a6.6,6.6,0,0,0-3,1.5,4.58,4.58,0,0,1-2.11,1.13,4.65,4.65,0,0,1-2.12-1.13,5.79,5.79,0,0,0-3.3-1.52,5.79,5.79,0,0,0-3.3,1.52,4.65,4.65,0,0,1-2.12,1.13,4.62,4.62,0,0,1-2.11-1.13A5.82,5.82,0,0,0,92.47,87a5.82,5.82,0,0,0-3.3,1.52,4.65,4.65,0,0,1-2.12,1.13,4.67,4.67,0,0,1-2.11-1.13A5.82,5.82,0,0,0,81.63,87a5.82,5.82,0,0,0-3.3,1.52,4.62,4.62,0,0,1-2.11,1.13,4.65,4.65,0,0,1-2.12-1.13A5.82,5.82,0,0,0,70.8,87a5.82,5.82,0,0,0-3.31,1.52,4.62,4.62,0,0,1-2.11,1.13,4.65,4.65,0,0,1-2.12-1.13,6.41,6.41,0,0,0-3-1.5v2a6.32,6.32,0,0,1,1.78,1.08,5.88,5.88,0,0,0,3.31,1.52,5.89,5.89,0,0,0,3.3-1.52A4.55,4.55,0,0,1,70.8,89a4.53,4.53,0,0,1,2.11,1.13,5.88,5.88,0,0,0,3.31,1.52,5.89,5.89,0,0,0,3.3-1.52A4.57,4.57,0,0,1,81.63,89a4.55,4.55,0,0,1,2.12,1.13,5.89,5.89,0,0,0,3.3,1.52,5.88,5.88,0,0,0,3.31-1.52A4.53,4.53,0,0,1,92.47,89a4.55,4.55,0,0,1,2.12,1.13,5.89,5.89,0,0,0,3.3,1.52,5.88,5.88,0,0,0,3.31-1.52A4.48,4.48,0,0,1,103.31,89a4.55,4.55,0,0,1,2.12,1.13,5.86,5.86,0,0,0,3.3,1.52,5.86,5.86,0,0,0,3.3-1.52A6.61,6.61,0,0,1,113.81,89Z"/><path class="cls-4" d="M113.81,93a6.6,6.6,0,0,0-3,1.5,4.48,4.48,0,0,1-2.11,1.13,4.55,4.55,0,0,1-2.12-1.13,5.86,5.86,0,0,0-3.3-1.52,5.86,5.86,0,0,0-3.3,1.52,4.55,4.55,0,0,1-2.12,1.13,4.53,4.53,0,0,1-2.11-1.13A5.88,5.88,0,0,0,92.47,93a5.89,5.89,0,0,0-3.3,1.52,4.55,4.55,0,0,1-2.12,1.13,4.57,4.57,0,0,1-2.11-1.13A5.88,5.88,0,0,0,81.63,93a5.89,5.89,0,0,0-3.3,1.52,4.53,4.53,0,0,1-2.11,1.13,4.55,4.55,0,0,1-2.12-1.13A5.89,5.89,0,0,0,70.8,93a5.88,5.88,0,0,0-3.31,1.52,4.53,4.53,0,0,1-2.11,1.13,4.55,4.55,0,0,1-2.12-1.13,6.51,6.51,0,0,0-3-1.5v2a6.32,6.32,0,0,1,1.78,1.08,5.88,5.88,0,0,0,3.31,1.52,5.89,5.89,0,0,0,3.3-1.52A4.55,4.55,0,0,1,70.8,95a4.53,4.53,0,0,1,2.11,1.13,5.88,5.88,0,0,0,3.31,1.52,5.89,5.89,0,0,0,3.3-1.52A4.57,4.57,0,0,1,81.63,95a4.55,4.55,0,0,1,2.12,1.13,5.89,5.89,0,0,0,3.3,1.52,5.88,5.88,0,0,0,3.31-1.52A4.53,4.53,0,0,1,92.47,95a4.55,4.55,0,0,1,2.12,1.13,5.89,5.89,0,0,0,3.3,1.52,5.88,5.88,0,0,0,3.31-1.52A4.48,4.48,0,0,1,103.31,95a4.55,4.55,0,0,1,2.12,1.13,5.86,5.86,0,0,0,3.3,1.52,5.86,5.86,0,0,0,3.3-1.52A6.88,6.88,0,0,1,113.81,95Z"/><path class="cls-4" d="M113.81,97.67a6.51,6.51,0,0,0-3,1.5,4.58,4.58,0,0,1-2.11,1.13,4.65,4.65,0,0,1-2.12-1.13,5.8,5.8,0,0,0-3.3-1.53,5.8,5.8,0,0,0-3.3,1.53,4.65,4.65,0,0,1-2.12,1.13,4.62,4.62,0,0,1-2.11-1.13,5.83,5.83,0,0,0-3.31-1.53,5.83,5.83,0,0,0-3.3,1.53,4.65,4.65,0,0,1-2.12,1.13,4.67,4.67,0,0,1-2.11-1.13,5.83,5.83,0,0,0-3.31-1.53,5.83,5.83,0,0,0-3.3,1.53,4.62,4.62,0,0,1-2.11,1.13,4.65,4.65,0,0,1-2.12-1.13,5.83,5.83,0,0,0-3.3-1.53,5.83,5.83,0,0,0-3.31,1.53,4.62,4.62,0,0,1-2.11,1.13,4.65,4.65,0,0,1-2.12-1.13,6.32,6.32,0,0,0-3-1.5v2a6.27,6.27,0,0,1,1.78,1.07,5.83,5.83,0,0,0,3.31,1.53,5.83,5.83,0,0,0,3.3-1.53,4.65,4.65,0,0,1,2.12-1.13,4.62,4.62,0,0,1,2.11,1.13,5.83,5.83,0,0,0,3.31,1.53,5.83,5.83,0,0,0,3.3-1.53,4.67,4.67,0,0,1,2.11-1.13,4.65,4.65,0,0,1,2.12,1.13,5.83,5.83,0,0,0,3.3,1.53,5.83,5.83,0,0,0,3.31-1.53,4.62,4.62,0,0,1,2.11-1.13,4.65,4.65,0,0,1,2.12,1.13,5.83,5.83,0,0,0,3.3,1.53,5.83,5.83,0,0,0,3.31-1.53,4.58,4.58,0,0,1,2.11-1.13,4.65,4.65,0,0,1,2.12,1.13,5.8,5.8,0,0,0,3.3,1.53,5.8,5.8,0,0,0,3.3-1.53,6.55,6.55,0,0,1,1.78-1.07Z"/><path class="cls-4" d="M60.29,60.65a6.51,6.51,0,0,0-3,1.5,4.55,4.55,0,0,1-2.12,1.13,4.57,4.57,0,0,1-2.11-1.13,5.82,5.82,0,0,0-3.3-1.52,5.82,5.82,0,0,0-3.31,1.52,4.57,4.57,0,0,1-2.11,1.13,4.55,4.55,0,0,1-2.12-1.13A5.82,5.82,0,0,0,39,60.63a5.82,5.82,0,0,0-3.31,1.52,4.53,4.53,0,0,1-2.11,1.13,4.55,4.55,0,0,1-2.12-1.13,5.79,5.79,0,0,0-3.3-1.52,5.79,5.79,0,0,0-3.3,1.52,4.55,4.55,0,0,1-2.12,1.13,4.48,4.48,0,0,1-2.11-1.13,5.82,5.82,0,0,0-3.31-1.52A5.79,5.79,0,0,0,14,62.15a4.55,4.55,0,0,1-2.12,1.13,4.53,4.53,0,0,1-2.11-1.13,6.59,6.59,0,0,0-3-1.5v2a6.5,6.5,0,0,1,1.79,1.08,5.89,5.89,0,0,0,3.3,1.52,5.88,5.88,0,0,0,3.31-1.52,4.48,4.48,0,0,1,2.11-1.13,4.55,4.55,0,0,1,2.12,1.13,5.86,5.86,0,0,0,3.3,1.52A5.91,5.91,0,0,0,26,63.75a4.48,4.48,0,0,1,2.11-1.13,4.48,4.48,0,0,1,2.11,1.13,5.88,5.88,0,0,0,3.31,1.52,5.89,5.89,0,0,0,3.3-1.52A4.55,4.55,0,0,1,39,62.62a4.53,4.53,0,0,1,2.11,1.13,5.88,5.88,0,0,0,3.31,1.52,5.89,5.89,0,0,0,3.3-1.52,4.55,4.55,0,0,1,2.12-1.13,4.57,4.57,0,0,1,2.11,1.13,5.89,5.89,0,0,0,3.3,1.52,5.88,5.88,0,0,0,3.31-1.52,6.57,6.57,0,0,1,1.78-1.08Z"/><path class="cls-4" d="M60.29,65.3a6.49,6.49,0,0,0-3,1.49,4.59,4.59,0,0,1-2.12,1.14,4.61,4.61,0,0,1-2.11-1.14,5.89,5.89,0,0,0-3.3-1.52,5.88,5.88,0,0,0-3.31,1.52,4.61,4.61,0,0,1-2.11,1.14,4.59,4.59,0,0,1-2.12-1.14A5.89,5.89,0,0,0,39,65.27a5.88,5.88,0,0,0-3.31,1.52,4.56,4.56,0,0,1-2.11,1.14,4.59,4.59,0,0,1-2.12-1.14,5.86,5.86,0,0,0-3.3-1.52,5.86,5.86,0,0,0-3.3,1.52,4.59,4.59,0,0,1-2.12,1.14,4.51,4.51,0,0,1-2.11-1.14,5.88,5.88,0,0,0-3.31-1.52A5.86,5.86,0,0,0,14,66.79a4.59,4.59,0,0,1-2.12,1.14,4.56,4.56,0,0,1-2.11-1.14,6.47,6.47,0,0,0-3-1.49v2a6.44,6.44,0,0,1,1.79,1.07,5.9,5.9,0,0,0,3.3,1.53,5.9,5.9,0,0,0,3.31-1.53,4.58,4.58,0,0,1,2.11-1.13,4.65,4.65,0,0,1,2.12,1.13,5.87,5.87,0,0,0,3.3,1.53A5.93,5.93,0,0,0,26,68.39a4.58,4.58,0,0,1,2.11-1.13,4.58,4.58,0,0,1,2.11,1.13,5.9,5.9,0,0,0,3.31,1.53,5.9,5.9,0,0,0,3.3-1.53A4.65,4.65,0,0,1,39,67.26a4.62,4.62,0,0,1,2.11,1.13,5.9,5.9,0,0,0,3.31,1.53,5.9,5.9,0,0,0,3.3-1.53,4.65,4.65,0,0,1,2.12-1.13,4.67,4.67,0,0,1,2.11,1.13,5.9,5.9,0,0,0,3.3,1.53,5.9,5.9,0,0,0,3.31-1.53,6.27,6.27,0,0,1,1.78-1.07Z"/><path class="cls-4" d="M60.29,71.34a6.51,6.51,0,0,0-3,1.5A4.65,4.65,0,0,1,55.2,74a4.67,4.67,0,0,1-2.11-1.13,5.83,5.83,0,0,0-3.3-1.53,5.83,5.83,0,0,0-3.31,1.53A4.67,4.67,0,0,1,44.37,74a4.65,4.65,0,0,1-2.12-1.13A5.83,5.83,0,0,0,39,71.31a5.83,5.83,0,0,0-3.31,1.53A4.62,4.62,0,0,1,33.53,74a4.65,4.65,0,0,1-2.12-1.13,5.8,5.8,0,0,0-3.3-1.53,5.8,5.8,0,0,0-3.3,1.53A4.65,4.65,0,0,1,22.69,74a4.58,4.58,0,0,1-2.11-1.13,5.83,5.83,0,0,0-3.31-1.53A5.8,5.8,0,0,0,14,72.84,4.65,4.65,0,0,1,11.85,74a4.62,4.62,0,0,1-2.11-1.13,6.49,6.49,0,0,0-3-1.5v2a6.44,6.44,0,0,1,1.79,1.07A5.83,5.83,0,0,0,11.85,76a5.83,5.83,0,0,0,3.31-1.53,4.58,4.58,0,0,1,2.11-1.13,4.65,4.65,0,0,1,2.12,1.13A5.8,5.8,0,0,0,22.69,76,5.86,5.86,0,0,0,26,74.43a4.58,4.58,0,0,1,2.11-1.13,4.58,4.58,0,0,1,2.11,1.13A5.83,5.83,0,0,0,33.53,76a5.83,5.83,0,0,0,3.3-1.53A4.65,4.65,0,0,1,39,73.3a4.62,4.62,0,0,1,2.11,1.13A5.83,5.83,0,0,0,44.37,76a5.83,5.83,0,0,0,3.3-1.53,4.65,4.65,0,0,1,2.12-1.13,4.67,4.67,0,0,1,2.11,1.13A5.83,5.83,0,0,0,55.2,76a5.83,5.83,0,0,0,3.31-1.53,6.51,6.51,0,0,1,1.78-1.07Z"/><path class="cls-4" d="M60.29,76a6.51,6.51,0,0,0-3,1.5,4.55,4.55,0,0,1-2.12,1.13,4.57,4.57,0,0,1-2.11-1.13A5.89,5.89,0,0,0,49.79,76a5.88,5.88,0,0,0-3.31,1.52,4.57,4.57,0,0,1-2.11,1.13,4.55,4.55,0,0,1-2.12-1.13A5.89,5.89,0,0,0,39,76a5.88,5.88,0,0,0-3.31,1.52,4.53,4.53,0,0,1-2.11,1.13,4.55,4.55,0,0,1-2.12-1.13A5.86,5.86,0,0,0,28.11,76a5.86,5.86,0,0,0-3.3,1.52,4.55,4.55,0,0,1-2.12,1.13,4.48,4.48,0,0,1-2.11-1.13A5.88,5.88,0,0,0,17.27,76,5.86,5.86,0,0,0,14,77.48a4.55,4.55,0,0,1-2.12,1.13,4.53,4.53,0,0,1-2.11-1.13,6.59,6.59,0,0,0-3-1.5v2a6.5,6.5,0,0,1,1.79,1.08,5.89,5.89,0,0,0,3.3,1.52,5.88,5.88,0,0,0,3.31-1.52A4.48,4.48,0,0,1,17.27,78a4.55,4.55,0,0,1,2.12,1.13,5.86,5.86,0,0,0,3.3,1.52A5.91,5.91,0,0,0,26,79.08,4.48,4.48,0,0,1,28.11,78a4.48,4.48,0,0,1,2.11,1.13,5.88,5.88,0,0,0,3.31,1.52,5.89,5.89,0,0,0,3.3-1.52A4.55,4.55,0,0,1,39,78a4.53,4.53,0,0,1,2.11,1.13,5.88,5.88,0,0,0,3.31,1.52,5.89,5.89,0,0,0,3.3-1.52A4.55,4.55,0,0,1,49.79,78a4.57,4.57,0,0,1,2.11,1.13,5.89,5.89,0,0,0,3.3,1.52,5.88,5.88,0,0,0,3.31-1.52A6.57,6.57,0,0,1,60.29,78Z"/><path class="cls-4" d="M60.29,82.34a6.39,6.39,0,0,0-3,1.49A4.55,4.55,0,0,1,55.2,85a4.57,4.57,0,0,1-2.11-1.13,5.89,5.89,0,0,0-3.3-1.52,5.88,5.88,0,0,0-3.31,1.52A4.57,4.57,0,0,1,44.37,85a4.55,4.55,0,0,1-2.12-1.13A5.89,5.89,0,0,0,39,82.31a5.88,5.88,0,0,0-3.31,1.52A4.53,4.53,0,0,1,33.53,85a4.55,4.55,0,0,1-2.12-1.13,5.86,5.86,0,0,0-3.3-1.52,5.86,5.86,0,0,0-3.3,1.52A4.55,4.55,0,0,1,22.69,85a4.48,4.48,0,0,1-2.11-1.13,5.88,5.88,0,0,0-3.31-1.52A5.86,5.86,0,0,0,14,83.83,4.55,4.55,0,0,1,11.85,85a4.53,4.53,0,0,1-2.11-1.13,6.47,6.47,0,0,0-3-1.49v2a6.44,6.44,0,0,1,1.79,1.07A5.83,5.83,0,0,0,11.85,87a5.83,5.83,0,0,0,3.31-1.53,4.58,4.58,0,0,1,2.11-1.13,4.65,4.65,0,0,1,2.12,1.13A5.8,5.8,0,0,0,22.69,87,5.86,5.86,0,0,0,26,85.43a4.58,4.58,0,0,1,2.11-1.13,4.58,4.58,0,0,1,2.11,1.13A5.83,5.83,0,0,0,33.53,87a5.83,5.83,0,0,0,3.3-1.53A4.65,4.65,0,0,1,39,84.3a4.62,4.62,0,0,1,2.11,1.13A5.83,5.83,0,0,0,44.37,87a5.83,5.83,0,0,0,3.3-1.53,4.65,4.65,0,0,1,2.12-1.13,4.67,4.67,0,0,1,2.11,1.13A5.83,5.83,0,0,0,55.2,87a5.83,5.83,0,0,0,3.31-1.53,6.27,6.27,0,0,1,1.78-1.07Z"/><path class="cls-4" d="M60.29,87a6.51,6.51,0,0,0-3,1.5,4.65,4.65,0,0,1-2.12,1.13,4.67,4.67,0,0,1-2.11-1.13A5.82,5.82,0,0,0,49.79,87a5.82,5.82,0,0,0-3.31,1.52,4.67,4.67,0,0,1-2.11,1.13,4.65,4.65,0,0,1-2.12-1.13A5.82,5.82,0,0,0,39,87a5.82,5.82,0,0,0-3.31,1.52,4.62,4.62,0,0,1-2.11,1.13,4.65,4.65,0,0,1-2.12-1.13A5.79,5.79,0,0,0,28.11,87a5.79,5.79,0,0,0-3.3,1.52,4.65,4.65,0,0,1-2.12,1.13,4.58,4.58,0,0,1-2.11-1.13A5.82,5.82,0,0,0,17.27,87,5.79,5.79,0,0,0,14,88.48a4.65,4.65,0,0,1-2.12,1.13,4.62,4.62,0,0,1-2.11-1.13,6.49,6.49,0,0,0-3-1.5v2a6.5,6.5,0,0,1,1.79,1.08,5.89,5.89,0,0,0,3.3,1.52,5.88,5.88,0,0,0,3.31-1.52A4.48,4.48,0,0,1,17.27,89a4.55,4.55,0,0,1,2.12,1.13,5.86,5.86,0,0,0,3.3,1.52A5.91,5.91,0,0,0,26,90.08,4.48,4.48,0,0,1,28.11,89a4.48,4.48,0,0,1,2.11,1.13,5.88,5.88,0,0,0,3.31,1.52,5.89,5.89,0,0,0,3.3-1.52A4.55,4.55,0,0,1,39,89a4.53,4.53,0,0,1,2.11,1.13,5.88,5.88,0,0,0,3.31,1.52,5.89,5.89,0,0,0,3.3-1.52A4.55,4.55,0,0,1,49.79,89a4.57,4.57,0,0,1,2.11,1.13,5.89,5.89,0,0,0,3.3,1.52,5.88,5.88,0,0,0,3.31-1.52A6.32,6.32,0,0,1,60.29,89Z"/><path class="cls-4" d="M60.29,93a6.51,6.51,0,0,0-3,1.5,4.55,4.55,0,0,1-2.12,1.13,4.57,4.57,0,0,1-2.11-1.13A5.89,5.89,0,0,0,49.79,93a5.88,5.88,0,0,0-3.31,1.52,4.57,4.57,0,0,1-2.11,1.13,4.55,4.55,0,0,1-2.12-1.13A5.89,5.89,0,0,0,39,93a5.88,5.88,0,0,0-3.31,1.52,4.53,4.53,0,0,1-2.11,1.13,4.55,4.55,0,0,1-2.12-1.13A5.86,5.86,0,0,0,28.11,93a5.86,5.86,0,0,0-3.3,1.52,4.55,4.55,0,0,1-2.12,1.13,4.48,4.48,0,0,1-2.11-1.13A5.88,5.88,0,0,0,17.27,93,5.86,5.86,0,0,0,14,94.52a4.55,4.55,0,0,1-2.12,1.13,4.53,4.53,0,0,1-2.11-1.13,6.59,6.59,0,0,0-3-1.5v2a6.5,6.5,0,0,1,1.79,1.08,5.89,5.89,0,0,0,3.3,1.52,5.88,5.88,0,0,0,3.31-1.52A4.48,4.48,0,0,1,17.27,95a4.55,4.55,0,0,1,2.12,1.13,5.86,5.86,0,0,0,3.3,1.52A5.91,5.91,0,0,0,26,96.12,4.48,4.48,0,0,1,28.11,95a4.48,4.48,0,0,1,2.11,1.13,5.88,5.88,0,0,0,3.31,1.52,5.89,5.89,0,0,0,3.3-1.52A4.55,4.55,0,0,1,39,95a4.53,4.53,0,0,1,2.11,1.13,5.88,5.88,0,0,0,3.31,1.52,5.89,5.89,0,0,0,3.3-1.52A4.55,4.55,0,0,1,49.79,95a4.57,4.57,0,0,1,2.11,1.13,5.89,5.89,0,0,0,3.3,1.52,5.88,5.88,0,0,0,3.31-1.52A6.57,6.57,0,0,1,60.29,95Z"/><path class="cls-4" d="M60.29,97.67a6.41,6.41,0,0,0-3,1.5,4.65,4.65,0,0,1-2.12,1.13,4.67,4.67,0,0,1-2.11-1.13,5.83,5.83,0,0,0-3.3-1.53,5.83,5.83,0,0,0-3.31,1.53,4.67,4.67,0,0,1-2.11,1.13,4.65,4.65,0,0,1-2.12-1.13A5.83,5.83,0,0,0,39,97.64a5.83,5.83,0,0,0-3.31,1.53,4.62,4.62,0,0,1-2.11,1.13,4.65,4.65,0,0,1-2.12-1.13,5.8,5.8,0,0,0-3.3-1.53,5.8,5.8,0,0,0-3.3,1.53,4.65,4.65,0,0,1-2.12,1.13,4.58,4.58,0,0,1-2.11-1.13,5.83,5.83,0,0,0-3.31-1.53A5.8,5.8,0,0,0,14,99.17a4.65,4.65,0,0,1-2.12,1.13,4.62,4.62,0,0,1-2.11-1.13,6.4,6.4,0,0,0-3-1.5v2a6.44,6.44,0,0,1,1.79,1.07,5.83,5.83,0,0,0,3.3,1.53,5.83,5.83,0,0,0,3.31-1.53,4.58,4.58,0,0,1,2.11-1.13,4.65,4.65,0,0,1,2.12,1.13,5.8,5.8,0,0,0,3.3,1.53A5.86,5.86,0,0,0,26,100.76a4.58,4.58,0,0,1,2.11-1.13,4.58,4.58,0,0,1,2.11,1.13,5.83,5.83,0,0,0,3.31,1.53,5.83,5.83,0,0,0,3.3-1.53A4.65,4.65,0,0,1,39,99.63a4.62,4.62,0,0,1,2.11,1.13,5.83,5.83,0,0,0,3.31,1.53,5.83,5.83,0,0,0,3.3-1.53,4.65,4.65,0,0,1,2.12-1.13,4.67,4.67,0,0,1,2.11,1.13,5.83,5.83,0,0,0,3.3,1.53,5.83,5.83,0,0,0,3.31-1.53,6.27,6.27,0,0,1,1.78-1.07Z"/><polygon class="cls-5" points="113.81 42.28 59.29 42.28 44.1 42.28 33.1 42.28 26.21 60.3 37.33 60.3 20.64 103.8 35.83 103.8 52.52 60.3 113.81 60.3 113.81 42.28"/><polygon class="cls-3" points="35.48 110.94 52.99 67.45 51.09 65 35.48 103.8 35.48 110.94"/><rect class="cls-6" x="67.92" y="41.07" width="36.38" height="11.18"/><path class="cls-6" d="M39.12,19.71a7,7,0,0,0-5.94,7.58l1.39,13.78,1.12,11.18H67.92V41.07H109.8V10.15Z"/><polygon class="cls-6" points="92.28 39.7 109.8 39.7 109.8 10.58 87.35 14.44 92.28 39.7"/><rect class="cls-4" x="36.4" y="33.88" width="54.62" height="0.32"/><rect class="cls-4" x="36.4" y="25.74" width="53.49" height="0.32"/><path class="cls-6" d="M79.4,52.25,79,50.31l-2.34-8.74a2.54,2.54,0,0,0-2.44-1.87H52.79a2.54,2.54,0,0,0-2.44,1.87L48,50.31l-.25,1h0l-.26,1Z"/><rect class="cls-4" x="88.64" y="14.34" width="1.29" height="25.74" transform="translate(-3.56 17.58) rotate(-11.03)"/><polygon class="cls-4" points="78.59 40.9 73.67 15.63 74.44 15.38 79.36 40.65 78.59 40.9"/><polygon class="cls-4" points="64.97 38.78 60.97 18.32 61.73 18.07 65.74 38.53 64.97 38.78"/><polygon class="cls-4" points="51.91 39.06 48.15 19.85 48.91 19.6 52.68 38.81 51.91 39.06"/><rect class="cls-4" x="98.5" y="41.07" width="0.32" height="11.18"/><rect class="cls-4" x="104.14" y="41.07" width="0.32" height="11.18"/><rect class="cls-4" x="92.48" y="41.07" width="0.32" height="11.18"/><rect class="cls-4" x="85.96" y="38.97" width="0.32" height="13.28"/><path class="cls-4" d="M111.19,10c-.54-.18-72.63,9.88-74.09,9.88a4.45,4.45,0,0,0-1.58.56l-.32.2A4.33,4.33,0,0,0,34,22l0,0a4.74,4.74,0,0,0-.45,1.15c0,.13-.05.26-.07.39a4.42,4.42,0,0,0,0,1l0,.22,0,.35.11,1.06,0,.58.1.95.06.59.1,1,.05.43,1,10.48,0,.37.11,1.05.06.58.09,1,.06.59.1,1,0,.42.7,7h7.31l-.24-.83-.12-.4-.27-1-.13-.47-1.17-4.19-.16-.57-1.23-4.43v0l-.31-1.12-.15-.54-1.16-4.17L38.38,34l-.29-1.05L38,32.67l-.17-.62A6.11,6.11,0,0,1,38,28.19c.05-.14.11-.27.17-.4a6.23,6.23,0,0,1,2.94-3l.33-.14a6.51,6.51,0,0,1,1.11-.34l3.29-.66.43-.09,1-.2.57-.11,5.74-1.15.44-.09,1-.2.56-.11,5.74-1.16.46-.09,1-.2.55-.11L69.06,19l.48-.09,1-.2.55-.11,5.73-1.15.49-.1,1-.2.54-.11,5.73-1.15.5-.1,1-.19.53-.11,5.73-1.15.51-.1,1-.2.54-.1L100,12.81l.51-.11,1-.19.53-.1,5.72-1.16.52-.1,1-.2.52-.1,1.78-.36V9.86Z"/><path class="cls-4" d="M82.47,41.07h28.94V37.72l-3.48-.48-.21,0-1.2.06-.46,0-1,.06-.57,0-.95.06-.61,0-.94.06-.59,0-1,.06-.52,0-1.11.06-.35,0L80.2,38.85l-.43,0-1,.06-.55,0-1,.05-.57,0,.15.31.82,1.7h1L80,46.52l.15.59,1.27,5.14h2.3l-.56-2L83,49.63l-1.15-4.2L81.69,45l-.27-1-.13-.46-.19-.68h0a1.23,1.23,0,0,1-.06-.39A1.41,1.41,0,0,1,82.47,41.07Z"/><rect class="cls-4" x="57.86" y="44.46" width="0.49" height="8.18"/><rect class="cls-4" x="57.86" y="39.7" width="0.49" height="3.91"/><rect class="cls-4" x="58.35" y="39.7" width="0.18" height="3.91"/><rect class="cls-4" x="58.35" y="44.46" width="0.18" height="8.18"/><rect class="cls-4" x="57.68" y="44.46" width="0.18" height="8.18"/><rect class="cls-4" x="57.68" y="39.7" width="0.18" height="3.91"/><rect class="cls-4" x="68.56" y="39.7" width="0.49" height="3.91"/><rect class="cls-4" x="68.56" y="44.46" width="0.49" height="8.18"/><rect class="cls-4" x="69.05" y="39.7" width="0.18" height="3.91"/><rect class="cls-4" x="69.05" y="44.46" width="0.18" height="8.18"/><rect class="cls-4" x="68.38" y="39.7" width="0.18" height="3.91"/><rect class="cls-4" x="68.38" y="44.46" width="0.18" height="8.18"/><rect class="cls-4" x="58.53" y="43.79" width="9.85" height="0.49"/><rect class="cls-4" x="48.91" y="43.79" width="8.77" height="0.49"/><rect class="cls-4" x="69.23" y="43.79" width="8.45" height="0.49"/><rect class="cls-4" x="57.86" y="43.79" width="0.49" height="0.49"/><rect class="cls-4" x="58.35" y="43.79" width="0.18" height="0.49"/><rect class="cls-4" x="57.68" y="43.79" width="0.18" height="0.49"/><rect class="cls-4" x="68.56" y="43.79" width="0.49" height="0.49"/><rect class="cls-4" x="69.05" y="43.79" width="0.18" height="0.49"/><rect class="cls-4" x="68.38" y="43.79" width="0.18" height="0.49"/><rect class="cls-4" x="58.53" y="43.61" width="9.85" height="0.18"/><rect class="cls-4" x="48.91" y="43.61" width="8.77" height="0.18"/><rect class="cls-4" x="69.23" y="43.61" width="8.45" height="0.18"/><rect class="cls-4" x="57.86" y="43.61" width="0.49" height="0.18"/><rect class="cls-4" x="58.35" y="43.61" width="0.18" height="0.18"/><rect class="cls-4" x="57.68" y="43.61" width="0.18" height="0.18"/><rect class="cls-4" x="68.56" y="43.61" width="0.49" height="0.18"/><rect class="cls-4" x="69.05" y="43.61" width="0.18" height="0.18"/><rect class="cls-4" x="68.38" y="43.61" width="0.18" height="0.18"/><rect class="cls-4" x="69.23" y="44.28" width="8.45" height="0.18"/><rect class="cls-4" x="48.91" y="44.28" width="8.77" height="0.18"/><rect class="cls-4" x="58.53" y="44.28" width="9.85" height="0.18"/><rect class="cls-4" x="57.86" y="44.28" width="0.49" height="0.18"/><rect class="cls-4" x="58.35" y="44.28" width="0.18" height="0.18"/><rect class="cls-4" x="57.68" y="44.28" width="0.18" height="0.18"/><rect class="cls-4" x="68.56" y="44.28" width="0.49" height="0.18"/><rect class="cls-4" x="69.05" y="44.28" width="0.18" height="0.18"/><rect class="cls-4" x="68.38" y="44.28" width="0.18" height="0.18"/><rect class="cls-6" x="58.53" y="44.46" width="9.85" height="7.81"/><rect class="cls-4" x="60.78" y="44.28" width="0.18" height="7.99"/><rect class="cls-4" x="63.36" y="44.28" width="0.18" height="7.99"/><rect class="cls-4" x="65.95" y="44.28" width="0.18" height="7.99"/><rect class="cls-4" x="34.45" y="52.25" width="76.96" height="0.77"/><path class="cls-4" d="M77.77,41.07a4.46,4.46,0,0,0-4.31-3.31H52.79a4.46,4.46,0,0,0-4.31,3.31l-3,11.18h2l.26-1,.25-1,2.34-8.74a2.54,2.54,0,0,1,2.44-1.87H73.46a2.54,2.54,0,0,1,2.44,1.87l2.33,8.74.21,1,.2,1h2.12Z"/><line class="cls-7" x1="109.8" y1="37.5" x2="109.8" y2="10.58"/></svg>