<svg id="Layer_1" data-name="Layer 1" xmlns="http://www.w3.org/2000/svg" viewBox="0 0 121.68 146.78"><defs><style>.cls-1,.cls-3{fill:#2f3082;}.cls-2{fill:none;stroke:#2f3082;stroke-miterlimit:10;stroke-width:5.54px;}.cls-3{fill-rule:evenodd;}.cls-4{fill:#fff;}</style></defs><title>link-15</title><rect class="cls-1" x="19.88" y="100.27" width="77.2" height="4.84"/><polyline class="cls-2" points="33.15 2.77 2.77 2.77 2.77 33.15"/><polyline class="cls-2" points="88.53 118.91 118.91 118.91 118.91 88.53"/><polygon class="cls-3" points="70.04 130.85 60.84 146.78 51.64 130.85 70.04 130.85"/><rect class="cls-1" x="35.28" y="15.91" width="20.25" height="83.38"/><rect class="cls-4" x="36.99" y="18.64" width="1.78" height="3.06"/><rect class="cls-4" x="40" y="18.64" width="1.78" height="3.06"/><rect class="cls-4" x="43.01" y="18.64" width="1.78" height="3.06"/><rect class="cls-4" x="46.03" y="18.64" width="1.78" height="3.06"/><rect class="cls-4" x="49.04" y="18.64" width="1.78" height="3.06"/><rect class="cls-4" x="52.05" y="18.64" width="1.78" height="3.06"/><rect class="cls-4" x="36.99" y="22.82" width="1.78" height="3.06"/><rect class="cls-4" x="40" y="22.82" width="1.78" height="3.06"/><rect class="cls-4" x="43.01" y="22.82" width="1.78" height="3.06"/><rect class="cls-4" x="46.03" y="22.82" width="1.78" height="3.06"/><rect class="cls-4" x="49.04" y="22.82" width="1.78" height="3.06"/><rect class="cls-4" x="52.05" y="22.82" width="1.78" height="3.06"/><rect class="cls-4" x="36.99" y="26.99" width="1.78" height="3.06"/><rect class="cls-4" x="40" y="26.99" width="1.78" height="3.06"/><rect class="cls-4" x="43.01" y="26.99" width="1.78" height="3.06"/><rect class="cls-4" x="46.03" y="26.99" width="1.78" height="3.06"/><rect class="cls-4" x="49.04" y="26.99" width="1.78" height="3.06"/><rect class="cls-4" x="52.05" y="26.99" width="1.78" height="3.06"/><rect class="cls-4" x="36.99" y="31.16" width="1.78" height="3.06"/><rect class="cls-4" x="40" y="31.16" width="1.78" height="3.06"/><rect class="cls-4" x="43.01" y="31.16" width="1.78" height="3.06"/><rect class="cls-4" x="46.03" y="31.16" width="1.78" height="3.06"/><rect class="cls-4" x="49.04" y="31.16" width="1.78" height="3.06"/><rect class="cls-4" x="52.05" y="31.16" width="1.78" height="3.06"/><rect class="cls-4" x="36.99" y="35.33" width="1.78" height="3.06"/><rect class="cls-4" x="40" y="35.33" width="1.78" height="3.06"/><rect class="cls-4" x="43.01" y="35.33" width="1.78" height="3.06"/><rect class="cls-4" x="46.03" y="35.33" width="1.78" height="3.06"/><rect class="cls-4" x="49.04" y="35.33" width="1.78" height="3.06"/><rect class="cls-4" x="52.05" y="35.33" width="1.78" height="3.06"/><rect class="cls-4" x="36.99" y="39.5" width="1.78" height="3.06"/><rect class="cls-4" x="40" y="39.5" width="1.78" height="3.06"/><rect class="cls-4" x="43.01" y="39.5" width="1.78" height="3.06"/><rect class="cls-4" x="46.03" y="39.5" width="1.78" height="3.06"/><rect class="cls-4" x="49.04" y="39.5" width="1.78" height="3.06"/><rect class="cls-4" x="52.05" y="39.5" width="1.78" height="3.06"/><rect class="cls-4" x="36.99" y="43.67" width="1.78" height="3.06"/><rect class="cls-4" x="40" y="43.67" width="1.78" height="3.06"/><rect class="cls-4" x="43.01" y="43.67" width="1.78" height="3.06"/><rect class="cls-4" x="46.03" y="43.67" width="1.78" height="3.06"/><rect class="cls-4" x="49.04" y="43.67" width="1.78" height="3.06"/><rect class="cls-4" x="52.05" y="43.67" width="1.78" height="3.06"/><rect class="cls-4" x="36.99" y="47.84" width="1.78" height="3.06"/><rect class="cls-4" x="40" y="47.84" width="1.78" height="3.06"/><rect class="cls-4" x="43.01" y="47.84" width="1.78" height="3.06"/><rect class="cls-4" x="46.03" y="47.84" width="1.78" height="3.06"/><rect class="cls-4" x="49.04" y="47.84" width="1.78" height="3.06"/><rect class="cls-4" x="52.05" y="47.84" width="1.78" height="3.06"/><rect class="cls-4" x="36.99" y="52.02" width="1.78" height="3.06"/><rect class="cls-4" x="40" y="52.02" width="1.78" height="3.06"/><rect class="cls-4" x="43.01" y="52.02" width="1.78" height="3.06"/><rect class="cls-4" x="46.03" y="52.02" width="1.78" height="3.06"/><rect class="cls-4" x="49.04" y="52.02" width="1.78" height="3.06"/><rect class="cls-4" x="52.05" y="52.02" width="1.78" height="3.06"/><rect class="cls-4" x="36.99" y="56.19" width="1.78" height="3.06"/><rect class="cls-4" x="40" y="56.19" width="1.78" height="3.06"/><rect class="cls-4" x="43.01" y="56.19" width="1.78" height="3.06"/><rect class="cls-4" x="46.03" y="56.19" width="1.78" height="3.06"/><rect class="cls-4" x="49.04" y="56.19" width="1.78" height="3.06"/><rect class="cls-4" x="52.05" y="56.19" width="1.78" height="3.06"/><rect class="cls-4" x="36.99" y="60.36" width="1.78" height="3.06"/><rect class="cls-4" x="40" y="60.36" width="1.78" height="3.06"/><rect class="cls-4" x="43.01" y="60.36" width="1.78" height="3.06"/><rect class="cls-4" x="46.03" y="60.36" width="1.78" height="3.06"/><rect class="cls-4" x="49.04" y="60.36" width="1.78" height="3.06"/><rect class="cls-4" x="52.05" y="60.36" width="1.78" height="3.06"/><rect class="cls-4" x="36.99" y="64.53" width="1.78" height="3.06"/><rect class="cls-4" x="40" y="64.53" width="1.78" height="3.06"/><rect class="cls-4" x="43.01" y="64.53" width="1.78" height="3.06"/><rect class="cls-4" x="46.03" y="64.53" width="1.78" height="3.06"/><rect class="cls-4" x="49.04" y="64.53" width="1.78" height="3.06"/><rect class="cls-4" x="52.05" y="64.53" width="1.78" height="3.06"/><rect class="cls-4" x="36.99" y="68.7" width="1.78" height="3.06"/><rect class="cls-4" x="40" y="68.7" width="1.78" height="3.06"/><rect class="cls-4" x="43.01" y="68.7" width="1.78" height="3.06"/><rect class="cls-4" x="46.03" y="68.7" width="1.78" height="3.06"/><rect class="cls-4" x="49.04" y="68.7" width="1.78" height="3.06"/><rect class="cls-4" x="52.05" y="68.7" width="1.78" height="3.06"/><rect class="cls-4" x="36.99" y="72.87" width="1.78" height="3.06"/><rect class="cls-4" x="40" y="72.87" width="1.78" height="3.06"/><rect class="cls-4" x="43.01" y="72.87" width="1.78" height="3.06"/><rect class="cls-4" x="46.03" y="72.87" width="1.78" height="3.06"/><rect class="cls-4" x="49.04" y="72.87" width="1.78" height="3.06"/><rect class="cls-4" x="52.05" y="72.87" width="1.78" height="3.06"/><rect class="cls-4" x="36.99" y="77.05" width="1.78" height="3.06"/><rect class="cls-4" x="40" y="77.05" width="1.78" height="3.06"/><rect class="cls-4" x="43.01" y="77.05" width="1.78" height="3.06"/><rect class="cls-4" x="46.03" y="77.05" width="1.78" height="3.06"/><rect class="cls-4" x="49.04" y="77.05" width="1.78" height="3.06"/><rect class="cls-4" x="52.05" y="77.05" width="1.78" height="3.06"/><rect class="cls-4" x="36.99" y="81.22" width="1.78" height="3.06"/><rect class="cls-4" x="40" y="81.22" width="1.78" height="3.06"/><rect class="cls-4" x="43.01" y="81.22" width="1.78" height="3.06"/><rect class="cls-4" x="46.03" y="81.22" width="1.78" height="3.06"/><rect class="cls-4" x="49.04" y="81.22" width="1.78" height="3.06"/><rect class="cls-4" x="52.05" y="81.22" width="1.78" height="3.06"/><rect class="cls-4" x="36.99" y="85.39" width="1.78" height="3.06"/><rect class="cls-4" x="40" y="85.39" width="1.78" height="3.06"/><rect class="cls-4" x="43.01" y="85.39" width="1.78" height="3.06"/><rect class="cls-4" x="46.03" y="85.39" width="1.78" height="3.06"/><rect class="cls-4" x="49.04" y="85.39" width="1.78" height="3.06"/><rect class="cls-4" x="52.05" y="85.39" width="1.78" height="3.06"/><rect class="cls-4" x="42.87" y="93.77" width="2.37" height="5.06"/><rect class="cls-4" x="45.58" y="93.77" width="2.37" height="5.06"/><rect class="cls-1" x="33.76" y="14.18" width="23.3" height="1.73"/><rect class="cls-1" x="36.97" y="10.71" width="16.88" height="3.47"/><rect class="cls-1" x="60.91" y="40.81" width="18.25" height="58.48"/><rect class="cls-1" x="61.84" y="37.63" width="15.9" height="3.19"/><rect class="cls-1" x="63.32" y="34.79" width="10" height="2.83"/><rect class="cls-1" x="64.32" y="28.88" width="1.92" height="5.92"/><rect class="cls-4" x="62.11" y="42.32" width="1.92" height="1.92"/><rect class="cls-4" x="70.17" y="42.32" width="1.92" height="1.92"/><rect class="cls-4" x="72.88" y="42.32" width="1.92" height="1.92"/><rect class="cls-4" x="64.79" y="44.82" width="1.92" height="1.92"/><rect class="cls-4" x="72.85" y="44.82" width="1.92" height="1.92"/><rect class="cls-4" x="75.56" y="44.82" width="1.92" height="1.92"/><rect class="cls-4" x="67.49" y="44.82" width="1.92" height="1.92"/><rect class="cls-4" x="62.11" y="47.32" width="1.92" height="1.92"/><rect class="cls-4" x="70.17" y="47.32" width="1.92" height="1.92"/><rect class="cls-4" x="64.79" y="47.32" width="1.92" height="1.92"/><rect class="cls-4" x="75.56" y="47.32" width="1.92" height="1.92"/><rect class="cls-4" x="62.11" y="49.82" width="1.92" height="1.92"/><rect class="cls-4" x="72.85" y="49.82" width="1.92" height="1.92"/><rect class="cls-4" x="67.49" y="49.82" width="1.92" height="1.92"/><rect class="cls-4" x="64.79" y="52.61" width="1.92" height="1.92"/><rect class="cls-4" x="70.17" y="52.61" width="1.92" height="1.92"/><rect class="cls-4" x="75.56" y="52.61" width="1.92" height="1.92"/><rect class="cls-4" x="64.79" y="55.11" width="1.92" height="1.92"/><rect class="cls-4" x="72.85" y="55.11" width="1.92" height="1.92"/><rect class="cls-4" x="75.56" y="55.11" width="1.92" height="1.92"/><rect class="cls-4" x="67.49" y="52.61" width="1.92" height="1.92"/><rect class="cls-4" x="62.11" y="57.61" width="1.92" height="1.92"/><rect class="cls-4" x="70.17" y="57.61" width="1.92" height="1.92"/><rect class="cls-4" x="64.79" y="57.61" width="1.92" height="1.92"/><rect class="cls-4" x="75.56" y="57.61" width="1.92" height="1.92"/><rect class="cls-4" x="62.11" y="60.11" width="1.92" height="1.92"/><rect class="cls-4" x="72.85" y="60.11" width="1.92" height="1.92"/><rect class="cls-4" x="67.49" y="60.11" width="1.92" height="1.92"/><rect class="cls-4" x="62.11" y="62.61" width="1.92" height="1.92"/><rect class="cls-4" x="70.17" y="62.61" width="1.92" height="1.92"/><rect class="cls-4" x="72.88" y="62.61" width="1.92" height="1.92"/><rect class="cls-4" x="64.79" y="65.11" width="1.92" height="1.92"/><rect class="cls-4" x="72.85" y="65.11" width="1.92" height="1.92"/><rect class="cls-4" x="75.56" y="65.11" width="1.92" height="1.92"/><rect class="cls-4" x="67.49" y="65.11" width="1.92" height="1.92"/><rect class="cls-4" x="62.11" y="67.61" width="1.92" height="1.92"/><rect class="cls-4" x="70.17" y="67.61" width="1.92" height="1.92"/><rect class="cls-4" x="64.79" y="67.61" width="1.92" height="1.92"/><rect class="cls-4" x="75.56" y="67.61" width="1.92" height="1.92"/><rect class="cls-4" x="62.11" y="70.11" width="1.92" height="1.92"/><rect class="cls-4" x="72.85" y="70.11" width="1.92" height="1.92"/><rect class="cls-4" x="67.49" y="70.11" width="1.92" height="1.92"/><rect class="cls-4" x="64.79" y="72.9" width="1.92" height="1.92"/><rect class="cls-4" x="70.17" y="72.9" width="1.92" height="1.92"/><rect class="cls-4" x="75.56" y="72.9" width="1.92" height="1.92"/><rect class="cls-4" x="70.17" y="75.4" width="1.92" height="1.92"/><rect class="cls-4" x="72.85" y="75.4" width="1.92" height="1.92"/><rect class="cls-4" x="62.11" y="75.4" width="1.92" height="1.92"/><rect class="cls-4" x="67.49" y="72.9" width="1.92" height="1.92"/><rect class="cls-4" x="62.11" y="77.9" width="1.92" height="1.92"/><rect class="cls-4" x="70.17" y="77.9" width="1.92" height="1.92"/><rect class="cls-4" x="64.79" y="77.9" width="1.92" height="1.92"/><rect class="cls-4" x="75.56" y="77.9" width="1.92" height="1.92"/><rect class="cls-4" x="62.11" y="80.4" width="1.92" height="1.92"/><rect class="cls-4" x="72.85" y="80.4" width="1.92" height="1.92"/><rect class="cls-4" x="67.49" y="80.4" width="1.92" height="1.92"/><rect class="cls-4" x="70.17" y="82.9" width="1.92" height="1.92"/><rect class="cls-4" x="72.85" y="82.9" width="1.92" height="1.92"/><rect class="cls-4" x="67.49" y="82.9" width="1.92" height="1.92"/><rect class="cls-4" x="62.11" y="85.4" width="1.92" height="1.92"/><rect class="cls-4" x="70.17" y="85.4" width="1.92" height="1.92"/><rect class="cls-4" x="64.79" y="85.4" width="1.92" height="1.92"/><rect class="cls-4" x="75.56" y="85.4" width="1.92" height="1.92"/><rect class="cls-4" x="62.11" y="87.9" width="1.92" height="1.92"/><rect class="cls-4" x="72.85" y="87.9" width="1.92" height="1.92"/><rect class="cls-4" x="75.56" y="87.9" width="1.92" height="1.92"/><rect class="cls-4" x="67.46" y="93.77" width="2.37" height="5.06"/><rect class="cls-4" x="70.17" y="93.77" width="2.37" height="5.06"/></svg>