<svg id="Layer_1" data-name="Layer 1" xmlns="http://www.w3.org/2000/svg" viewBox="0 0 121.68 146.78"><defs><style>.cls-1,.cls-3,.cls-6{fill:#2f3082;}.cls-2,.cls-4,.cls-5{fill:none;stroke:#2f3082;}.cls-2,.cls-4,.cls-6{stroke-miterlimit:10;}.cls-2{stroke-width:5.54px;}.cls-3{fill-rule:evenodd;}.cls-4{stroke-width:1.35px;}.cls-5{stroke-linecap:round;stroke-linejoin:round;stroke-width:2px;}.cls-6{stroke:#fff;stroke-width:3px;}.cls-7,.cls-8{font-size:24px;font-family:ThaiSansNeue-SemiBold, ThaiSans Neue;font-weight:600;}.cls-7{fill:#231f20;}.cls-8{fill:#fff;}</style></defs><title>link-5</title><rect class="cls-1" x="13.11" y="87.09" width="95.67" height="5.29"/><polyline class="cls-2" points="33.15 2.77 2.77 2.77 2.77 33.15"/><polyline class="cls-2" points="88.53 118.91 118.91 118.91 118.91 88.53"/><polygon class="cls-3" points="70.04 130.85 60.84 146.78 51.64 130.85 70.04 130.85"/><path class="cls-4" d="M101.38,80.82h4.78a2.39,2.39,0,0,0,2.24-1.33,3.21,3.21,0,0,0,.33-1.21V43.55a2.06,2.06,0,0,0-.69-1.62,2.63,2.63,0,0,0-1.92-.52h-4.74v1.93h4.88l.06,0a.82.82,0,0,1,.46.07.55.55,0,0,1,0,.16V78.22a1,1,0,0,1-.13.42c-.07.12-.17.25-.51.25h-4.78Z"/><path class="cls-1" d="M89.26,49v-2.2h1.57V41.64a5.61,5.61,0,0,1,11.22,0v5.15h1.42V49h-1.42v2.86h1.42v2.2h-1.42v31H90.83v-31H89.26v-2.2h1.57V49Z"/><path class="cls-1" d="M79.5,75.22V51H77.72v-2.5H79.5V45.25H77.72v-2.5H79.5V36.92A6.35,6.35,0,0,1,92,35.44a7.2,7.2,0,0,0-1.71,1.26,7,7,0,0,0-2,4.94v3.77H86.7v10h1.57V85.06H73.5V75.22Z"/><polyline class="cls-5" points="84.81 30.34 84.81 27.12 62.2 27.12 62.2 47.62 65.23 47.62 65.23 55.35"/><path class="cls-1" d="M15.14,55.35c0-.94,5.84-1.71,13-1.71,2,0,3.82.06,5.49.16,4.45.27,7.54.86,7.54,1.55s-3.09,1.28-7.54,1.55c-1.67.11-3.53.16-5.49.16C21,57.06,15.14,56.3,15.14,55.35Z"/><path class="cls-1" d="M40.51,81.36a4.94,4.94,0,0,0,.69-.26v2.26a4.94,4.94,0,0,1-.69.26,18.68,18.68,0,0,1-3,.58,75.66,75.66,0,0,1-9.36.51,75.78,75.78,0,0,1-9.36-.51,18.52,18.52,0,0,1-3-.58,4.57,4.57,0,0,1-.7-.26V81.1a4.57,4.57,0,0,0,.7.26,18.52,18.52,0,0,0,3,.58,75.78,75.78,0,0,0,9.36.51,75.66,75.66,0,0,0,9.36-.51A18.68,18.68,0,0,0,40.51,81.36Z"/><path class="cls-1" d="M24.82,67.13l-.32.65-.56,1.14h1.49Zm0,0-.32.65-.56,1.14h1.49Zm0,0-.32.65-.56,1.14h1.49Zm0,0-.32.65-.56,1.14h1.49Zm15.69-10a19.69,19.69,0,0,1-3,.59c-1.14.15-2.45.27-3.87.35-1.71.1-3.57.16-5.49.16a75.78,75.78,0,0,1-9.36-.51,19.51,19.51,0,0,1-3-.59,4.57,4.57,0,0,1-.7-.26V79.39c0,.94,5.84,1.71,13,1.71s13-.77,13-1.71V56.82A4.94,4.94,0,0,1,40.51,57.08Zm-20.44,10,0,.71-.12,2.72V71c0,.19,0,.38,0,.59H18.68l.09-1.13.08-1.68.06-1.66h-.76l-.89,0c0-.37,0-.66,0-.85h4.46c0,.37,0,.65,0,.85-.47,0-.91,0-1.34,0Zm6.87,4.46h-.68c-.06-.23-.16-.54-.29-.93s-.24-.7-.34-1h-2c-.3.62-.59,1.24-.88,1.88h-1.3c.27-.48.58-1.06.94-1.76l1-2c.32-.61.58-1.13.79-1.57H25.6l.55,1.58,1.2,3.27.17.43Zm6.41-3.85-.12,2.43,0,1.43H31.77c-.12-.23-.22-.4-.29-.51s-.33-.52-.68-1L30,68.69c-.25-.4-.46-.75-.64-1,0,.42,0,1.19-.09,2.32,0,.46,0,1,0,1.64H28.08c.05-.46.09-1,.11-1.56l.09-1.89c0-.68,0-1.29,0-1.83h1.43c.29.51.7,1.17,1.21,2s.93,1.49,1.24,2l.14-3.59c0-.08,0-.23,0-.43h1.09Zm2.19,3.15v.71H34.31c0-.38,0-.73.07-1,0-.1,0-.19,0-.28,0-.52.07-1.26.11-2.22,0-.65,0-1.11,0-1.39v-.36h1.23l-.12,2.09Zm2.86.7h-.75l-.25-.39h0l-.24-.36-1-1.5-.39-.54.87-1.07.8-1c.06-.07.16-.2.29-.39H39l-1.78,2.09-.3.38.24.34.77,1,1,1.24.17.22ZM24.5,67.78l-.56,1.14h1.49l-.61-1.79Zm.32-.65-.32.65-.56,1.14h1.49Zm0,0-.32.65-.56,1.14h1.49Z"/><path class="cls-1" d="M52.34,67.13l-.31.65-.56,1.14H53Zm0,0-.31.65-.56,1.14H53Zm0,0-.31.65-.56,1.14H53Zm0,0-.31.65-.56,1.14H53ZM68,57.08a19.69,19.69,0,0,1-3,.59c-1.14.15-2.45.27-3.87.35-1.7.1-3.56.16-5.49.16a75.49,75.49,0,0,1-9.35-.51,19.69,19.69,0,0,1-3-.59,4.16,4.16,0,0,1-.69-.26V79.39c0,.94,5.83,1.71,13,1.71s13-.77,13-1.71V56.82A4.94,4.94,0,0,1,68,57.08Zm-20.44,10,0,.71-.11,2.72v1H46.21l.08-1.13.09-1.68,0-1.66h-.76l-.89,0c0-.37,0-.66,0-.85h4.46c0,.37,0,.65,0,.85-.46,0-.91,0-1.34,0Zm6.87,4.46h-.67q-.09-.34-.3-.93c-.13-.39-.24-.7-.33-1h-2c-.3.62-.59,1.24-.88,1.88h-1.3c.27-.48.59-1.06,1-1.76l1-2c.32-.61.58-1.13.79-1.57h1.43l.56,1.58,1.2,3.27.16.43Zm6.41-3.85-.12,2.43,0,1.43H59.3l-.3-.51c-.1-.17-.33-.52-.67-1-.23-.35-.51-.8-.85-1.35l-.65-1c0,.42,0,1.19-.09,2.32,0,.46,0,1,0,1.64H55.6c0-.46.09-1,.11-1.56l.09-1.89c0-.68.05-1.29.05-1.83h1.43c.3.51.7,1.17,1.21,2s.93,1.49,1.24,2l.14-3.59c0-.08,0-.23,0-.43H61Zm2.2,3.15v0l0,.69H61.83c0-.38.06-.73.08-1,0-.1,0-.19,0-.28,0-.52.07-1.26.11-2.22,0-.65,0-1.11,0-1.39v-.36h1.22l-.12,2.09Zm2.85.7h-.75l-.25-.39h0l-.25-.37-1.05-1.5-.39-.54.88-1.07.8-1,.28-.39h1.36l-1.78,2.09-.3.38.25.34c0,.05.29.39.76,1l1,1.24.17.22ZM52,67.78l-.56,1.14H53l-.61-1.79Zm.31-.65-.31.65-.56,1.14H53Zm0,0-.31.65-.56,1.14H53Z"/><path class="cls-1" d="M68.72,81.1v2.26a4.94,4.94,0,0,1-.69.26,18.68,18.68,0,0,1-3,.58,75.66,75.66,0,0,1-9.36.51,75.49,75.49,0,0,1-9.35-.51,18.68,18.68,0,0,1-3-.58,4.16,4.16,0,0,1-.69-.26V81.1a4.16,4.16,0,0,0,.69.26,18.68,18.68,0,0,0,3,.58,75.49,75.49,0,0,0,9.35.51,75.66,75.66,0,0,0,9.36-.51,18.68,18.68,0,0,0,3-.58A4.94,4.94,0,0,0,68.72,81.1Z"/><path class="cls-1" d="M68.72,55.35c0,.69-3.09,1.28-7.54,1.55-1.67.11-3.53.16-5.49.16-7.19,0-13-.76-13-1.71s5.83-1.71,13-1.71c2,0,3.82.06,5.49.16C65.63,54.07,68.72,54.66,68.72,55.35Z"/><path class="cls-1" d="M68.72,55.35c0,.69-3.09,1.28-7.54,1.55-1.67.11-3.53.16-5.49.16-7.19,0-13-.76-13-1.71s5.83-1.71,13-1.71c2,0,3.82.06,5.49.16C65.63,54.07,68.72,54.66,68.72,55.35Z"/><rect class="cls-6" x="27.45" y="83.23" width="67" height="23"/><text class="cls-7" transform="translate(51.03 101.72)">Oil</text><text class="cls-8" transform="translate(51.03 101.72)">Oil</text></svg>