<svg id="Layer_1" data-name="Layer 1" xmlns="http://www.w3.org/2000/svg" viewBox="0 0 121.68 146.78"><defs><style>.cls-1{fill:none;stroke:#2f3082;stroke-miterlimit:10;stroke-width:5.54px;}.cls-2,.cls-3{fill:#2f3082;}.cls-2{fill-rule:evenodd;}.cls-4,.cls-5{font-size:24px;font-family:ThaiSansNeue-SemiBold, ThaiSans Neue;font-weight:600;}.cls-4{fill:#231f20;}.cls-5,.cls-6{fill:#fff;}</style></defs><title>link-18</title><polyline class="cls-1" points="33.15 2.77 2.77 2.77 2.77 33.15"/><polyline class="cls-1" points="88.53 118.91 118.91 118.91 118.91 88.53"/><polygon class="cls-2" points="70.04 130.85 60.84 146.78 51.64 130.85 70.04 130.85"/><rect class="cls-3" x="19.98" y="101.21" width="81.71" height="4"/><rect class="cls-3" x="27.44" y="21.65" width="67" height="23"/><text class="cls-4" transform="translate(36.88 40.14)">HOTEL</text><text class="cls-5" transform="translate(36.88 40.14)">HOTEL</text><rect class="cls-3" x="41.4" y="54.7" width="39.08" height="44.04"/><rect class="cls-6" x="46.08" y="60.27" width="3.16" height="3.16"/><rect class="cls-6" x="51.39" y="60.27" width="3.16" height="3.16"/><rect class="cls-6" x="56.7" y="60.27" width="3.16" height="3.16"/><rect class="cls-6" x="62.01" y="60.27" width="3.16" height="3.16"/><rect class="cls-6" x="67.33" y="60.27" width="3.16" height="3.16"/><rect class="cls-6" x="72.64" y="60.27" width="3.16" height="3.16"/><rect class="cls-6" x="46.08" y="65.88" width="3.16" height="3.16"/><rect class="cls-6" x="51.39" y="65.88" width="3.16" height="3.16"/><rect class="cls-6" x="56.7" y="65.88" width="3.16" height="3.16"/><rect class="cls-6" x="62.01" y="65.88" width="3.16" height="3.16"/><rect class="cls-6" x="67.33" y="65.88" width="3.16" height="3.16"/><rect class="cls-6" x="72.64" y="65.88" width="3.16" height="3.16"/><rect class="cls-6" x="46.08" y="71.5" width="3.16" height="3.16"/><rect class="cls-6" x="51.39" y="71.5" width="3.16" height="3.16"/><rect class="cls-6" x="56.7" y="71.5" width="3.16" height="3.16"/><rect class="cls-6" x="62.01" y="71.5" width="3.16" height="3.16"/><rect class="cls-6" x="67.33" y="71.5" width="3.16" height="3.16"/><rect class="cls-6" x="72.64" y="71.5" width="3.16" height="3.16"/><rect class="cls-6" x="46.08" y="77.11" width="3.16" height="3.16"/><rect class="cls-6" x="51.39" y="77.11" width="3.16" height="3.16"/><rect class="cls-6" x="56.7" y="77.11" width="3.16" height="3.16"/><rect class="cls-6" x="62.01" y="77.11" width="3.16" height="3.16"/><rect class="cls-6" x="67.33" y="77.11" width="3.16" height="3.16"/><rect class="cls-6" x="72.64" y="77.11" width="3.16" height="3.16"/><rect class="cls-6" x="48.47" y="84.96" width="24.95" height="2.94"/><rect class="cls-6" x="50.98" y="86.43" width="3.04" height="12.31"/><rect class="cls-6" x="67.87" y="86.43" width="3.04" height="12.31"/><rect class="cls-3" x="38.03" y="49.67" width="45.82" height="2.94"/><polygon class="cls-3" points="100.25 98.74 83.85 98.74 83.85 63.43 100.25 68.27 100.25 98.74"/><rect class="cls-6" x="87.81" y="69.04" width="3.16" height="3.16"/><rect class="cls-6" x="93.13" y="69.04" width="3.16" height="3.16"/><rect class="cls-6" x="87.81" y="74.66" width="3.16" height="3.16"/><rect class="cls-6" x="93.13" y="74.66" width="3.16" height="3.16"/><rect class="cls-6" x="87.81" y="80.27" width="3.16" height="3.16"/><rect class="cls-6" x="93.13" y="80.27" width="3.16" height="3.16"/><rect class="cls-6" x="87.81" y="85.89" width="3.16" height="3.16"/><rect class="cls-6" x="93.13" y="85.89" width="3.16" height="3.16"/><polygon class="cls-3" points="21.63 98.74 38.03 98.74 38.03 63.43 21.63 68.27 21.63 98.74"/><rect class="cls-6" x="30.9" y="69.04" width="3.16" height="3.16"/><rect class="cls-6" x="25.59" y="69.04" width="3.16" height="3.16"/><rect class="cls-6" x="30.9" y="74.66" width="3.16" height="3.16"/><rect class="cls-6" x="25.59" y="74.66" width="3.16" height="3.16"/><rect class="cls-6" x="30.9" y="80.27" width="3.16" height="3.16"/><rect class="cls-6" x="25.59" y="80.27" width="3.16" height="3.16"/><rect class="cls-6" x="30.9" y="85.89" width="3.16" height="3.16"/><rect class="cls-6" x="25.59" y="85.89" width="3.16" height="3.16"/></svg>