<svg id="Layer_1" data-name="Layer 1" xmlns="http://www.w3.org/2000/svg" xmlns:xlink="http://www.w3.org/1999/xlink" viewBox="0 0 121.68 146.78"><defs><style>.cls-1,.cls-2,.cls-7{fill:none;}.cls-2,.cls-7{stroke:#2f3082;}.cls-2,.cls-6{stroke-miterlimit:10;}.cls-2{stroke-width:5.54px;}.cls-3,.cls-4{fill:#2f3082;}.cls-3{fill-rule:evenodd;}.cls-5{clip-path:url(#clip-path);}.cls-6,.cls-8{fill:#fff;}.cls-6{stroke:#272361;stroke-width:0.2px;}.cls-7{stroke-linecap:round;stroke-linejoin:round;stroke-width:1.5px;}</style><clipPath id="clip-path"><rect class="cls-1" x="16.5" y="30.91" width="88.67" height="70.5"/></clipPath></defs><title>link-3</title><polyline class="cls-2" points="33.15 2.77 2.77 2.77 2.77 33.15"/><polyline class="cls-2" points="88.53 118.91 118.91 118.91 118.91 88.53"/><polygon class="cls-3" points="70.04 130.85 60.84 146.78 51.64 130.85 70.04 130.85"/><rect class="cls-4" x="13.3" y="27.59" width="95.09" height="77.34" rx="2.79"/><g class="cls-5"><rect class="cls-6" x="16.5" y="30.91" width="88.67" height="70.5"/><line class="cls-7" x1="70.93" y1="94.57" x2="80.14" y2="103.46"/><line class="cls-7" x1="64.64" y1="88.49" x2="65.9" y2="89.71"/><line class="cls-7" x1="42.09" y1="103.46" x2="50.74" y2="95.04"/><polyline class="cls-7" points="11.81 82.06 30.11 100.16 26.55 103.45"/><line class="cls-7" x1="89.26" y1="56.68" x2="108.18" y2="37.76"/><polyline class="cls-7" points="108.18 85.02 93.44 99.77 69.87 76.07 75.88 70.05"/><polyline class="cls-7" points="82.67 88.94 105.28 66.85 92.18 53.75"/><polyline class="cls-7" points="12.56 72.19 35.08 95 53.54 76.83 46.92 70.45"/><line class="cls-7" x1="63.67" y1="45.51" x2="83.56" y2="25.68"/><polyline class="cls-7" points="57.19 63.3 51.47 57.67 57.03 52.12"/><line class="cls-7" x1="77.09" y1="53.64" x2="67.69" y2="62.73"/><line class="cls-7" x1="105.97" y1="25.68" x2="84.59" y2="46.38"/><path class="cls-7" d="M26,58.2a14.15,14.15,0,1,1,6,.48"/><path class="cls-7" d="M24.57,69A24.93,24.93,0,1,1,51.49,57.68"/></g><path class="cls-4" d="M77.84,61.55l-.1.93,0,.27c-3.72.82-7.54,1.47-11.41,1.94a129.22,129.22,0,0,1-15.66,1q-3.23,0-6.44-.16l-2.89-1.26A124.11,124.11,0,0,0,77.84,61.55Z"/><path class="cls-4" d="M44.45,68.32a194,194,0,0,0,33-2.84v.07l0,.3-.06.51,0,.32c-4.38.73-8.87,1.33-13.41,1.77-6.38.62-12.92.94-19.43,1Z"/><rect class="cls-8" x="26.28" y="66" width="18.05" height="16.05"/><path class="cls-4" d="M41.65,64.1l-2-1.1-4.38-2.4-1.8,1-1.06.58L25.49,66V83.23H45V66Zm-4,16.69H27.62V78.72H37.69Zm0-3.59H27.62V75.12H37.69Zm0-3.59H27.62V71.53H37.69Zm0-3.67H27.62V67.87H37.69ZM43.3,80.79H39.14V78.72H43.3Zm0-3.59H39.14V75.12H43.3Zm0-3.59H39.14V71.53H43.3Zm0-3.67H39.14V67.87H43.3Z"/><path class="cls-4" d="M32,66H26.28c.4-3.46.81-6.93,1.21-10.39h3.29C31.18,59.07,31.59,62.54,32,66Z"/><path class="cls-4" d="M28.44,55.07A7.14,7.14,0,0,1,27,52.5c-.49-1.7.53-2.75,1.24-4.2a2.63,2.63,0,0,0,.28-2.11c-.28-.7-1.16-.92-1.8-1.2,1.45-.07,3.56.46,3.77,2.19s-1.51,3.1-2.15,4.51a3.87,3.87,0,0,0-.1,3.06s0,.07.07.14Z"/><path class="cls-4" d="M29.75,54.89a3,3,0,0,1,.1-3.42c.57-.67,1.41-1.09,1.69-2a2.48,2.48,0,0,0,.08-1c0-.11-.39-.91-.32-.95l0,0c1.52.7,2.33,2.39,1,3.69-.59.57-1.33,1-1.9,1.62a3.8,3.8,0,0,0-.67,1.8v.07Z"/><polyline class="cls-8" points="78.96 47.97 78.93 48.28 76.37 79.55 89.12 79.55 86.62 47.97"/><path class="cls-4" d="M89.78,78.89l-.56-6.75v-.27l0-.58,0-.26-.54-6.75-.06-.62,0-.48h.08l-.08-.06-.55-6.69,0-.31,0-.49,0-.3-.64-7.82h-8.7l-.36,4.33-.1,1.22-.18,2.27,0,.3v.09l0,.41,0,.3,0,.5-.51,6.25,0,.28,0,.54,0,.28L76.59,71l0,.26,0,.58,0,.27-.57,7-.07.87h14ZM88,70.44l-4.32-3.11,3.83-2.89ZM78.74,71l4-3,4.18,3Zm8,1.11-3.9,2.51L79,72.14Zm-7.48-9,3.68-3,3.83,3Zm6.59,1.1-3.14,2.37-3.29-2.37ZM83,58.76l-3-2.33H85.8Zm-3.18-3.43,3.09-2.9L86,55.33Zm2.3,4.15-3.68,3L78.84,57Zm-.27,7.87-4.06,3.06.47-5.66Zm5.51-5.16-3.48-2.73,3-2.49Zm-.63-7.69-3-2.83,2.58-2.42Zm-1.37-5.89-2.45,2.3-2.45-2.3Zm-6.11,4,.09-1.15.18-2.22,2.58,2.42L79,54.5ZM77.57,72.55l4.27,2.75-4.75,3.07Zm.75,6.34L82.86,76l4.54,2.93Zm5.56-3.59,4.27-2.75.48,5.82Z"/><rect class="cls-8" x="53.04" y="91.71" width="8.75" height="6.56"/><rect class="cls-8" x="55.29" y="85.4" width="6.5" height="5.59"/><path class="cls-4" d="M51.9,91v9H69.79V91Zm8.19,7h-6V96h6Zm0-3.25h-6v-2h6Z"/><path class="cls-4" d="M63.87,86.63v-.92H62.29V85H54.83v.67H53.56v.92h1.27v1H53.56v.92h1.27v.89H53.56v.92h1.27V91h7.46v-.66h1.58V89.4H62.29v-.89h1.58v-.92H62.29v-1Zm-2.72,3.69H56V89.4h5.19Zm0-1.81H56v-.92h5.19Zm0-1.88H56v-.92h5.19Z"/><path class="cls-4" d="M67.83,52.68v2.48h2.35a2,2,0,0,0,1.95-1.95v-5H69.65v4.42Z"/><path class="cls-4" d="M58.1,46.7V59.4h9.73V49.54l-5.11-1.49V45.34H60.24v2Zm5.59,8.87h2.64v1.11H63.69Zm0-2.22h2.64v1.12H63.69Zm0-2.22h2.64v1.11H63.69Zm-4.06,4.44h2.65v1.11H59.63Zm0-2.22h2.65v1.12H59.63Zm0-2.22h2.65v1.11H59.63Z"/><path class="cls-4" d="M70.05,42.51c0,1,.87,1.41,1.46,2A1.76,1.76,0,0,1,72,46.4a2.12,2.12,0,0,1-.73,1.17,4.25,4.25,0,0,0,2.35-1.88,1.43,1.43,0,0,0-.34-1.43A9.24,9.24,0,0,0,72,43.13c-.81-.69-1.52-1.46-.91-2.47A2.21,2.21,0,0,0,70.05,42.51Z"/><path class="cls-4" d="M67.74,44.27c.3.72,1.07.76,1.7,1a1.41,1.41,0,0,1,.91,1.23,1.75,1.75,0,0,1-.17,1.08,3.42,3.42,0,0,0,1.14-2.11,1.15,1.15,0,0,0-.69-.95,8,8,0,0,0-1.28-.43c-.8-.25-1.57-.61-1.43-1.54A1.76,1.76,0,0,0,67.74,44.27Z"/></svg>