<svg id="Layer_1" data-name="Layer 1" xmlns="http://www.w3.org/2000/svg" viewBox="0 0 121.68 146.78"><defs><style>.cls-1{fill:none;stroke-miterlimit:10;stroke-width:5.54px;}.cls-1,.cls-4{stroke:#2f3082;}.cls-2,.cls-3{fill:#2f3082;}.cls-2{fill-rule:evenodd;}.cls-4,.cls-5{fill:#fff;}.cls-4{stroke-linecap:round;stroke-linejoin:round;stroke-width:2px;}</style></defs><title>link-1</title><polyline class="cls-1" points="33.15 2.77 2.77 2.77 2.77 33.15"/><polyline class="cls-1" points="88.53 118.91 118.91 118.91 118.91 88.53"/><polygon class="cls-2" points="70.04 130.85 60.84 146.78 51.64 130.85 70.04 130.85"/><path class="cls-3" d="M101.8,52.39a.67.67,0,0,1,.72.6v8.68a.67.67,0,0,1-.72.6H100a.66.66,0,0,1-.71-.6V53a.66.66,0,0,1,.71-.6Z"/><rect class="cls-3" x="100.46" y="32.09" width="0.88" height="22.97"/><rect class="cls-3" x="54.08" y="17.05" width="1.02" height="58.83"/><path class="cls-3" d="M55.43,17.05a.46.46,0,0,1-.42.48h-.85a.45.45,0,0,1-.41-.48h0a.44.44,0,0,1,.41-.48H55a.45.45,0,0,1,.42.48Z"/><path class="cls-3" d="M42.67,75.88H40.21C43.4,58.16,46,40.44,49.16,22.72h1.45Q46.65,49.3,42.67,75.88Z"/><path class="cls-3" d="M69,75.88H66.51l-8-53.16H60C63.21,40.44,65.77,58.16,69,75.88Z"/><path class="cls-3" d="M46.91,39.05c2.6-2,5.18-4,7.68-6.27,2.49,2.24,5.07,4.29,7.68,6.27l-.42-2.36c-2.05-1.6-4.08-3.25-6.05-5,1.49-1.4,3-2.88,4.35-4.45l-.37-2.08a68.47,68.47,0,0,1-5.19,5.41,70.42,70.42,0,0,1-5.2-5.41L49,27.22q2.11,2.36,4.35,4.45c-2,1.77-4,3.42-6,5Z"/><path class="cls-3" d="M67.54,68.49c-3.73-1.95-7.42-4-11.08-6.14,3-1.82,6-3.73,8.95-5.76l-.69-3.88C61.83,50.91,59,49,56.13,47c2.25-1.65,4.46-3.4,6.63-5.27l-.39-2.14c-2.53,2.27-5.13,4.35-7.78,6.3-2.65-2-5.26-4-7.79-6.3l-.38,2.14C48.58,43.63,50.8,45.38,53,47c-2.82,2-5.69,3.88-8.58,5.68l-.69,3.88c2.95,2,5.94,3.94,8.95,5.76-3.66,2.16-7.36,4.19-11.08,6.14l-.22,1.22c.11.24.22.48.37.79,4.31-2.22,8.58-4.54,12.8-7,4.22,2.49,8.49,4.81,12.8,7,.15-.31.26-.55.37-.79Zm-13-7.26c-3.38-2-6.72-4.2-10-6.52,3.38-2.07,6.74-4.23,10-6.57,3.29,2.34,6.64,4.5,10,6.57C61.31,57,58,59.19,54.59,61.23Z"/><path class="cls-3" d="M59.55,26H49.62V24.81h9.93Zm1.38,4.88H48.25V32H60.93Zm.67,7.6h-14v1.18h14ZM63,46.17H46.16v1.17H63Zm1.48,8.3H44.68v1.18H64.5Zm.66,7.11H44v1.18H65.16Zm1.52,7.25H42.5V70H66.68Z"/><path class="cls-3" d="M37.45,90.55c1,.74,2,1.5,2.8,1.5s1.81-.76,2.8-1.5l.71-.52v-9H35.3v8.07A15.94,15.94,0,0,1,37.45,90.55Z"/><path class="cls-3" d="M66.14,90.55c1,.74,2,1.5,2.8,1.5s1.81-.76,2.8-1.5a15.23,15.23,0,0,1,2.14-1.41V81.07H65.42v9Z"/><path class="cls-3" d="M108.88,88.14c-2,.23-3.79,1.54-5.38,2.72-1.35,1-2.75,2-3.83,2s-2.48-1-3.83-2c-1.74-1.3-3.72-2.77-6-2.77s-4.25,1.47-6,2.77c-1.35,1-2.75,2-3.83,2s-2.48-1-3.84-2c-1.74-1.3-3.71-2.77-6-2.77s-4.24,1.47-6,2.77c-1.36,1-2.76,2-3.84,2s-2.48-1-3.83-2c-1.74-1.3-3.71-2.77-6-2.77s-4.25,1.47-6,2.77c-1.35,1-2.75,2-3.83,2s-2.48-1-3.84-2c-1.73-1.3-3.71-2.77-6-2.77s-4.25,1.47-6,2.77c-1.36,1-2.75,2-3.84,2s-2.47-1-3.83-2c-1.58-1.18-3.37-2.49-5.39-2.72V91.8a11.84,11.84,0,0,1,3.24,2c1.74,1.3,3.71,2.76,6,2.76s4.25-1.46,6-2.76c1.36-1,2.75-2,3.84-2s2.48,1,3.83,2c1.74,1.3,3.71,2.76,6,2.76s4.25-1.46,6-2.76c1.35-1,2.75-2,3.83-2s2.48,1,3.83,2c1.74,1.3,3.72,2.76,6,2.76s4.25-1.46,6-2.76c1.35-1,2.75-2,3.83-2s2.49,1,3.84,2c1.74,1.3,3.71,2.76,6,2.76s4.24-1.46,6-2.76c1.36-1,2.76-2,3.84-2s2.48,1,3.83,2c1.74,1.3,3.71,2.76,6,2.76s4.25-1.46,6-2.76a11.56,11.56,0,0,1,3.22-1.94Z"/><path class="cls-3" d="M108.88,96.56c-2,.23-3.79,1.54-5.38,2.72-1.35,1-2.75,2-3.83,2s-2.48-1-3.83-2c-1.74-1.3-3.72-2.77-6-2.77s-4.25,1.47-6,2.77c-1.35,1-2.75,2-3.83,2s-2.48-1-3.84-2c-1.74-1.3-3.71-2.77-6-2.77S66,98,64.22,99.28c-1.36,1-2.76,2-3.84,2s-2.48-1-3.83-2c-1.74-1.3-3.71-2.77-6-2.77s-4.25,1.47-6,2.77c-1.35,1-2.75,2-3.83,2s-2.48-1-3.84-2c-1.73-1.3-3.71-2.77-6-2.77s-4.25,1.47-6,2.77c-1.36,1-2.75,2-3.84,2s-2.47-1-3.83-2c-1.58-1.18-3.37-2.49-5.39-2.72v3.66a11.84,11.84,0,0,1,3.24,2c1.74,1.29,3.71,2.76,6,2.76s4.25-1.47,6-2.76c1.36-1,2.75-2,3.84-2s2.48,1,3.83,2c1.74,1.29,3.71,2.76,6,2.76s4.25-1.47,6-2.76c1.35-1,2.75-2,3.83-2s2.48,1,3.83,2c1.74,1.29,3.72,2.76,6,2.76s4.25-1.47,6-2.76c1.35-1,2.75-2,3.83-2s2.49,1,3.84,2c1.74,1.29,3.71,2.76,6,2.76s4.24-1.47,6-2.76c1.36-1,2.76-2,3.84-2s2.48,1,3.83,2c1.74,1.29,3.71,2.76,6,2.76s4.25-1.47,6-2.76a11.87,11.87,0,0,1,3.22-2Z"/><rect class="cls-4" x="29.98" y="56.58" width="23.37" height="17.35"/><rect class="cls-3" x="47.15" y="59.79" width="3.12" height="5.47"/><rect class="cls-3" x="41.03" y="59.79" width="3.12" height="5.47"/><rect class="cls-3" x="33.02" y="67.59" width="3.12" height="5.47"/><path class="cls-3" d="M73.82,76.74,71.15,61,66.5,66.41l-.66-.58L71,59.88v0h0L96.25,30.51,99,32.32ZM72,60.89l2.25,13.27,6.77-12ZM72,60l8.7,1.24-2-9Zm7.61-7.75,2,9,4.93-8.71Zm-.17-.89,6.88.24-1.58-6.4Zm6.23-6.08,1.49,6.07,3.88-6.85Zm4.74-6.66-5,5.81,5.46-.79Zm.86-.2.45,4.87,3-5.33Zm2.86-4.13-2.78,3.24,3.12-.42Zm.78-.9.42,3.52,2.45-4.32-1.38-.93Z"/><path class="cls-3" d="M102.21,32.09a4,4,0,1,0-4,4A4,4,0,0,0,102.21,32.09Z"/><circle class="cls-5" cx="98.18" cy="32.09" r="1.56"/><path class="cls-3" d="M61.33,22.18a.9.9,0,0,1-.81,1H48.66a.91.91,0,0,1-.82-1V19.71a.9.9,0,0,1,.82-1H60.52a.9.9,0,0,1,.81,1Z"/><rect class="cls-4" x="63.53" y="64.36" width="17.4" height="8.91" rx="1.96"/><rect class="cls-3" x="25.69" y="72.83" width="57.8" height="8.91" rx="1.96"/></svg>