<svg id="Layer_1" data-name="Layer 1" xmlns="http://www.w3.org/2000/svg" viewBox="0 0 121.68 146.78"><defs><style>.cls-1,.cls-3,.cls-5{fill:none;stroke:#2f3082;}.cls-1,.cls-4,.cls-5,.cls-7{stroke-miterlimit:10;}.cls-1{stroke-width:1px;}.cls-2,.cls-6,.cls-7{fill:#2f3082;}.cls-3{stroke-linecap:round;stroke-linejoin:round;stroke-width:1.97px;}.cls-4,.cls-9{fill:#fff;}.cls-4,.cls-7{stroke:#fff;}.cls-4{stroke-width:4px;}.cls-5{stroke-width:5.54px;}.cls-6{fill-rule:evenodd;}.cls-7{stroke-width:3px;}.cls-8,.cls-9{font-size:24px;font-family:ThaiSansNeue-SemiBold, ThaiSans Neue;font-weight:600;}.cls-8{fill:#231f20;}</style></defs><title>link-4</title><path class="cls-1" d="M104.89,81.72h4.7a2.36,2.36,0,0,0,2.2-1.3,2.87,2.87,0,0,0,.32-1.2V45.07a2,2,0,0,0-.68-1.6,2.56,2.56,0,0,0-1.88-.51h-4.66v1.89h4.86a.92.92,0,0,1,.45.06.68.68,0,0,1,0,.17V79.16a1.1,1.1,0,0,1-.13.41c-.06.13-.17.25-.5.25h-4.7Z"/><path class="cls-2" d="M93,50.42V48.25h1.54V43.19a5.52,5.52,0,0,1,11,0v5.06h1.39v2.17h-1.39v2.8h1.39v2.17h-1.39v30.5h-11V55.39H93V53.22h1.54v-2.8Z"/><path class="cls-2" d="M83.36,76.21V52.37H81.62V49.91h1.74V46.73H81.62V44.28h1.74V38.54a6.25,6.25,0,0,1,12.33-1.45A6.7,6.7,0,0,0,94,38.33a6.82,6.82,0,0,0-2,4.86v3.7H90.45v9.86H92V85.89H77.47V76.21Z"/><path class="cls-1" d="M43.12,81.72H38.41a2.39,2.39,0,0,1-2.2-1.3,3.25,3.25,0,0,1-.32-1.2V45.07a2,2,0,0,1,.68-1.6A2.58,2.58,0,0,1,38.46,43h4.66v1.89H38.26a.9.9,0,0,0-.45.06.68.68,0,0,0,0,.17V79.16a1,1,0,0,0,.12.41c.07.13.17.25.5.25h4.71Z"/><path class="cls-2" d="M55,50.42V48.25H53.5V43.19a5.52,5.52,0,0,0-11,0v5.06h-1.4v2.17h1.4v2.8h-1.4v2.17h1.4v30.5h11V55.39H55V53.22H53.5v-2.8Z"/><path class="cls-2" d="M71.16,49.64V47.47H69.63V42.41a5.52,5.52,0,0,0-11,0v5.06h-1.4v2.17h1.4v2.81h-1.4v2.17h1.4V85.89h11V54.62h1.53V52.45H69.63V49.64Z"/><polyline class="cls-3" points="64.11 36.77 64.11 33.59 77.28 33.59 77.28 53.76 74.29 53.76 74.29 88.41"/><polyline class="cls-3" points="89.11 31.63 89.11 28.46 102.28 28.46 102.28 48.62 99.29 48.62 99.29 83.28"/><path class="cls-4" d="M26.4,37.89c2.63,1.54.11,3.84-1,5.42,1.66-1.28,4-2.41,4.89-4.44.87-2.19-1.13-2.79-2.82-3.13-.64-.11-1.62-.11-2-.82A2.59,2.59,0,0,1,25.68,33a22.84,22.84,0,0,1,1.05-2.1,5.62,5.62,0,0,0,.72-1.25l.15-.45c-1.62,1.4-3.88,3.13-4.59,5.2C22.18,36.72,25,37.06,26.4,37.89Z"/><path class="cls-4" d="M49.41,69.42V65.9l-7,3.52v5.75H37.64V60.48H25.27V46.13H19.71c2-1.4,4.43-2.77,5.4-5,1.08-2.73-1.42-3.48-3.54-3.91-.8-.14-2-.14-2.45-1a3.11,3.11,0,0,1,.24-2.35,25.92,25.92,0,0,1,1.31-2.64,7,7,0,0,0,.9-1.56l.19-.56c-2,1.74-4.85,3.91-5.75,6.5-1,2.88,2.45,3.3,4.24,4.34,3,1.76.64,4.31-.87,6.25h-.65V60.48H12.9v25.2H56.43V65.9ZM27.94,81.3H15.71v-3H27.94Zm0-4.81H15.71v-3H27.94Zm0-4.86H15.71v-3H27.94Zm0-5H15.71v-3H27.94ZM34.87,81.3H30v-3h4.88Zm0-4.81H30v-3h4.88Zm0-4.86H30v-3h4.88Zm0-5H30v-3h4.88ZM47,81.94H40.9V78.87H47Zm7,0h-5V78.87h5Z"/><polyline class="cls-5" points="33.15 2.77 2.77 2.77 2.77 33.15"/><polyline class="cls-5" points="88.53 118.91 118.91 118.91 118.91 88.53"/><polygon class="cls-6" points="70.04 130.85 60.84 146.78 51.64 130.85 70.04 130.85"/><rect class="cls-2" x="10.22" y="87.2" width="59.04" height="3.59"/><rect class="cls-2" x="10.22" y="87.2" width="100.49" height="3.59"/><path class="cls-2" d="M25.27,60.48V46.13H18.73V60.48H12.9v25.2H37.64V60.48ZM27.94,81.3H15.71v-3H27.94Zm0-4.81H15.71v-3H27.94Zm0-4.86H15.71v-3H27.94Zm0-5H15.71v-3H27.94ZM34.87,81.3H30v-3h4.88Zm0-4.81H30v-3h4.88Zm0-4.86H30v-3h4.88Zm0-5H30v-3h4.88Z"/><path class="cls-2" d="M27.6,29.23c-1.62,1.4-3.88,3.13-4.59,5.2-.83,2.29,1.95,2.63,3.39,3.46,2.63,1.54.11,3.84-1,5.42,1.66-1.28,4-2.41,4.89-4.44.87-2.19-1.13-2.79-2.82-3.13-.64-.11-1.62-.11-2-.82A2.59,2.59,0,0,1,25.68,33a22.84,22.84,0,0,1,1.05-2.1,5.62,5.62,0,0,0,.72-1.25Z"/><path class="cls-2" d="M21.76,29c-2,1.74-4.85,3.91-5.75,6.5-1,2.88,2.45,3.3,4.24,4.34,3.3,1.93.14,4.81-1.27,6.78,2.07-1.6,5-3,6.13-5.56,1.08-2.73-1.42-3.48-3.54-3.91-.8-.14-2-.14-2.45-1a3.11,3.11,0,0,1,.24-2.35,25.92,25.92,0,0,1,1.31-2.64,7,7,0,0,0,.9-1.56Z"/><path class="cls-2" d="M49.41,69.42V65.9l-7,3.52v5.75H37.64V85.68H56.43V65.9ZM47,81.94H40.9V78.87H47Zm7,0h-5V78.87h5Z"/><rect class="cls-7" x="13.67" y="83.23" width="95.88" height="23"/><text class="cls-8" transform="translate(21.04 101.72)">Petrochem</text><text class="cls-9" transform="translate(21.04 101.72)">Petrochem</text></svg>