<svg id="Layer_1" data-name="Layer 1" xmlns="http://www.w3.org/2000/svg" viewBox="0 0 121.68 146.78"><defs><style>.cls-1,.cls-3{fill:#2f3082;}.cls-2{fill:none;stroke:#2f3082;stroke-miterlimit:10;stroke-width:5.54px;}.cls-3{fill-rule:evenodd;}.cls-4{fill:#fff;}</style></defs><title>link-11</title><path class="cls-1" d="M113.79,78.79a6.49,6.49,0,0,0-3,1.49,4.53,4.53,0,0,1-2.11,1.13,4.55,4.55,0,0,1-2.12-1.13,5.86,5.86,0,0,0-3.3-1.52,5.86,5.86,0,0,0-3.3,1.52,4.55,4.55,0,0,1-2.12,1.13,4.48,4.48,0,0,1-2.11-1.13,5.88,5.88,0,0,0-3.31-1.52,5.86,5.86,0,0,0-3.3,1.52A4.55,4.55,0,0,1,87,81.41a4.53,4.53,0,0,1-2.11-1.13,5.88,5.88,0,0,0-3.31-1.52,5.89,5.89,0,0,0-3.3,1.52,4.55,4.55,0,0,1-2.12,1.13,4.57,4.57,0,0,1-2.11-1.13,5.89,5.89,0,0,0-3.3-1.52,5.88,5.88,0,0,0-3.31,1.52,4.57,4.57,0,0,1-2.11,1.13,4.55,4.55,0,0,1-2.12-1.13,6.44,6.44,0,0,0-3-1.49v2a6.72,6.72,0,0,1,1.78,1.08,5.88,5.88,0,0,0,3.31,1.52,5.89,5.89,0,0,0,3.3-1.52,4.55,4.55,0,0,1,2.12-1.13,4.57,4.57,0,0,1,2.11,1.13,5.89,5.89,0,0,0,3.3,1.52,5.88,5.88,0,0,0,3.31-1.52,4.53,4.53,0,0,1,2.11-1.13,4.55,4.55,0,0,1,2.12,1.13A5.89,5.89,0,0,0,87,83.4a5.88,5.88,0,0,0,3.31-1.52,4.48,4.48,0,0,1,2.11-1.13,4.55,4.55,0,0,1,2.12,1.13,5.86,5.86,0,0,0,3.3,1.52,5.86,5.86,0,0,0,3.3-1.52,4.55,4.55,0,0,1,2.12-1.13,4.48,4.48,0,0,1,2.11,1.13,5.88,5.88,0,0,0,3.31,1.52,5.89,5.89,0,0,0,3.3-1.52,6.55,6.55,0,0,1,1.78-1.07Z"/><path class="cls-1" d="M113.79,83.43a6.6,6.6,0,0,0-3,1.5,4.62,4.62,0,0,1-2.11,1.13,4.65,4.65,0,0,1-2.12-1.13,5.8,5.8,0,0,0-3.3-1.53,5.8,5.8,0,0,0-3.3,1.53,4.65,4.65,0,0,1-2.12,1.13,4.58,4.58,0,0,1-2.11-1.13,5.83,5.83,0,0,0-3.31-1.53,5.8,5.8,0,0,0-3.3,1.53A4.65,4.65,0,0,1,87,86.06a4.62,4.62,0,0,1-2.11-1.13,5.83,5.83,0,0,0-3.31-1.53,5.83,5.83,0,0,0-3.3,1.53,4.65,4.65,0,0,1-2.12,1.13,4.67,4.67,0,0,1-2.11-1.13,5.83,5.83,0,0,0-3.3-1.53,5.83,5.83,0,0,0-3.31,1.53,4.67,4.67,0,0,1-2.11,1.13,4.65,4.65,0,0,1-2.12-1.13,6.46,6.46,0,0,0-3-1.5v2a6.66,6.66,0,0,1,1.78,1.07,5.83,5.83,0,0,0,3.31,1.53,5.83,5.83,0,0,0,3.3-1.53,4.65,4.65,0,0,1,2.12-1.13,4.67,4.67,0,0,1,2.11,1.13,5.83,5.83,0,0,0,3.3,1.53,5.83,5.83,0,0,0,3.31-1.53,4.62,4.62,0,0,1,2.11-1.13,4.65,4.65,0,0,1,2.12,1.13A5.83,5.83,0,0,0,87,88.05a5.83,5.83,0,0,0,3.31-1.53,4.58,4.58,0,0,1,2.11-1.13,4.65,4.65,0,0,1,2.12,1.13,5.8,5.8,0,0,0,3.3,1.53,5.8,5.8,0,0,0,3.3-1.53,4.65,4.65,0,0,1,2.12-1.13,4.58,4.58,0,0,1,2.11,1.13,5.83,5.83,0,0,0,3.31,1.53,5.83,5.83,0,0,0,3.3-1.53,6.81,6.81,0,0,1,1.78-1.07Z"/><path class="cls-1" d="M113.79,89.47a6.6,6.6,0,0,0-3,1.5,4.53,4.53,0,0,1-2.11,1.13A4.55,4.55,0,0,1,106.59,91a5.86,5.86,0,0,0-3.3-1.52A5.86,5.86,0,0,0,100,91a4.55,4.55,0,0,1-2.12,1.13A4.48,4.48,0,0,1,95.76,91a5.88,5.88,0,0,0-3.31-1.52A5.86,5.86,0,0,0,89.15,91,4.55,4.55,0,0,1,87,92.1,4.53,4.53,0,0,1,84.92,91a5.88,5.88,0,0,0-3.31-1.52A5.89,5.89,0,0,0,78.31,91a4.55,4.55,0,0,1-2.12,1.13A4.57,4.57,0,0,1,74.08,91a5.89,5.89,0,0,0-3.3-1.52A5.88,5.88,0,0,0,67.47,91a4.57,4.57,0,0,1-2.11,1.13A4.55,4.55,0,0,1,63.24,91a6.55,6.55,0,0,0-3-1.5v2a6.46,6.46,0,0,1,1.78,1.08,5.88,5.88,0,0,0,3.31,1.52,5.89,5.89,0,0,0,3.3-1.52,4.55,4.55,0,0,1,2.12-1.13,4.57,4.57,0,0,1,2.11,1.13,5.89,5.89,0,0,0,3.3,1.52,5.88,5.88,0,0,0,3.31-1.52,4.53,4.53,0,0,1,2.11-1.13,4.55,4.55,0,0,1,2.12,1.13A5.89,5.89,0,0,0,87,94.09a5.88,5.88,0,0,0,3.31-1.52,4.48,4.48,0,0,1,2.11-1.13,4.55,4.55,0,0,1,2.12,1.13,5.86,5.86,0,0,0,3.3,1.52,5.86,5.86,0,0,0,3.3-1.52,4.55,4.55,0,0,1,2.12-1.13,4.48,4.48,0,0,1,2.11,1.13,5.88,5.88,0,0,0,3.31,1.52,5.89,5.89,0,0,0,3.3-1.52,6.88,6.88,0,0,1,1.78-1.08Z"/><path class="cls-1" d="M113.79,94.12a6.59,6.59,0,0,0-3,1.49,4.56,4.56,0,0,1-2.11,1.14,4.59,4.59,0,0,1-2.12-1.14,5.86,5.86,0,0,0-3.3-1.52,5.86,5.86,0,0,0-3.3,1.52,4.59,4.59,0,0,1-2.12,1.14,4.51,4.51,0,0,1-2.11-1.14,5.88,5.88,0,0,0-3.31-1.52,5.86,5.86,0,0,0-3.3,1.52A4.59,4.59,0,0,1,87,96.75a4.56,4.56,0,0,1-2.11-1.14,5.88,5.88,0,0,0-3.31-1.52,5.89,5.89,0,0,0-3.3,1.52,4.59,4.59,0,0,1-2.12,1.14,4.61,4.61,0,0,1-2.11-1.14,5.89,5.89,0,0,0-3.3-1.52,5.88,5.88,0,0,0-3.31,1.52,4.61,4.61,0,0,1-2.11,1.14,4.59,4.59,0,0,1-2.12-1.14,6.44,6.44,0,0,0-3-1.49v2a6.4,6.4,0,0,1,1.78,1.07,5.83,5.83,0,0,0,3.31,1.53,5.83,5.83,0,0,0,3.3-1.53,4.65,4.65,0,0,1,2.12-1.13,4.67,4.67,0,0,1,2.11,1.13,5.83,5.83,0,0,0,3.3,1.53,5.83,5.83,0,0,0,3.31-1.53,4.62,4.62,0,0,1,2.11-1.13,4.65,4.65,0,0,1,2.12,1.13A5.83,5.83,0,0,0,87,98.74a5.83,5.83,0,0,0,3.31-1.53,4.58,4.58,0,0,1,2.11-1.13,4.65,4.65,0,0,1,2.12,1.13,5.8,5.8,0,0,0,3.3,1.53,5.8,5.8,0,0,0,3.3-1.53,4.65,4.65,0,0,1,2.12-1.13,4.58,4.58,0,0,1,2.11,1.13,5.83,5.83,0,0,0,3.31,1.53,5.83,5.83,0,0,0,3.3-1.53,6.55,6.55,0,0,1,1.78-1.07Z"/><path class="cls-1" d="M60.27,78.79a6.39,6.39,0,0,0-3,1.49,4.55,4.55,0,0,1-2.12,1.13,4.53,4.53,0,0,1-2.11-1.13,5.88,5.88,0,0,0-3.31-1.52,5.89,5.89,0,0,0-3.3,1.52,4.55,4.55,0,0,1-2.12,1.13,4.57,4.57,0,0,1-2.11-1.13,5.88,5.88,0,0,0-3.31-1.52,5.89,5.89,0,0,0-3.3,1.52,4.53,4.53,0,0,1-2.11,1.13,4.55,4.55,0,0,1-2.12-1.13,5.89,5.89,0,0,0-3.3-1.52,5.88,5.88,0,0,0-3.31,1.52,4.48,4.48,0,0,1-2.11,1.13,4.55,4.55,0,0,1-2.12-1.13,5.86,5.86,0,0,0-3.3-1.52A5.86,5.86,0,0,0,14,80.28a4.55,4.55,0,0,1-2.12,1.13,4.48,4.48,0,0,1-2.11-1.13,6.47,6.47,0,0,0-3-1.49v2a6.76,6.76,0,0,1,1.79,1.08,5.89,5.89,0,0,0,3.3,1.52,5.86,5.86,0,0,0,3.3-1.52,4.55,4.55,0,0,1,2.12-1.13,4.55,4.55,0,0,1,2.12,1.13,5.86,5.86,0,0,0,3.3,1.52A5.89,5.89,0,0,0,26,81.88a4.55,4.55,0,0,1,2.12-1.13,4.53,4.53,0,0,1,2.11,1.13,5.88,5.88,0,0,0,3.31,1.52,5.89,5.89,0,0,0,3.3-1.52,4.57,4.57,0,0,1,2.11-1.13A4.51,4.51,0,0,1,41,81.88a5.89,5.89,0,0,0,3.3,1.52,5.88,5.88,0,0,0,3.31-1.52,4.57,4.57,0,0,1,2.11-1.13,4.55,4.55,0,0,1,2.12,1.13,5.89,5.89,0,0,0,3.3,1.52,5.88,5.88,0,0,0,3.31-1.52,6.27,6.27,0,0,1,1.78-1.07Z"/><path class="cls-1" d="M60.27,83.43a6.51,6.51,0,0,0-3,1.5,4.65,4.65,0,0,1-2.12,1.13,4.62,4.62,0,0,1-2.11-1.13,5.83,5.83,0,0,0-3.31-1.53,5.83,5.83,0,0,0-3.3,1.53,4.65,4.65,0,0,1-2.12,1.13,4.67,4.67,0,0,1-2.11-1.13,5.83,5.83,0,0,0-3.31-1.53,5.83,5.83,0,0,0-3.3,1.53,4.62,4.62,0,0,1-2.11,1.13,4.65,4.65,0,0,1-2.12-1.13,5.83,5.83,0,0,0-3.3-1.53,5.83,5.83,0,0,0-3.31,1.53,4.58,4.58,0,0,1-2.11,1.13,4.65,4.65,0,0,1-2.12-1.13,5.8,5.8,0,0,0-3.3-1.53A5.8,5.8,0,0,0,14,84.93a4.65,4.65,0,0,1-2.12,1.13,4.58,4.58,0,0,1-2.11-1.13,6.49,6.49,0,0,0-3-1.5v2a6.7,6.7,0,0,1,1.79,1.07,5.83,5.83,0,0,0,3.3,1.53,5.8,5.8,0,0,0,3.3-1.53,4.65,4.65,0,0,1,2.12-1.13,4.65,4.65,0,0,1,2.12,1.13,5.8,5.8,0,0,0,3.3,1.53A5.83,5.83,0,0,0,26,86.52a4.65,4.65,0,0,1,2.12-1.13,4.62,4.62,0,0,1,2.11,1.13,5.83,5.83,0,0,0,3.31,1.53,5.83,5.83,0,0,0,3.3-1.53,4.67,4.67,0,0,1,2.11-1.13A4.6,4.6,0,0,1,41,86.52a5.83,5.83,0,0,0,3.3,1.53,5.83,5.83,0,0,0,3.31-1.53,4.67,4.67,0,0,1,2.11-1.13,4.65,4.65,0,0,1,2.12,1.13,5.83,5.83,0,0,0,3.3,1.53,5.83,5.83,0,0,0,3.31-1.53,6.51,6.51,0,0,1,1.78-1.07Z"/><path class="cls-1" d="M60.27,89.47a6.51,6.51,0,0,0-3,1.5,4.55,4.55,0,0,1-2.12,1.13A4.53,4.53,0,0,1,53.07,91a5.88,5.88,0,0,0-3.31-1.52A5.89,5.89,0,0,0,46.46,91a4.55,4.55,0,0,1-2.12,1.13A4.57,4.57,0,0,1,42.23,91a5.88,5.88,0,0,0-3.31-1.52A5.89,5.89,0,0,0,35.62,91a4.53,4.53,0,0,1-2.11,1.13A4.55,4.55,0,0,1,31.39,91a5.89,5.89,0,0,0-3.3-1.52A5.88,5.88,0,0,0,24.78,91a4.48,4.48,0,0,1-2.11,1.13A4.55,4.55,0,0,1,20.55,91a5.86,5.86,0,0,0-3.3-1.52A5.86,5.86,0,0,0,14,91a4.55,4.55,0,0,1-2.12,1.13A4.48,4.48,0,0,1,9.72,91a6.59,6.59,0,0,0-3-1.5v2a6.5,6.5,0,0,1,1.79,1.08,5.89,5.89,0,0,0,3.3,1.52,5.86,5.86,0,0,0,3.3-1.52,4.55,4.55,0,0,1,2.12-1.13,4.55,4.55,0,0,1,2.12,1.13,5.86,5.86,0,0,0,3.3,1.52A5.89,5.89,0,0,0,26,92.57a4.55,4.55,0,0,1,2.12-1.13,4.53,4.53,0,0,1,2.11,1.13,5.88,5.88,0,0,0,3.31,1.52,5.89,5.89,0,0,0,3.3-1.52,4.57,4.57,0,0,1,2.11-1.13A4.51,4.51,0,0,1,41,92.57a5.89,5.89,0,0,0,3.3,1.52,5.88,5.88,0,0,0,3.31-1.52,4.57,4.57,0,0,1,2.11-1.13,4.55,4.55,0,0,1,2.12,1.13,5.89,5.89,0,0,0,3.3,1.52,5.88,5.88,0,0,0,3.31-1.52,6.57,6.57,0,0,1,1.78-1.08Z"/><path class="cls-1" d="M60.27,94.12a6.49,6.49,0,0,0-3,1.49,4.59,4.59,0,0,1-2.12,1.14,4.56,4.56,0,0,1-2.11-1.14,5.88,5.88,0,0,0-3.31-1.52,5.89,5.89,0,0,0-3.3,1.52,4.59,4.59,0,0,1-2.12,1.14,4.61,4.61,0,0,1-2.11-1.14,5.88,5.88,0,0,0-3.31-1.52,5.89,5.89,0,0,0-3.3,1.52,4.56,4.56,0,0,1-2.11,1.14,4.59,4.59,0,0,1-2.12-1.14,5.89,5.89,0,0,0-3.3-1.52,5.88,5.88,0,0,0-3.31,1.52,4.51,4.51,0,0,1-2.11,1.14,4.59,4.59,0,0,1-2.12-1.14,5.86,5.86,0,0,0-3.3-1.52A5.86,5.86,0,0,0,14,95.61a4.59,4.59,0,0,1-2.12,1.14,4.51,4.51,0,0,1-2.11-1.14,6.47,6.47,0,0,0-3-1.49v2a6.44,6.44,0,0,1,1.79,1.07,5.83,5.83,0,0,0,3.3,1.53,5.8,5.8,0,0,0,3.3-1.53,4.65,4.65,0,0,1,2.12-1.13,4.65,4.65,0,0,1,2.12,1.13,5.8,5.8,0,0,0,3.3,1.53A5.83,5.83,0,0,0,26,97.21a4.65,4.65,0,0,1,2.12-1.13,4.62,4.62,0,0,1,2.11,1.13,5.83,5.83,0,0,0,3.31,1.53,5.83,5.83,0,0,0,3.3-1.53,4.67,4.67,0,0,1,2.11-1.13A4.6,4.6,0,0,1,41,97.21a5.83,5.83,0,0,0,3.3,1.53,5.83,5.83,0,0,0,3.31-1.53,4.67,4.67,0,0,1,2.11-1.13,4.65,4.65,0,0,1,2.12,1.13,5.83,5.83,0,0,0,3.3,1.53,5.83,5.83,0,0,0,3.31-1.53,6.27,6.27,0,0,1,1.78-1.07Z"/><polyline class="cls-2" points="33.15 2.77 2.77 2.77 2.77 33.15"/><polyline class="cls-2" points="88.53 118.91 118.91 118.91 118.91 88.53"/><polygon class="cls-3" points="70.04 130.85 60.84 146.78 51.64 130.85 70.04 130.85"/><path class="cls-1" d="M85.48,41.1a1.86,1.86,0,0,0-1.85-1.86H16.29a1.86,1.86,0,0,0-1.86,1.86v9.22H85.48ZM22,44.52a1.33,1.33,0,0,1-1.88-1.88A1.33,1.33,0,1,1,22,44.52Zm6.34.39a1.33,1.33,0,1,1,1.33-1.33A1.34,1.34,0,0,1,28.32,44.91Zm7.27,0a1.33,1.33,0,1,1,1.33-1.33A1.33,1.33,0,0,1,35.59,44.91Zm7.28,0a1.33,1.33,0,1,1,1.33-1.33A1.34,1.34,0,0,1,42.87,44.91Zm7.27,0a1.33,1.33,0,1,1,1.33-1.33A1.33,1.33,0,0,1,50.14,44.91Zm8.22-.39a1.35,1.35,0,0,1-1.88,0,1.33,1.33,0,1,1,1.88,0Z"/><path class="cls-1" d="M76.46,31a1.81,1.81,0,0,0-1.8-1.8H29.77A1.8,1.8,0,0,0,28,31v6.91H76.46V31ZM32.65,34.8a1.35,1.35,0,0,1-1.88,0,1.33,1.33,0,1,1,1.88-1.88,1.33,1.33,0,0,1,0,1.88Zm6.63.38a1.33,1.33,0,1,1,1.32-1.32A1.32,1.32,0,0,1,39.28,35.18Zm7.56,0a1.33,1.33,0,1,1,1.33-1.32A1.32,1.32,0,0,1,46.84,35.18Zm8.51-.38a1.33,1.33,0,1,1-1.88-1.88,1.33,1.33,0,1,1,1.88,1.88Z"/><path class="cls-1" d="M23.14,25.85a1.2,1.2,0,0,0-1.2-1.2H20.15a1.21,1.21,0,0,0-1.21,1.2v12h4.2Z"/><path class="cls-1" d="M25.39,69.24a2.83,2.83,0,1,0-2.82-2.82A2.83,2.83,0,0,0,25.39,69.24Z"/><path class="cls-1" d="M17.68,72.46a4.77,4.77,0,0,0,4.57,3.44h71.8a4.76,4.76,0,0,0,4.12-2.39l8.77-15.35H13.6Zm7.71-12.25a6.21,6.21,0,1,1-6.2,6.21A6.21,6.21,0,0,1,25.39,60.21Z"/><polygon class="cls-1" points="11.85 51.97 13.05 56.17 107.63 56.17 110.03 51.97 11.85 51.97"/><path class="cls-4" d="M71,33.88a1.35,1.35,0,1,1-1.35-1.35A1.35,1.35,0,0,1,71,33.88Z"/><path class="cls-4" d="M63.36,33.88A1.35,1.35,0,1,1,62,32.53,1.34,1.34,0,0,1,63.36,33.88Z"/><path class="cls-4" d="M73.92,43.59a1.34,1.34,0,1,1-1.34-1.35A1.34,1.34,0,0,1,73.92,43.59Z"/><path class="cls-4" d="M66.34,43.59A1.35,1.35,0,1,1,65,42.24,1.34,1.34,0,0,1,66.34,43.59Z"/><path class="cls-4" d="M81.51,43.59a1.35,1.35,0,1,1-1.34-1.35A1.34,1.34,0,0,1,81.51,43.59Z"/></svg>